<svg xmlns="http://www.w3.org/2000/svg" width="351.47" height="285.234" viewBox="0 0 351.47 285.234">
  <g id="Character" transform="translate(0 -0.05)">
    <rect id="Rectangle_123" data-name="Rectangle 123" width="226.23" height="0.185" transform="translate(0 250.699)" fill="#ebebeb"/>
    <rect id="Rectangle_124" data-name="Rectangle 124" width="25.358" height="0.185" transform="translate(319.12 263.029)" fill="#ebebeb"/>
    <rect id="Rectangle_125" data-name="Rectangle 125" width="6.663" height="0.185" transform="translate(246.961 265.108)" fill="#ebebeb"/>
    <rect id="Rectangle_126" data-name="Rectangle 126" width="14.694" height="0.185" transform="translate(303.672 255.924)" fill="#ebebeb"/>
    <rect id="Rectangle_127" data-name="Rectangle 127" width="33.075" height="0.185" transform="translate(40.166 257.206)" fill="#ebebeb"/>
    <rect id="Rectangle_128" data-name="Rectangle 128" width="4.855" height="0.185" transform="translate(80.061 257.206)" fill="#ebebeb"/>
    <rect id="Rectangle_129" data-name="Rectangle 129" width="71.732" height="0.185" transform="translate(100.664 260.438)" fill="#ebebeb"/>
    <path id="Tracé_2023" data-name="Tracé 2023" d="M172.77,220.506H24.921a4.371,4.371,0,0,1-4.371-4.357V8.271A4.371,4.371,0,0,1,24.921,4H172.77a4.385,4.385,0,0,1,4.371,4.271V216.149A4.385,4.385,0,0,1,172.77,220.506ZM24.921,4.128a4.186,4.186,0,0,0-4.186,4.144V216.149a4.186,4.186,0,0,0,4.186,4.186H172.77a4.186,4.186,0,0,0,4.186-4.186V8.271A4.186,4.186,0,0,0,172.77,4.1Z" transform="translate(8.709 -3.95)" fill="#ebebeb"/>
    <path id="Tracé_2024" data-name="Tracé 2024" d="M289.09,220.506H141.241a4.371,4.371,0,0,1-4.371-4.371V8.271A4.371,4.371,0,0,1,141.241,4H289.09a4.385,4.385,0,0,1,4.371,4.271V216.149A4.385,4.385,0,0,1,289.09,220.506ZM141.241,4.128a4.186,4.186,0,0,0-4.186,4.144V216.149a4.186,4.186,0,0,0,4.186,4.186H289.09a4.186,4.186,0,0,0,4.186-4.186V8.271A4.186,4.186,0,0,0,289.09,4.1Z" transform="translate(58.008 -3.95)" fill="#ebebeb"/>
    <path id="Tracé_2025" data-name="Tracé 2025" d="M246.856,193.692c-1.082-7.347-5.909-13.028-10.807-12.672a6.507,6.507,0,0,0-4.627,2.634c-6.094-9.141-14.537-14.765-23.037-14.139a17.912,17.912,0,0,0-11.391,5.254c-5.368-13.8-14.494-23.578-23.194-23.578-4.941,0-8.942,3.161-11.576,8.443-6.948-9.269-15.192-14.964-23.194-14.964-12.814,0-21.115,14.466-21.841,34.784-3.218,3.83-14.836,9.184-16.288,15.662H246.984A10.787,10.787,0,0,0,246.856,193.692Z" transform="translate(42.763 55.669)" fill="#f0f0f0"/>
    <path id="Tracé_2026" data-name="Tracé 2026" d="M172.982,183.279a6.065,6.065,0,0,0-4.442,3.075c-5.453-10.707-13.2-17.285-21.2-16.559a16.217,16.217,0,0,0-10.835,6.179h0c-4.6-16.146-12.814-27.579-21.073-27.579-4.656,0-8.543,3.7-11.134,9.881C98.06,147.413,90.471,140.75,82.939,140.75c-9.34,0-16.445,10.237-19.763,25.985-3.161-4.57-6.777-7.276-10.38-7.276-4.983,0-8.828,5.183-10.793,13.3a8.643,8.643,0,0,0-1.338.114c-8,1.353-13.982,11.846-13.825,23.835H182.607C181.5,188.79,177.353,182.881,172.982,183.279Z" transform="translate(11.374 54.007)" fill="#f0f0f0"/>
    <circle id="Ellipse_31" data-name="Ellipse 31" cx="33.403" cy="33.403" r="33.403" transform="translate(229.109 101.057) rotate(-13.28)" fill="#f5f5f5"/>
    <path id="Tracé_2027" data-name="Tracé 2027" d="M244.848,45.272c-1.239-3.7-5.211-6.222-10.707-6.222-7.119,0-14.409,4.271-17.3,9.824a8.543,8.543,0,0,0-3.588-.712c-4.869,0-9.824,3.218-11.092,7.119a6.333,6.333,0,0,0-.242,1.1h47.869a9.867,9.867,0,0,0,1.31-2.591C252.48,49.515,249.732,45.913,244.848,45.272Z" transform="translate(85.577 10.905)" fill="#ebebeb"/>
    <path id="Tracé_2028" data-name="Tracé 2028" d="M42.126,102.149c.911-2.734,3.859-4.6,7.931-4.6a15.036,15.036,0,0,1,12.814,7.276,6.393,6.393,0,0,1,2.663-.527c3.6,0,7.276,2.378,8.215,5.325a4.129,4.129,0,0,1,.171.812H38.467a6.777,6.777,0,0,1-.968-1.922C36.474,105.31,38.51,102.633,42.126,102.149Z" transform="translate(15.78 35.698)" fill="#f5f5f5"/>
    <path id="Tracé_2029" data-name="Tracé 2029" d="M196.091,17.231a12.359,12.359,0,0,1,8.543-3.631c4.158,0,6.834,2.477,6.45,5.7a7.5,7.5,0,0,1,2.364-.413c2.848,0,4.542,1.879,3.816,4.271a3.2,3.2,0,0,1-.271.641H189.072a4.086,4.086,0,0,1,.2-1.509A8.3,8.3,0,0,1,196.091,17.231Z" transform="translate(80.129 0.119)" fill="#f5f5f5"/>
    <path id="Tracé_2030" data-name="Tracé 2030" d="M88.137,21.787A7.917,7.917,0,0,1,93.59,19.48c2.663,0,4.357,1.58,4.115,3.659a4.556,4.556,0,0,1,1.509-.271c1.808,0,2.848,1.2,2.435,2.677a2.537,2.537,0,0,1-.171.413H83.652a2.335,2.335,0,0,1,.128-.968,5.3,5.3,0,0,1,4.357-3.2Z" transform="translate(35.45 2.611)" fill="#f5f5f5"/>
    <path id="Tracé_2031" data-name="Tracé 2031" d="M93.7,68.625a8.541,8.541,0,0,0-1.054,0c-.712-3.075-3.8-5.225-8.187-5.225a14.694,14.694,0,0,0-3.517.441c-1.125-3.93-5.211-6.621-10.935-6.621-6.977,0-14.1,4.015-17.2,9.369-4.271.7-8.23,3.631-9.34,7.119a5.211,5.211,0,0,0-.256,1.111h56.1C100.419,71.415,97.885,68.625,93.7,68.625Z" transform="translate(18.313 18.606)" fill="#ebebeb"/>
    <path id="Tracé_2032" data-name="Tracé 2032" d="M156.63,122.53l4.058-2.52,4.072,3.332-.769,76.516H157.37Z" transform="translate(66.383 50.841)" fill="#e6e6e6"/>
    <path id="Tracé_2033" data-name="Tracé 2033" d="M147.384,125.136l-4.072-5.126-4.072,3.332.769,76.516h6.621Z" transform="translate(59.012 50.841)" fill="#e6e6e6"/>
    <path id="Tracé_2034" data-name="Tracé 2034" d="M129.994,122.53l-4.058-2.52-4.086,3.332.769,76.516h6.621Z" transform="translate(51.642 50.841)" fill="#e6e6e6"/>
    <path id="Tracé_2035" data-name="Tracé 2035" d="M104.46,125.136l4.058-5.126,4.086,3.332-.769,76.516h-6.621Z" transform="translate(44.272 50.841)" fill="#e6e6e6"/>
    <path id="Tracé_2036" data-name="Tracé 2036" d="M226.18,122.53l4.058-2.52,4.086,3.332-.783,76.516H226.92Z" transform="translate(95.859 50.841)" fill="#e6e6e6"/>
    <path id="Tracé_2037" data-name="Tracé 2037" d="M216.934,125.136l-4.058-5.126-4.086,3.332.769,76.516h6.621Z" transform="translate(88.489 50.841)" fill="#e6e6e6"/>
    <path id="Tracé_2038" data-name="Tracé 2038" d="M199.544,122.53l-4.058-2.52-4.086,3.332.769,76.516h6.621Z" transform="translate(81.119 50.841)" fill="#e6e6e6"/>
    <path id="Tracé_2039" data-name="Tracé 2039" d="M174.01,125.136l4.072-5.126,4.072,3.332-.769,76.516h-6.621Z" transform="translate(73.749 50.841)" fill="#e6e6e6"/>
    <path id="Tracé_2040" data-name="Tracé 2040" d="M102.61,136.838l191.4.085-.185-2.506L102.61,133.99Z" transform="translate(43.488 56.766)" fill="#e6e6e6"/>
    <ellipse id="_Path_" data-name="&lt;Path&gt;" cx="148.462" cy="8.671" rx="148.462" ry="8.671" transform="translate(42.957 267.941)" fill="#f5f5f5"/>
    <rect id="Rectangle_130" data-name="Rectangle 130" width="0.769" height="13.697" transform="translate(252.386 160.13)" fill="#407bff"/>
    <rect id="Rectangle_131" data-name="Rectangle 131" width="0.769" height="4.599" transform="translate(252.386 151.117)" fill="#407bff"/>
    <path id="Tracé_2041" data-name="Tracé 2041" d="M174.879,21.91h0a2.549,2.549,0,0,0-2.549,2.549V270.381a1.239,1.239,0,0,0,1.253,1.239h2.549a1.253,1.253,0,0,0,1.253-1.239V24.459A2.563,2.563,0,0,0,174.879,21.91Z" transform="translate(73.037 3.641)" fill="#407bff"/>
    <path id="Tracé_2042" data-name="Tracé 2042" d="M172.33,39.95V43.2l2.549-3.246Z" transform="translate(73.037 16.91)" opacity="0.2"/>
    <path id="Tracé_2043" data-name="Tracé 2043" d="M176.683,58.58v3.246L174.12,58.58Z" transform="translate(73.795 24.806)" opacity="0.2"/>
    <path id="Tracé_2044" data-name="Tracé 2044" d="M176.683,95.84v3.246L174.12,95.84Z" transform="translate(73.795 40.598)" opacity="0.2"/>
    <path id="Tracé_2045" data-name="Tracé 2045" d="M172.33,77.21v3.246l2.549-3.246Z" transform="translate(73.037 32.702)" opacity="0.2"/>
    <path id="Tracé_2046" data-name="Tracé 2046" d="M191.747,46.231H137.955l-5.425-10.55,5.425-10.551h53.792Z" transform="translate(56.169 10.629)" fill="#407bff"/>
    <path id="Tracé_2047" data-name="Tracé 2047" d="M138.382,44.24l-4.642-9.013,4.642-9.027H189.71V44.24Z" transform="translate(56.681 11.083)" fill="#fff"/>
    <path id="Tracé_2048" data-name="Tracé 2048" d="M174.12,64.861h26.853L206.4,54.31l-5.425-10.55H174.12Z" transform="translate(73.795 18.525)" fill="#407bff"/>
    <path id="Tracé_2049" data-name="Tracé 2049" d="M199.576,62.87l4.642-9.013-4.642-9.027H175.2V62.87Z" transform="translate(74.253 18.979)" fill="#fff"/>
    <path id="Tracé_2050" data-name="Tracé 2050" d="M187.263,83.491H148.535L143.11,72.94l5.425-10.55h38.728Z" transform="translate(60.653 26.421)" fill="#407bff"/>
    <path id="Tracé_2051" data-name="Tracé 2051" d="M148.947,81.5l-4.627-9.013,4.627-9.027h36.279V81.5Z" transform="translate(61.165 26.874)" fill="#fff"/>
    <path id="Tracé_2052" data-name="Tracé 2052" d="M174.12,102.121h37.318l5.425-10.55L211.438,81.02H174.12Z" transform="translate(73.795 34.317)" fill="#407bff"/>
    <path id="Tracé_2053" data-name="Tracé 2053" d="M210.041,100.13l4.642-9.013-4.642-9.027H175.2v18.04Z" transform="translate(74.253 34.77)" fill="#fff"/>
    <path id="Tracé_2054" data-name="Tracé 2054" d="M119.86,191.84l5.439-2.321-3.93-13.2-5.439,2.321Z" transform="translate(49.133 74.706)" fill="#ffc3bd"/>
    <path id="Tracé_2055" data-name="Tracé 2055" d="M87.21,193.173h5.909l.3-13.683H87.509Z" transform="translate(36.961 76.05)" fill="#ffc3bd"/>
    <path id="Tracé_2056" data-name="Tracé 2056" d="M94.565,192.58h-7.2a.5.5,0,0,0-.5.4l-1.168,5.254a.883.883,0,0,0,.869,1.054c2.307,0,4-.185,6.92-.185,1.808,0,7.219.185,9.7.185s2.848-2.449,1.794-2.663c-4.556-1-7.988-2.378-9.44-3.688a1.509,1.509,0,0,0-.968-.356Z" transform="translate(36.312 75.974)" fill="#263238"/>
    <path id="Tracé_2057" data-name="Tracé 2057" d="M124.245,189.365l-5.838,2.748a.555.555,0,0,0-.285.584l1.253,5.211a.869.869,0,0,0,1.224.584c2.079-1.039,5.069-2.591,7.717-3.844,3.09-1.424,3.189-1.424,6.806-3.175,2.193-1.039,1.751-3.545.74-3.317-4.613,1.068-5.411,1.424-10.081.968a2.634,2.634,0,0,0-1.538.242Z" transform="translate(50.059 74.092)" fill="#263238"/>
    <path id="Tracé_2058" data-name="Tracé 2058" d="M100.109,66.548l2.435.6c.84.2,1.68.384,2.52.541a44.293,44.293,0,0,0,4.855.7,16,16,0,0,0,2.15,0,7.262,7.262,0,0,0,1.424-.185c.114,0,.1,0,0,.085a1.3,1.3,0,0,0-.313.555V69.1a1.082,1.082,0,0,0,0-.427,13.228,13.228,0,0,0-1.737-3.745,50.016,50.016,0,0,0-2.976-4.143c-2.178-2.734-4.6-5.467-7.019-8.1l2.776-3.46a62.648,62.648,0,0,1,9.184,6.934,42.9,42.9,0,0,1,4.129,4.271,18.866,18.866,0,0,1,3.389,6.094,9.968,9.968,0,0,1,.456,2.278,7.646,7.646,0,0,1-.384,2.99,7.219,7.219,0,0,1-1.851,2.848,8.77,8.77,0,0,1-2.335,1.538,13.427,13.427,0,0,1-3.987,1.011,22.78,22.78,0,0,1-3.374.1,41.292,41.292,0,0,1-6.094-.7c-.982-.2-1.951-.4-2.848-.626s-1.879-.484-2.848-.812Z" transform="translate(41.39 15.215)" fill="#ffc3bd"/>
    <path id="Tracé_2059" data-name="Tracé 2059" d="M93.988,63.861c3.075-4.741,19.634-1.253,19.634-1.253l.954,14.338a134.476,134.476,0,0,0-13.555-1.3C96.351,75.437,90.143,69.756,93.988,63.861Z" transform="translate(39.325 20.365)" fill="#263238"/>
    <path id="Tracé_2060" data-name="Tracé 2060" d="M102.67,54.261l-5.61-2.99,5.4-4.271a6.364,6.364,0,0,1,2.848,4.271Z" transform="translate(41.136 14.274)" fill="#ffc3bd"/>
    <path id="Tracé_2061" data-name="Tracé 2061" d="M94.68,44.89l5.411-3.36,3.374,2.221-5.4,4.229Z" transform="translate(40.127 17.58)" fill="#ffc3bd"/>
    <path id="Tracé_2062" data-name="Tracé 2062" d="M121.369,176.32l2.022,6.806-5.439,2.321-2.022-6.806Z" transform="translate(49.133 74.706)" opacity="0.2"/>
    <path id="Tracé_2063" data-name="Tracé 2063" d="M87.467,179.5h5.909l-.157,7.048H87.31Z" transform="translate(37.004 76.054)" opacity="0.2"/>
    <path id="Tracé_2064" data-name="Tracé 2064" d="M86.45,72.822l-7.2,10.394a4.272,4.272,0,0,0-.755,2.235l-.57,13.8a4.272,4.272,0,0,0,.94,2.848l3.132,3.887a4.271,4.271,0,0,0,3.531,1.566l9.483-.527a4.271,4.271,0,0,0,4-4.271l-.085-27.679A4.271,4.271,0,0,0,94.651,70.8l-4.77.128A4.271,4.271,0,0,0,86.45,72.822Z" transform="translate(33.023 24.361)" fill="#407bff"/>
    <path id="Tracé_2065" data-name="Tracé 2065" d="M86.45,72.822l-7.2,10.394a4.272,4.272,0,0,0-.755,2.235l-.57,13.8a4.272,4.272,0,0,0,.94,2.848l3.132,3.887a4.271,4.271,0,0,0,3.531,1.566l9.483-.527a4.271,4.271,0,0,0,4-4.271l-.085-27.679A4.271,4.271,0,0,0,94.651,70.8l-4.77.128A4.271,4.271,0,0,0,86.45,72.822Z" transform="translate(33.023 24.361)" opacity="0.3"/>
    <rect id="Rectangle_132" data-name="Rectangle 132" width="29.217" height="14.238" rx="5" transform="translate(113.598 79.681) rotate(-1.57)" fill="#407bff"/>
    <rect id="Rectangle_133" data-name="Rectangle 133" width="29.217" height="14.238" rx="5" transform="translate(113.598 79.681) rotate(-1.57)" opacity="0.3"/>
    <path id="Tracé_2066" data-name="Tracé 2066" d="M79.34,63.3A132.416,132.416,0,0,1,82.7,82.808c.47,4.6.712,8.97.84,12.942.313,9.3,0,16.374.185,18.766l31.58-1.552c.925-46.445-2.848-51-2.848-51a62.9,62.9,0,0,0-7.532-1.1,15.49,15.49,0,0,1-1.623-.085,116.1,116.1,0,0,0-13.427.655c-.854.085-1.709.185-2.534.313C83.127,62.348,79.34,63.3,79.34,63.3Z" transform="translate(33.626 20.113)" fill="#263238"/>
    <path id="Tracé_2067" data-name="Tracé 2067" d="M108.532,73.48A39.44,39.44,0,0,0,85.751,75.2L85.11,73a41.661,41.661,0,0,1,24.048-1.822C108.945,71.942,108.745,72.768,108.532,73.48Z" transform="translate(36.071 24.101)" fill="#0969c9"/>
    <path id="Tracé_2068" data-name="Tracé 2068" d="M86.552,68.63A24.846,24.846,0,0,1,82.38,82.213q-.1-1.338-.256-2.734c-.342-3.446-.812-7.019-1.424-10.622Z" transform="translate(34.202 23.441)" opacity="0.2"/>
    <path id="Tracé_2069" data-name="Tracé 2069" d="M103.407,60.931h-.883c-.541,0-1.082-.085-1.623-.1a116.251,116.251,0,0,0-13.427.655c-.84.085-1.694.2-2.534.313h0l.612.94c.925,1.424,3.915,4.969,11.547,5.7h.74l.626-.356c1.637-.94,4.271-3.189,4.9-5.6a3.944,3.944,0,0,0,.043-1.552Z" transform="translate(35.999 20.134)" fill="#fff"/>
    <path id="Tracé_2070" data-name="Tracé 2070" d="M85.328,44.324c-2.976-1.424-6.364,2.848-5.354,5.467A4.044,4.044,0,0,1,84,51.372a5.268,5.268,0,0,0-.8,5.083c2.421-1.424,4.9.6,4.9.6a3.859,3.859,0,0,0,.911,4.271c.641-1.737,3.061-.171,4.044-1.552a4.058,4.058,0,0,0-.242-4.613l-.669-1.21C91.678,48.752,89.969,46.631,85.328,44.324Z" transform="translate(33.817 13.02)" fill="#263238"/>
    <path id="Tracé_2071" data-name="Tracé 2071" d="M87.3,50.58c1.054,4.271,2.292,12.145-.584,15.178,1.2,1.894,4.271,4.072,9.782,4.556,1.951-1.111,4.542-3.816,3.645-5.225-4.884-.911-4.926-4.485-4.271-7.874Z" transform="translate(36.754 15.791)" fill="#ffc3bd"/>
    <path id="Tracé_2072" data-name="Tracé 2072" d="M97.76,61.145c.342,2.848,2.848,21.955,9.426,30.128a.384.384,0,0,0,.683-.242V87.5a.242.242,0,0,0,0-.1,132.772,132.772,0,0,1-4.029-25.629.37.37,0,0,0-.185-.327,11.747,11.747,0,0,0-5.553-.712A.384.384,0,0,0,97.76,61.145Z" transform="translate(41.432 20.062)" fill="#0969c9"/>
    <path id="Tracé_2073" data-name="Tracé 2073" d="M89.611,52.48,94.694,56.4a12.926,12.926,0,0,0-.228,2.406c-1.851-.171-4.485-2.065-4.77-3.987a6.336,6.336,0,0,1-.085-2.335Z" transform="translate(37.949 16.597)" opacity="0.2"/>
    <path id="Tracé_2074" data-name="Tracé 2074" d="M96.54,48.718c1.595.157,3.916-5.14,1.267-8.913-2.435-3.488-7.247.128-7.859.783S90.859,48.12,96.54,48.718Z" transform="translate(38.068 10.591)" fill="#263238"/>
    <path id="Tracé_2075" data-name="Tracé 2075" d="M85.264,49.559c1.424,5.7,2.05,9.07,5.524,11.462,5.24,3.574,11.818-.441,12.06-6.436.228-5.411-2.207-13.783-8.287-14.979a8,8,0,0,0-9.3,9.952Z" transform="translate(36.017 11.074)" fill="#ffc3bd"/>
    <path id="Tracé_2076" data-name="Tracé 2076" d="M89.223,52.6c1.58.157,2.136-7.119,1.267-8.913s-7.418,0-7.859.783C80.025,48.73,83.528,52.019,89.223,52.6Z" transform="translate(34.649 12.544)" fill="#263238"/>
    <path id="Tracé_2077" data-name="Tracé 2077" d="M102.314,38.225c-.228-2.193-2.848-3.36-5.567-3.061-.128,1.623-2.848,2.848-2.848,2.848a6.906,6.906,0,0,0-5.823-1.353,5.9,5.9,0,0,1-2.121,4.271A4.67,4.67,0,0,0,81.113,42.2c1.979.925-1.239,2.99.555,5.282,2.036,2.591,5.7,1.125,5.7,1.125l1.538-.812C96.348,47,102.855,43.963,102.314,38.225Z" transform="translate(34.372 9.238)" fill="#263238"/>
    <path id="Tracé_2078" data-name="Tracé 2078" d="M96.747,50.476h0a12.33,12.33,0,0,1-3.8,1.837.142.142,0,0,1-.185-.128A.185.185,0,0,1,92.917,52a12.33,12.33,0,0,0,3.659-1.766.142.142,0,0,1,.214,0,.157.157,0,0,1-.043.242Z" transform="translate(39.313 15.625)" fill="#263238"/>
    <path id="Tracé_2079" data-name="Tracé 2079" d="M84.465,52.2a5.581,5.581,0,0,0,3.944,1.751c1.965,0,2.463-1.822,1.509-3.417s-2.933-3.189-4.727-2.477a2.52,2.52,0,0,0-.726,4.143Z" transform="translate(35.463 14.646)" fill="#ffc3bd"/>
    <path id="Tracé_2080" data-name="Tracé 2080" d="M123.246,161.73c-3.1-17.769-12.458-64.3-12.458-64.3L90,98.455s14.238,52.169,18.339,67.318,18.353,58.377,18.353,58.377l9.041-4.271S126.478,180.2,123.246,161.73Z" transform="translate(38.144 35.647)" fill="#0969c9"/>
    <path id="Tracé_2081" data-name="Tracé 2081" d="M96.788,110.47,93.94,113.1c2.492,9.212,5.467,20.119,8.03,29.5C102.568,132,101.3,116.066,96.788,110.47Z" transform="translate(39.813 41.174)" opacity="0.2"/>
    <path id="Tracé_2082" data-name="Tracé 2082" d="M105.291,97.73s-4.143,49.449-4.67,66.763c-.584,18.951-2.506,60.968-2.506,60.968H87.294s-1.666-38.443-2.036-57.038c-.413-21.044-2.848-69.554-2.848-69.554Z" transform="translate(34.927 35.774)" fill="#0969c9"/>
    <path id="Tracé_2083" data-name="Tracé 2083" d="M97.436,184.854H85.547l-.527-3.8L98.4,180.81Z" transform="translate(36.033 76.609)" fill="#263238"/>
    <path id="Tracé_2084" data-name="Tracé 2084" d="M126.3,180.689l-10.209,4.827-2.193-3.431,11.633-5.524Z" transform="translate(48.273 74.808)" fill="#263238"/>
    <path id="Tracé_2085" data-name="Tracé 2085" d="M91.526,46.766c.1.47.413.8.726.74s.484-.484.384-.954-.413-.8-.712-.74S91.441,46.3,91.526,46.766Z" transform="translate(38.782 13.768)" fill="#263238"/>
    <path id="Tracé_2086" data-name="Tracé 2086" d="M95.248,46.046c.085.47.413.8.712.74s.484-.484.4-.954-.413-.8-.726-.74S95.149,45.576,95.248,46.046Z" transform="translate(40.356 13.463)" fill="#263238"/>
    <path id="Tracé_2087" data-name="Tracé 2087" d="M94.09,46.15a17.342,17.342,0,0,0,3.019,3.574,2.705,2.705,0,0,1-2.25.74Z" transform="translate(39.877 13.914)" fill="#ed847e"/>
    <path id="Tracé_2088" data-name="Tracé 2088" d="M92.794,44.571a.342.342,0,0,0-.285.085,2.25,2.25,0,0,1-1.851.812.285.285,0,0,0-.327.228.3.3,0,0,0,.242.327,2.848,2.848,0,0,0,2.364-1,.27.27,0,0,0,0-.384Z" transform="translate(38.283 13.243)" fill="#263238"/>
    <path id="Tracé_2089" data-name="Tracé 2089" d="M97.4,43.108a.285.285,0,0,0,.142-.1.271.271,0,0,0,0-.384,2.848,2.848,0,0,0-2.549-.6.285.285,0,0,0-.171.356.271.271,0,0,0,.342.185h0a2.235,2.235,0,0,1,1.979.441A.285.285,0,0,0,97.4,43.108Z" transform="translate(40.182 12.129)" fill="#263238"/>
    <path id="Tracé_2090" data-name="Tracé 2090" d="M93.78,193.746a1.723,1.723,0,0,0,1.125-.3.868.868,0,0,0,.3-.74.47.47,0,0,0-.242-.4c-.655-.342-2.563.84-2.776.968a.142.142,0,0,0,0,.142.114.114,0,0,0,.1.114A6.919,6.919,0,0,0,93.78,193.746Zm.869-1.224a.356.356,0,0,1,.185,0s.085,0,.085.157a.57.57,0,0,1-.185.513,2.848,2.848,0,0,1-2.107.1A5.7,5.7,0,0,1,94.649,192.522Z" transform="translate(39.062 75.832)" fill="#407bff"/>
    <path id="Tracé_2091" data-name="Tracé 2091" d="M92.294,193.94h0c.612-.327,1.794-1.623,1.666-2.278,0-.128-.114-.327-.441-.37a.74.74,0,0,0-.6.185c-.683.555-.826,2.264-.84,2.335a.171.171,0,0,0,.071.128Zm1.2-2.392h0c.185,0,.2.114.214.142a3.467,3.467,0,0,1-1.3,1.837,3.474,3.474,0,0,1,.7-1.851.527.527,0,0,1,.384-.128Z" transform="translate(39.025 75.425)" fill="#407bff"/>
    <path id="Tracé_2092" data-name="Tracé 2092" d="M123.054,190.09h0c.94-.242,2.577-.755,2.848-1.552a.769.769,0,0,0,0-.726.47.47,0,0,0-.37-.242c-.812,0-2.449,2.05-2.634,2.292a.147.147,0,0,0,.157.228Zm2.463-2.235h0a.171.171,0,0,1,.157.1.527.527,0,0,1,0,.484c-.185.441-1.039.911-2.307,1.267.755-.812,1.723-1.822,2.193-1.851Z" transform="translate(52.075 73.85)" fill="#407bff"/>
    <path id="Tracé_2093" data-name="Tracé 2093" d="M123.121,190.263a.128.128,0,0,0,.1,0c.513-.6,1.239-2.364.854-2.919-.085-.128-.271-.256-.641-.128a1.068,1.068,0,0,0-.6.541,4.143,4.143,0,0,0,.142,2.463.142.142,0,0,0,.114.085Zm.57-2.848a.157.157,0,0,1,.157,0c.228.342-.214,1.652-.683,2.364a3.317,3.317,0,0,1,0-1.979.783.783,0,0,1,.441-.413Z" transform="translate(52.008 73.678)" fill="#407bff"/>
    <path id="Tracé_2094" data-name="Tracé 2094" d="M89.631,70.39l-1.709,2.349c-.584.8-1.153,1.623-1.709,2.435-1.125,1.637-2.207,3.3-3.261,4.969s-2.022,3.36-2.947,5.069a47.556,47.556,0,0,0-2.392,5.14h0v.128a.4.4,0,0,1,0,.128v.612a11.391,11.391,0,0,0,.655,2.221A39.751,39.751,0,0,0,80.79,98.5c.982,1.694,2.05,3.389,3.161,5.069s2.278,3.389,3.417,5.026l-3.261,3.018a70.776,70.776,0,0,1-8.9-9.326,39.467,39.467,0,0,1-3.745-5.7,19.577,19.577,0,0,1-1.424-3.6l-.142-.513-.1-.584a1.236,1.236,0,0,0-.1-.584v-.655a9.5,9.5,0,0,1,0-1.424,5.7,5.7,0,0,1,.142-.783l.1-.413a2.66,2.66,0,0,1,.085-.313,60.5,60.5,0,0,1,5.382-12.159q1.623-2.848,3.431-5.51c.6-.883,1.224-1.766,1.851-2.634s1.267-1.723,2.008-2.634Z" transform="translate(29.528 21.81)" fill="#ffc3bd"/>
    <path id="Tracé_2095" data-name="Tracé 2095" d="M82.523,62.608C76.97,63.618,71.83,77.059,71.83,77.059l11.391,9.653s3.915-6.82,7.119-13.4C93.743,66.1,89.258,61.383,82.523,62.608Z" transform="translate(30.443 20.807)" fill="#263238"/>
    <path id="Tracé_2096" data-name="Tracé 2096" d="M80.933,95.22l5.952-.74-2.321,7.2s-5.211-.484-5.254-3.275Z" transform="translate(33.613 34.397)" fill="#ffc3bd"/>
    <path id="Tracé_2097" data-name="Tracé 2097" d="M89.565,93.046,87.4,98.912,83.03,97.73l2.278-7.19Z" transform="translate(35.19 38.351)" fill="#ffc3bd"/>
    <path id="Tracé_2098" data-name="Tracé 2098" d="M81.886,62.605c.655,3.2,3.417,18.51.157,30.854h0a14.011,14.011,0,0,0,.157,2.207.285.285,0,0,0,.484.157c1.595-1.31,7.489-6.991,7.532-19.179,0-9.7-1.424-13.968-2.036-15.235a.626.626,0,0,0-.683-.356l-5.083.783a.612.612,0,0,0-.527.769Z" transform="translate(34.696 20.226)" fill="#0969c9"/>
  </g>
</svg>
