<svg xmlns="http://www.w3.org/2000/svg" width="134" height="134" viewBox="0 0 134 134">
  <g id="Groupe_1695" data-name="Groupe 1695" transform="translate(-1514 -911)">
    <rect id="Rectangle_238" data-name="Rectangle 238" width="134" height="134" transform="translate(1514 911)" fill="#fff"/>
    <g id="puzzle_1_" data-name="puzzle (1)" transform="translate(1520.166 916.727)">
      <path id="Tracé_2241" data-name="Tracé 2241" d="M8.75,47.17a1.779,1.779,0,0,0,2.462-.508,9.122,9.122,0,0,1,13.7-1.791,9.068,9.068,0,0,1,3.019,6.254A9.706,9.706,0,0,0,30.808,57.4a2.143,2.143,0,0,0,3.026,0L45.9,45.338a2.029,2.029,0,0,1,2.711-.14c.049.053.093.109.145.16L59.712,56.315a5.953,5.953,0,0,1-2.863.95,12.7,12.7,0,0,0-5.663,1.714,1.778,1.778,0,1,0,1.8,3.066,9.13,9.13,0,0,1,4.071-1.232,9.708,9.708,0,0,0,6.277-2.879,2.348,2.348,0,0,0-.476-3.533L51.279,42.824a1.99,1.99,0,0,1-.01-2.846L62.212,29.035a5.937,5.937,0,0,1,.9,2.783A12.6,12.6,0,0,0,67.3,40.51a12.753,12.753,0,0,0,17.047-.13,12.667,12.667,0,0,0-7.82-21.952,6.049,6.049,0,0,1-2.81-.9L84.663,6.584a2.026,2.026,0,0,1,2.866,0L99.85,18.905a1.778,1.778,0,0,0,2.514,0l.5-.5a9.76,9.76,0,0,0,2.879-6.3,9.114,9.114,0,1,1,9.634,9.656,9.706,9.706,0,0,0-6.277,2.879l-.5.5a1.778,1.778,0,0,0,0,2.514l12.321,12.321a2.029,2.029,0,0,1,0,2.866l-2.7,2.7a1.778,1.778,0,0,0,2.514,2.514l2.7-2.7a5.588,5.588,0,0,0,0-7.894l-11-11a6,6,0,0,1,3.15-1.145,12.6,12.6,0,0,0,8.692-4.193,12.753,12.753,0,0,0-.131-17.048A12.667,12.667,0,0,0,102.193,11.9a6.1,6.1,0,0,1-1.148,3.178l-11-11a5.588,5.588,0,0,0-7.894,0L70.019,16.2a2.049,2.049,0,0,0,0,2.9,9.76,9.76,0,0,0,6.3,2.879,9.115,9.115,0,1,1-9.656,9.634,9.706,9.706,0,0,0-2.879-6.276,2.051,2.051,0,0,0-2.9,0L48.755,37.464A5.555,5.555,0,0,0,47.133,41.2a5.556,5.556,0,0,0-3.748,1.623L32.428,53.781a5.954,5.954,0,0,1-.95-2.863,12.6,12.6,0,0,0-4.193-8.692A12.678,12.678,0,0,0,8.242,44.708a1.778,1.778,0,0,0,.508,2.462Z" transform="translate(-5.644)" fill="#0961aa"/>
      <path id="Tracé_2242" data-name="Tracé 2242" d="M109.727,220.551a6.059,6.059,0,0,1-2.889-.953l2.449-2.449a1.778,1.778,0,1,0-2.514-2.514l-3.814,3.814a1.842,1.842,0,0,0,.257,2.771,9.76,9.76,0,0,0,6.3,2.879,9.115,9.115,0,1,1-9.656,9.634,9.706,9.706,0,0,0-2.879-6.276,1.842,1.842,0,0,0-2.77-.256L81.886,239.522a2.029,2.029,0,0,1-2.712.14c-.049-.053-.093-.108-.144-.16l-12.06-12.06a2.188,2.188,0,0,0-3.042.016,9.76,9.76,0,0,0-2.879,6.3,9.11,9.11,0,1,1-17.936-2.742,1.778,1.778,0,0,0-3.455-.839,12.659,12.659,0,0,0,12.048,15.688l.255,0A12.666,12.666,0,0,0,64.6,233.97a6.058,6.058,0,0,1,.953-2.889l10.956,10.956c.055.056.112.109.17.162a2.028,2.028,0,0,1-.16,2.684L64.195,257.2a1.973,1.973,0,0,0,.5,3.013,9.76,9.76,0,0,0,6.3,2.879,9.115,9.115,0,1,1-9.656,9.634,9.7,9.7,0,0,0-2.879-6.276,1.978,1.978,0,0,0-3.012-.5L43.122,278.276a2.029,2.029,0,0,1-2.866,0L27.935,265.955a1.848,1.848,0,0,0-2.771.257,9.76,9.76,0,0,0-2.879,6.3,9.114,9.114,0,1,1-9.634-9.656,9.706,9.706,0,0,0,6.276-2.879,1.841,1.841,0,0,0,.256-2.77L6.862,244.882a2.029,2.029,0,0,1,0-2.866l12.065-12.065a2.14,2.14,0,0,0,0-3.027,9.76,9.76,0,0,0-6.3-2.879,9.114,9.114,0,0,1-8.293-6.918,1.778,1.778,0,1,0-3.453.845,12.67,12.67,0,0,0,11.531,9.622,6.058,6.058,0,0,1,2.889.953L4.348,239.5a5.589,5.589,0,0,0,0,7.894l10.957,10.957a5.952,5.952,0,0,1-2.863.95A12.6,12.6,0,0,0,3.752,263.5a12.752,12.752,0,0,0,.13,17.047,12.667,12.667,0,0,0,21.952-7.82,6.058,6.058,0,0,1,.953-2.889L37.742,280.79a5.589,5.589,0,0,0,7.894,0l11-11a6,6,0,0,1,1.145,3.15,12.669,12.669,0,1,0,13.42-13.39,6.1,6.1,0,0,1-3.178-1.148l11-11a5.554,5.554,0,0,0,1.622-3.73,5.542,5.542,0,0,0,3.748-1.63l10.957-10.957a5.952,5.952,0,0,1,.95,2.862,12.6,12.6,0,0,0,4.193,8.691,12.752,12.752,0,0,0,17.047-.13,12.668,12.668,0,0,0-7.82-21.952Z" transform="translate(0 -163.285)" fill="#0961aa"/>
    </g>
  </g>
</svg>
