<svg xmlns="http://www.w3.org/2000/svg" viewBox="0 0 180.06 122.29">
  <g id="Groupe_1789" data-name="Groupe 1789" transform="translate(-205.94 -2895.71)">
    <g id="Groupe_1441" data-name="Groupe 1441" transform="translate(253.332 2896)">
      <rect id="Rectangle_138" data-name="Rectangle 138" width="5" height="70" rx="2.5" transform="translate(-0.332)" fill="#64d88d"/>
      <rect id="Rectangle_139" data-name="Rectangle 139" width="5" height="30" rx="2.5" transform="translate(-0.332 80)" fill="#64d88d"/>
    </g>
    <path id="Tracé_2101" data-name="Tracé 2101" d="M3.57,37.32H15.26c.21-2.8,1.61-5.6,5.46-5.6,3.22,0,5.25,1.89,5.25,5.32,0,4.62-3.92,5.6-7.98,5.6H15.75v9.73h2.24c6.23,0,8.96,1.82,8.96,6.37,0,3.36-2.03,5.74-5.74,5.74-4.41,0-6.58-2.66-6.65-6.65H2.94c.35,11.55,8.05,16.59,18.69,16.59,10.71,0,16.87-6.16,16.87-14.77,0-6.72-3.5-10.64-8.61-12.32v-.28c3.5-1.19,7.7-4.76,7.7-11.48,0-7.7-5.81-13.86-16.59-13.86C10.57,21.71,3.99,27.24,3.57,37.32Z" transform="translate(203 2874)" fill="#64d88d"/>
    <g id="Groupe_1672" data-name="Groupe 1672" transform="translate(264.42 2896)">
      <rect id="Rectangle_230" data-name="Rectangle 230" width="122" height="122" transform="translate(-0.42)" fill="#fcfcfc"/>
      <g id="process" transform="translate(2.652 2.652)">
        <path id="Tracé_2223" data-name="Tracé 2223" d="M33.678,75.356A13.688,13.688,0,0,0,47.2,63.632H68.041l-2.526,2.526,2.763,2.763L74.14,63.06a1.953,1.953,0,0,0,0-2.763l-5.862-5.862L65.515,57.2l2.526,2.526H47.2A13.671,13.671,0,1,0,33.678,75.356Zm0-23.448a9.77,9.77,0,1,1-9.77,9.77A9.782,9.782,0,0,1,33.678,51.908Z" transform="translate(15.172 41.884)" fill="#64d88d"/>
        <path id="Tracé_2224" data-name="Tracé 2224" d="M61.678,75.356A13.678,13.678,0,1,0,48,61.678,13.694,13.694,0,0,0,61.678,75.356Zm0-23.448a9.77,9.77,0,1,1-9.77,9.77A9.782,9.782,0,0,1,61.678,51.908Z" transform="translate(41.884 41.884)" fill="#64d88d"/>
        <path id="Tracé_2225" data-name="Tracé 2225" d="M43.034,25A13.688,13.688,0,0,0,29.512,36.724H26.425a24.425,24.425,0,0,0,0,48.85H30.5L27.975,88.1l2.763,2.763L36.6,85a1.953,1.953,0,0,0,0-2.763l-5.862-5.862L27.975,79.14,30.5,81.666H26.425a20.517,20.517,0,0,1,0-41.034h3.087A13.671,13.671,0,1,0,43.034,25Zm0,23.448a9.77,9.77,0,1,1,9.77-9.77A9.782,9.782,0,0,1,43.034,48.448Z" transform="translate(-2 19.942)" fill="#64d88d"/>
        <path id="Tracé_2226" data-name="Tracé 2226" d="M50.278,8.434,47.515,11.2l2.526,2.526H29.2a13.678,13.678,0,1,0,0,3.908H50.041l-2.526,2.526,2.763,2.763L56.14,17.06a1.953,1.953,0,0,0,0-2.763Zm-34.6,17.014a9.77,9.77,0,1,1,9.77-9.77A9.782,9.782,0,0,1,15.678,25.448Z" transform="translate(-2 -2)" fill="#64d88d"/>
        <path id="Tracé_2227" data-name="Tracé 2227" d="M92.528,38.149A24.453,24.453,0,0,0,68.1,13.724H57.2a13.678,13.678,0,1,0,0,3.908H68.1a20.517,20.517,0,0,1,0,41.034H36.671L39.2,56.14l-2.763-2.763-5.862,5.862a1.953,1.953,0,0,0,0,2.763l5.862,5.862L39.2,65.1l-2.526-2.526H68.1A24.453,24.453,0,0,0,92.528,38.149Zm-48.85-12.7a9.77,9.77,0,1,1,9.77-9.77A9.782,9.782,0,0,1,43.678,25.448Z" transform="translate(24.712 -2)" fill="#64d88d"/>
      </g>
    </g>
  </g>
</svg>
