<svg xmlns="http://www.w3.org/2000/svg" width="79.94" height="53.294" viewBox="0 0 79.94 53.294">
  <path id="Tracé_2198" data-name="Tracé 2198" d="M75.841,85.333H4.1a4.111,4.111,0,0,0-4.1,4.1v45.095a4.112,4.112,0,0,0,4.1,4.1H75.841a4.112,4.112,0,0,0,4.1-4.1V89.432A4.112,4.112,0,0,0,75.841,85.333ZM74.3,88.407,42.328,112.39a4.286,4.286,0,0,1-4.717,0L5.638,88.407ZM57.223,113.972l17.423,21.523c.017.022.039.038.057.057H5.237c.018-.02.04-.036.057-.057l17.423-21.523a1.538,1.538,0,0,0-2.39-1.935L3.075,133.349V90.329l32.693,24.52a7.338,7.338,0,0,0,8.4,0l32.693-24.52v43.02L59.613,112.037a1.538,1.538,0,0,0-2.39,1.935Z" transform="translate(0 -85.333)" fill="#0961aa"/>
</svg>
