<svg xmlns="http://www.w3.org/2000/svg" width="122" height="36.287" viewBox="0 0 122 36.287">
  <g id="logo-colorful" transform="translate(0.5 -1120.3)">
    <path id="Tracé_1559" data-name="Tracé 1559" d="M152.9,1268.652a4.252,4.252,0,1,1-4.252-4.252,4.244,4.244,0,0,1,4.252,4.252" transform="translate(-133.858 -133.119)" fill="#132585"/>
    <path id="Tracé_1560" data-name="Tracé 1560" d="M225.8,1153.637a6.828,6.828,0,0,1,4.709,4.938L237.223,1147l-11.423,6.637" transform="translate(-209.055 -24.665)" fill="#132585"/>
    <rect id="Rectangle_97" data-name="Rectangle 97" width="3.597" height="24.545" transform="translate(39.407 1128.057)" fill="#132585"/>
    <path id="Tracé_1561" data-name="Tracé 1561" d="M630.147,1222.1a5.354,5.354,0,0,1,4.4,1.7,6.241,6.241,0,0,1,1.242,4.153v3.574a5.73,5.73,0,0,1-1.928,4.4l2.659,10.714h-3.871l-2.179-9.274c-.1,0-.206.023-.328.023H628.1v9.243h-3.6V1222.1Zm2.157,5.929c0-1.417-.686-2.126-2.05-2.126H628.1v7.856h2.149a1.831,1.831,0,0,0,1.44-.632,2.027,2.027,0,0,0,.579-1.494v-3.6l.031-.008Z" transform="translate(-577.374 -94.043)" fill="#132585"/>
    <path id="Tracé_1562" data-name="Tracé 1562" d="M832.969,1242.977a5.326,5.326,0,0,1-4.023-1.7,5.683,5.683,0,0,1-1.646-4.153v-13.45a5.727,5.727,0,0,1,1.669-4.153,5.418,5.418,0,0,1,4.023-1.722,5.347,5.347,0,0,1,4.023,1.722,5.813,5.813,0,0,1,1.646,4.153v2.789h-3.719v-2.835a2.145,2.145,0,0,0-.61-1.516,2.011,2.011,0,0,0-1.471-.633,1.909,1.909,0,0,0-1.44.633,2.069,2.069,0,0,0-.61,1.516v13.48a2.054,2.054,0,0,0,.61,1.494,1.971,1.971,0,0,0,1.44.61,2,2,0,0,0,1.471-.61,2.054,2.054,0,0,0,.61-1.494v-3.391h3.719v3.406a5.727,5.727,0,0,1-1.669,4.153A5.4,5.4,0,0,1,832.969,1242.977Z" transform="translate(-764.72 -90.07)" fill="#132585"/>
    <path id="Tracé_1563" data-name="Tracé 1563" d="M1030.866,1236.266v10.386H1027.3V1222.1h3.566v10.44h4.336V1222.1h3.566v24.552H1035.2v-10.386Z" transform="translate(-949.479 -94.043)" fill="#132585"/>
    <path id="Tracé_1564" data-name="Tracé 1564" d="M1234.7,1241l-.884,5.647H1230.1l4.024-24.545h4.938l3.978,24.545h-3.749l-.861-5.647Zm1.875-13.274-1.341,9.678h2.659Z" transform="translate(-1136.825 -94.043)" fill="#132585"/>
    <path id="Tracé_1565" data-name="Tracé 1565" d="M1463.57,1240.77a5.853,5.853,0,0,1-1.646,4.153,5.355,5.355,0,0,1-3.978,1.722H1452.3V1222.1h5.646a5.369,5.369,0,0,1,4,1.722,5.8,5.8,0,0,1,1.646,4.13v12.817Zm-7.7,2.2h2.149a1.831,1.831,0,0,0,1.44-.632,2.217,2.217,0,0,0,.579-1.494v-12.84a2.052,2.052,0,0,0-.61-1.494,1.994,1.994,0,0,0-1.44-.632h-2.149v17.1h.031Z" transform="translate(-1342.093 -94.043)" fill="#132585"/>
    <path id="Tracé_1566" data-name="Tracé 1566" d="M83.409,1416.458l-3.14-6.965c-.838-1.852-3.825-3.193-7.117-3.193s-6.279,1.341-7.117,3.17l-3.14,7a1.678,1.678,0,0,0,.206,1.951c1.09,1.669,3.848,2.377,6.912,2.377h6.279c3.04,0,5.822-.709,6.912-2.377a1.713,1.713,0,0,0,.206-1.958" transform="translate(-58.358 -264.206)" fill="#132585"/>
    <path id="Tracé_1567" data-name="Tracé 1567" d="M152.9,1268.652a4.252,4.252,0,1,1-4.252-4.252,4.244,4.244,0,0,1,4.252,4.252" transform="translate(-133.858 -133.119)" fill="#132585"/>
    <path id="Tracé_1568" data-name="Tracé 1568" d="M196.2,1317.339h0m0,0h0m-.03,0h0m0,0h0m-.023,0h0m-.023,0h0m0,0h0m-.03,0h0m0,0h0m-.023,0h0m-.023,0h0m0,0h0m-.03,0h0m0,0h0m-.023,0h0m-.046,0h0m0,0h0m-.031,0h0m-.023,0h0m4.58-4.252h0m0-.023h0m0,0h0m0-.031h0m0-.023h0m0,0h0m0-.023h0m0,0h0m0-.03h0m0-.023h0m0,0h0m0-.023h0m0,0h0m0-.03h0m0-.023h0m0,0h0m0-.053v0m0,0h0m0-.023h0m0,0h0m0-.023h0m0,0h0m0-.031h0m0-.023h0m0,0h0m0-.023h0m0,0h0m0-.031h0m-.023-.023h0m0,0h0m0-.023h0m0,0h0m0-.031h0m0-.023h0m0,0h0m0-.023h0m0,0h0m0-.03h0" transform="translate(-181.434 -177.554)" fill="#132585"/>
    <path id="Tracé_1569" data-name="Tracé 1569" d="M163.374,1277a4.241,4.241,0,0,1-5.974,5.974,4.349,4.349,0,0,0,2.964,1.547h.213a4.244,4.244,0,0,0,4.252-4.252h0v-.023h0v-.023h0v-.023h0v-.023h0v-.023h0a4.156,4.156,0,0,0-1.455-3.155" transform="translate(-145.868 -144.759)" fill="#132585"/>
    <path id="Tracé_1570" data-name="Tracé 1570" d="M73.845,1406.3c-2.53.023-6.332,1.341-7.14,3.17l-3.216,7a2.393,2.393,0,0,0-.251,1.166,2.077,2.077,0,0,0,.3.633c.023.053.076.1.1.152,1.09,1.669,3.848,2.377,6.889,2.377h3.315V1406.3" transform="translate(-58.876 -264.206)" fill="#132585"/>
    <path id="Tracé_1571" data-name="Tracé 1571" d="M237.04,1148.3l-11.24,6.538h.023a6.678,6.678,0,0,1,2.964,1.776l8.253-8.314" transform="translate(-209.055 -25.866)" fill="#132585"/>
    <path id="Tracé_1572" data-name="Tracé 1572" d="M14.794,1123.805a11.825,11.825,0,0,1,4.229.808l3.574-2.08a14.89,14.89,0,0,0-7.872-2.233,15.237,15.237,0,0,0-9.784,26.907l1.189-2.636a3.855,3.855,0,0,1,.4-.709,11.73,11.73,0,0,1,8.26-20.056Z" transform="translate(0)" fill="#132585"/>
    <path id="Tracé_1573" data-name="Tracé 1573" d="M311.659,1224.419a11.373,11.373,0,0,1,.709,3.955,11.678,11.678,0,0,1-3.467,8.336,5.886,5.886,0,0,1,.4.709l1.143,2.53a15.195,15.195,0,0,0,3.315-19.15Z" transform="translate(-285.823 -92.842)" fill="#132585"/>
  </g>
</svg>