<svg xmlns="http://www.w3.org/2000/svg" width="53.459" height="53.468" viewBox="0 0 53.459 53.468">
  <path id="Tracé_2212" data-name="Tracé 2212" d="M659.508,230.511a26.734,26.734,0,1,1-26.674,26.832A26.756,26.756,0,0,1,659.508,230.511Zm.076,2.541a24.193,24.193,0,1,0,24.169,24.163A24.218,24.218,0,0,0,659.584,233.052Z" transform="translate(-632.834 -230.511)" fill="#0961aa"/>
  <path id="Tracé_2213" data-name="Tracé 2213" d="M728.993,277.822c0-2.464,0-4.929,0-7.393A1.266,1.266,0,0,1,730.142,269a1.222,1.222,0,0,1,1.364,1.206c.031.765.016,1.532.016,2.3,0,3.831.008,7.662-.01,11.493a.686.686,0,0,0,.558.789c2.261.729,4.512,1.492,6.766,2.244.9.3,1.3.933,1.055,1.661a1.4,1.4,0,0,1-1.9.767q-4.031-1.337-8.055-2.692A1.232,1.232,0,0,1,729,285.4Q728.987,281.612,728.993,277.822Z" transform="translate(-703.525 -258.8)" fill="#0961aa"/>
</svg>
