<svg xmlns="http://www.w3.org/2000/svg" width="409.157" height="629.327" viewBox="0 0 409.157 629.327">
  <g id="Groupe_1399" data-name="Groupe 1399" transform="translate(1125 -313)">
    <g id="Groupe_1304" data-name="Groupe 1304" transform="translate(-977.386 403.701)">
      <path id="Rectangle_101" data-name="Rectangle 101" d="M22.353,0H201.39a22.354,22.354,0,0,1,22.354,22.354V264.068a22.353,22.353,0,0,1-22.353,22.353H22.353A22.353,22.353,0,0,1,0,264.068V22.353A22.353,22.353,0,0,1,22.353,0Z" transform="translate(223.744 286.421) rotate(180)" fill="#eaeaeb"/>
    </g>
    <g id="Groupe_1307" data-name="Groupe 1307" transform="translate(-837.905 427.481)">
      <g id="Groupe_1306" data-name="Groupe 1306" transform="translate(0 0)">
        <g id="Groupe_1305" data-name="Groupe 1305" transform="translate(0)">
          <rect id="Rectangle_102" data-name="Rectangle 102" width="57.547" height="6.56" transform="translate(57.547 6.56) rotate(180)" fill="#0961aa"/>
        </g>
      </g>
    </g>
    <g id="Groupe_1310" data-name="Groupe 1310" transform="translate(-822.609 441.897)">
      <g id="Groupe_1309" data-name="Groupe 1309" transform="translate(0 0)">
        <g id="Groupe_1308" data-name="Groupe 1308">
          <rect id="Rectangle_103" data-name="Rectangle 103" width="42.251" height="6.56" transform="translate(42.251 6.56) rotate(180)" fill="#fff"/>
        </g>
      </g>
    </g>
    <g id="Groupe_1313" data-name="Groupe 1313" transform="translate(-884.239 456.311)">
      <g id="Groupe_1312" data-name="Groupe 1312" transform="translate(0 0)">
        <g id="Groupe_1311" data-name="Groupe 1311">
          <rect id="Rectangle_104" data-name="Rectangle 104" width="103.881" height="6.56" transform="translate(103.881 6.56) rotate(180)" fill="#fff"/>
        </g>
      </g>
    </g>
    <g id="Groupe_1316" data-name="Groupe 1316" transform="translate(-950.996 497.769)">
      <g id="Groupe_1315" data-name="Groupe 1315" transform="translate(0 0)">
        <g id="Groupe_1314" data-name="Groupe 1314">
          <rect id="Rectangle_105" data-name="Rectangle 105" width="71.277" height="6.56" fill="#0961aa"/>
        </g>
      </g>
    </g>
    <g id="Groupe_1319" data-name="Groupe 1319" transform="translate(-950.996 512.184)">
      <g id="Groupe_1318" data-name="Groupe 1318" transform="translate(0 0)">
        <g id="Groupe_1317" data-name="Groupe 1317">
          <rect id="Rectangle_106" data-name="Rectangle 106" width="96.513" height="6.56" fill="#fff"/>
        </g>
      </g>
    </g>
    <g id="Groupe_1322" data-name="Groupe 1322" transform="translate(-950.996 526.599)">
      <g id="Groupe_1321" data-name="Groupe 1321" transform="translate(0 0)">
        <g id="Groupe_1320" data-name="Groupe 1320">
          <rect id="Rectangle_107" data-name="Rectangle 107" width="128.665" height="6.561" fill="#fff"/>
        </g>
      </g>
    </g>
    <g id="Groupe_1325" data-name="Groupe 1325" transform="translate(-950.996 568.087)">
      <g id="Groupe_1324" data-name="Groupe 1324" transform="translate(0)">
        <g id="Groupe_1323" data-name="Groupe 1323">
          <rect id="Rectangle_108" data-name="Rectangle 108" width="78.491" height="6.56" fill="#0961aa"/>
        </g>
      </g>
    </g>
    <g id="Groupe_1328" data-name="Groupe 1328" transform="translate(-950.996 582.502)">
      <g id="Groupe_1327" data-name="Groupe 1327" transform="translate(0)">
        <g id="Groupe_1326" data-name="Groupe 1326">
          <rect id="Rectangle_109" data-name="Rectangle 109" width="108.596" height="6.561" fill="#fff"/>
        </g>
      </g>
    </g>
    <g id="Groupe_1331" data-name="Groupe 1331" transform="translate(-950.996 596.917)">
      <g id="Groupe_1330" data-name="Groupe 1330" transform="translate(0)">
        <g id="Groupe_1329" data-name="Groupe 1329">
          <rect id="Rectangle_110" data-name="Rectangle 110" width="104.295" height="6.56" fill="#fff"/>
        </g>
      </g>
    </g>
    <g id="Groupe_1333" data-name="Groupe 1333" transform="translate(-845.799 917.603)">
      <path id="Tracé_1574" data-name="Tracé 1574" d="M1567.687,2929.98s-4.856,7.266-11.668,8.834-13.521,4.066-13.572,8.364,19.693,6.863,27.489,2.529c11.633-6.467,12.816-4.518,14.105-7.75s-1.549-11.878-1.465-12.906C1582.68,2927.781,1567.687,2929.98,1567.687,2929.98Z" transform="translate(-1542.447 -2928.656)" fill="#353a3d"/>
    </g>
    <g id="Groupe_1334" data-name="Groupe 1334" transform="translate(-820.572 913.233)">
      <path id="Tracé_1575" data-name="Tracé 1575" d="M1575.213,2925.223a31.036,31.036,0,0,0-.754,3.583c.131.074,15.35,1.887,14.889-.929-.373-2.283-.906-4.765-.906-4.765Z" transform="translate(-1574.445 -2923.112)" fill="#81807e"/>
    </g>
    <g id="Groupe_1335" data-name="Groupe 1335" transform="translate(-790.012 916.644)">
      <path id="Tracé_1576" data-name="Tracé 1576" d="M1633.876,2929.241s-3.464,6.949-9.382,9.316c-6.326,2.53-11.4,5.439-11.284,9.626s15.465,8.434,26.631.4c7.055-5.078,9.291-5.1,10.423-8.3s-1.965-11.508-1.923-12.513C1648.394,2926.522,1633.876,2929.241,1633.876,2929.241Z" transform="translate(-1613.209 -2927.439)" fill="#353a3d"/>
    </g>
    <g id="Groupe_1336" data-name="Groupe 1336" transform="translate(-769.517 912.136)">
      <path id="Tracé_1577" data-name="Tracé 1577" d="M1639.2,2924.422a33.911,33.911,0,0,0,.173,3.609c.131.066,14.84,1.279,14.466-1.478a22.661,22.661,0,0,0-1.427-4.832Z" transform="translate(-1639.205 -2921.721)" fill="#81807e"/>
    </g>
    <g id="Groupe_1337" data-name="Groupe 1337" transform="translate(-844.112 686.393)">
      <path id="Tracé_1578" data-name="Tracé 1578" d="M1565.253,2651.531s-13.665,60.274-16.786,78.634c-2.656,15.627-4.774,31.9-3.5,43.179,1.576,13.967,21.345,86.347,20.519,90.443s20.689.655,20.689.655-15.037-80.739-12.033-95.766c2.225-11.129,21.716-85.063,24.7-81.271s6.691,69.775,8.9,80.731,9,97.5,9,97.5,15.184,2.241,19.24-1.192c0,0,1.846-73.9.437-94.435-.537-7.826,9.17-93.836-3.277-128.462C1626.573,2623.245,1565.253,2651.531,1565.253,2651.531Z" transform="translate(-1544.587 -2635.382)" fill="#2d3133"/>
    </g>
    <g id="Groupe_1338" data-name="Groupe 1338" transform="translate(-884.966 562.465)">
      <path id="Tracé_1579" data-name="Tracé 1579" d="M1494.809,2563.472c9.738-1.368,40.379,12.206,43.163,11.181,1.915-.7,6.408-15.344,9.617-26.426,1.9-6.555,3.348-11.865,3.549-12.3l.011-.023a65.512,65.512,0,0,0,.1,11.887c.04.427.088.86.137,1.3.014.115.029.227.043.344a57.759,57.759,0,0,0,1.38,7.417,67.646,67.646,0,0,1,1.6,13.911v.023c0,.04,0,.076.007.12,0,.12.009.239.009.36,0,.048,0,.1,0,.147.272,9.49-.383,19.721-.655,25.165-.429,8.436,2.346,12.233,2.426,12.342l0,0,2.935-.412,2.122-.3.026,0,2.833-.4,11.112-1.564,4.025-.565.951-.135,7.04-.99,19.85-2.793,2.177-.305.9-.125,7.486-1.056,3.383-.473.012,0s2.874-20.379,3.094-31.394c.2-10.118,5.615-30.661,6.5-33.945a.556.556,0,0,1,.019-.069c.006-.031.014-.061.023-.091.016-.057.028-.1.041-.144a.655.655,0,0,1,.019-.071.046.046,0,0,1,0-.02.047.047,0,0,0,.005-.021.136.136,0,0,0,.007-.035s16.2,17.021,19.345,24.447c.958,2.253,3.889,8.382,7.62,15.844,2.552-4.87,4.15-8.255,4.15-9.1,0-.1,0-.215-.005-.331-.239-7.344-7.935-37.118-14.007-56.571-4.716-9.478-8.783-17.144-10.087-18.079-1.977-1.42-10.292-4.98-17.55-7.861l-.708-.28c-.677-.267-1.345-.528-1.993-.781l-.958-.369-.514-.194c-.14-.053-.276-.106-.415-.157h0a55.814,55.814,0,0,0-6.954-2.377c-.094-.008-.247,0-.453,0-.239,0-.548.02-.918.043-4.486.262-17.875,1.517-22.183,1.926-.783.075-1.269.122-1.342.128h-.01s-2.052.936-5.141,2.349l0,0-.286.13c-1.868.857-4.028,2-6.313,3.248-4.479,2.455-9.427,5.324-13.529,7.277-4.024,1.913-9.533,4.581-10,4.955l-20.384,58.782-35.364-6.464Z" transform="translate(-1492.766 -2478.188)" fill="#decbc4"/>
    </g>
    <g id="Groupe_1339" data-name="Groupe 1339" transform="translate(-823.445 684.071)">
      <path id="Tracé_1580" data-name="Tracé 1580" d="M1572.726,2641.557s-1.493,1.786-1.925,9.351c0,0,61.406-7.164,67.9-9.987,0,0,.254-8.336-1.123-8.481C1636.063,2632.281,1572.726,2641.557,1572.726,2641.557Z" transform="translate(-1570.801 -2632.438)" fill="#495055"/>
    </g>
    <g id="Groupe_1340" data-name="Groupe 1340" transform="translate(-794.232 538.393)">
      <path id="Tracé_1581" data-name="Tracé 1581" d="M1632.934,2469.647c-.191,9.637-18.851,14.909-18.851,14.909s-7.805-9.784-5.941-10.722c.733-.369,1.03-1.83,1.121-3.467a34.055,34.055,0,0,0-.106-4.371c-.056-.682-.108-1.12-.108-1.12s2.665-2.812,6.057-6.163c5.927-5.861,14.075-13.367,14.089-10.381a2.7,2.7,0,0,1-.069.566C1627.694,2455.619,1632.934,2469.647,1632.934,2469.647Z" transform="translate(-1607.855 -2447.655)" fill="#eea886"/>
    </g>
    <g id="Groupe_1341" data-name="Groupe 1341" transform="translate(-770.701 685.198)">
      <path id="Tracé_1582" data-name="Tracé 1582" d="M1637.7,2634.219s1.34,8.453,1.456,10.656l2.84-.568s-.782-8.941-1.242-10.44Z" transform="translate(-1637.703 -2633.867)" fill="#353a3d"/>
    </g>
    <g id="Groupe_1342" data-name="Groupe 1342" transform="translate(-817.499 691.802)">
      <path id="Tracé_1583" data-name="Tracé 1583" d="M1579.445,2642.645s-1.076,7.682-1.1,10.584l3.005-.391s.617-9.594.959-10.6Z" transform="translate(-1578.343 -2642.243)" fill="#353a3d"/>
    </g>
    <g id="Groupe_1343" data-name="Groupe 1343" transform="translate(-794.784 546.265)">
      <path id="Tracé_1584" data-name="Tracé 1584" d="M1625.6,2457.64h0c-.037.056-.829,1.241-2.179,2.94-2.864,3.6-8.25,9.522-14.3,11.9a33.963,33.963,0,0,0-.106-4.371,9.81,9.81,0,0,1-1.854-.223,57.415,57.415,0,0,1,4.057-5.942l3.746-1.119Z" transform="translate(-1607.156 -2457.64)" fill="#a77860"/>
    </g>
    <g id="Groupe_1344" data-name="Groupe 1344" transform="translate(-807.367 506.813)">
      <path id="Tracé_1585" data-name="Tracé 1585" d="M1625.8,2439.985c-1.614,3.511-3.147,6.055-3.582,7.065h0a12.461,12.461,0,0,1-2.179,2.94c-3.076,3.313-8.791,7.682-14.41,7.529a9.805,9.805,0,0,1-1.853-.223,8.816,8.816,0,0,1-6.422-4.437c-11.641-22.792-3.213-41.43-3.213-41.43s31.83-9,36.81.582C1634.448,2418.732,1629.6,2431.733,1625.8,2439.985Z" transform="translate(-1591.194 -2407.597)" fill="#eea886"/>
    </g>
    <g id="Groupe_1345" data-name="Groupe 1345" transform="translate(-808.306 490.983)">
      <path id="Tracé_1586" data-name="Tracé 1586" d="M1593.891,2407.182s-2.956-.164-3.687-5.768c-.722-5.538.738-7.072.738-7.072s13.141-5.5,17.86-6.216,16.321-1.4,19.042,1.707c0,0,6.608-1.536,8.409,9.436,2.856,17.4-9.733,34.3-9.733,34.3s.108-11.37-2.4-12.876-4.672,2.076-4.672,2.076l-5.13.918s7.791-16.821-1.554-17.445S1599.24,2408.157,1593.891,2407.182Z" transform="translate(-1590.003 -2387.518)" fill="#434343"/>
    </g>
    <g id="Groupe_1346" data-name="Groupe 1346" transform="translate(-778.885 516.906)">
      <path id="Tracé_1587" data-name="Tracé 1587" d="M1627.487,2425.2c.488-5.009,9.546-6.921,8.94-1.67s-5.067,10.294-7.129,10.117S1627.115,2429.016,1627.487,2425.2Z" transform="translate(-1627.322 -2420.4)" fill="#eea886"/>
    </g>
    <g id="Groupe_1347" data-name="Groupe 1347" transform="translate(-786.723 564.846)">
      <path id="Tracé_1588" data-name="Tracé 1588" d="M1688.259,2565.833c0-.1,0-.215,0-.331-.175-7.324-3.779-36.653-9.851-56.1-2.947-9.447-3.627-16.044-4.768-16.86-1.977-1.418-19.564-6.62-27.025-9.546l-.708-.279c-.677-.267-1.345-.528-1.994-.781l-.958-.37-.514-.194c-.14-.054-.277-.106-.415-.157a.553.553,0,0,1-.039.04,121.28,121.28,0,0,0-8.239,10.526c-7.706,10.961-17.742,28.7-16.206,45.09.492,5.259,1.1,12.811,2.126,21.286.087.725.181,1.452.273,2.192.249,1.951.521,3.941.816,5.959q.266,1.814.561,3.654c2.041,12.7,8.436,21.365,14.116,31.725.05.088.1.174.146.262.026.05.054.1.081.148.121.22.242.443.363.666.194.361.388.729.582,1.1.112.211.22.422.329.634,1.087,2.085,2.149,4.219,3.182,6.361q1,2.075,1.963,4.153c.066.144.132.287.2.43,0,0,1.046,2.429,2.386,5.549.492,1.146,1.024,2.384,1.559,3.629.367.855.737,1.714,1.091,2.548.315.728.618,1.439.907,2.111.643,1.5,1.207,2.819,1.6,3.74.292.687.488,1.153.552,1.311,1.953,4.889,3.364,8.661,4.015,10.427.26.709.4,1.093.4,1.093L1674.422,2635c3.729-1.868,1.78-11.922.379-15.845a89.806,89.806,0,0,0-4.654-10.383c-.757-1.479-1.548-2.979-2.357-4.489,6.148-10.74,12.374-21.816,16.319-29.344C1686.661,2570.066,1688.259,2566.68,1688.259,2565.833Zm-31.233-30.738a.448.448,0,0,1,.019-.069.889.889,0,0,1,.023-.09c.012-.05.027-.1.041-.145a.615.615,0,0,1,.019-.07.048.048,0,0,1,0-.02.047.047,0,0,0,.006-.021s9.556,14.936,8.835,27.91c-.111,2.02-2.119,7.124-5.043,13.667,0,0,0,.007,0,.012-1.063,2.383-2.249,4.956-3.509,7.643-.047-.111-.092-.225-.14-.336-1.827-4.46-3.016-8.646-3.016-12.3C1654.26,2571.275,1655.068,2542.807,1657.026,2535.095Z" transform="translate(-1617.38 -2481.209)" fill="#2c61a5"/>
    </g>
    <g id="Groupe_1348" data-name="Groupe 1348" transform="translate(-899.977 567.05)">
      <path id="Tracé_1589" data-name="Tracé 1589" d="M1477.726,2544.784l44.48,9.686,21.2-55.448c.469-.372,6.548-3.643,10.573-5.558,4.189-2,9.492-4.457,14.2-6.627,2.247-1.041,4.363-2.01,6.15-2.832l.147.116s-2.625,8.741-6.022,30.563l0,.007c-.116.734-.229,1.48-.346,2.242-.011.087-.026.178-.04.265-.076.505-.154,1.015-.23,1.535-.009.062-.019.122-.028.181-.052.349-.1.7-.154,1.054q-.192,1.292-.383,2.634c-1.516,10.623-3.642,28.7-5.684,46.948v.006c-1.615,14.384-5.293,29.144-6.462,40.158,0,.008,0,.014,0,.021a75.822,75.822,0,0,1-1.529,8.281c-.083.367-.17.74-.259,1.116-3.29,13.9-9.68,33.581-9.68,33.581l-1.86-1.718-5.512-5.088a4.465,4.465,0,0,1-1.238-4.609c3.056-9.86,13.443-44.752,15.346-69.286a.068.068,0,0,0,0-.023c.6-7.707-1.657-14.967-2.964-21.851-.023.059-.045.118-.066.179-1.094,3.041-2.306,6.349-3.527,9.568v0c-3.279,8.645-6.634,16.656-8.03,17.167-3.108,1.143-61.676-14.87-62.08-17.168Z" transform="translate(-1473.725 -2484.004)" fill="#2c61a5"/>
    </g>
    <g id="Groupe_1349" data-name="Groupe 1349" transform="translate(-786.723 564.844)">
      <path id="Tracé_1590" data-name="Tracé 1590" d="M1636.841,2505.125l-9.078,5.119,3.879,3.956-10.327,55.757c-2.106-13.069-3.064-25.48-3.777-33.092-2.375-25.332,22.91-53.908,24.483-55.659,1.214.461,2.527.97,3.882,1.505Z" transform="translate(-1617.38 -2481.206)" fill="#164e96"/>
    </g>
    <g id="Groupe_1350" data-name="Groupe 1350" transform="translate(-814.232 566.92)">
      <path id="Tracé_1591" data-name="Tracé 1591" d="M1597.631,2483.839s-3.392,11.077-7.345,38.727c-1.515,10.621-3.642,28.7-5.686,46.947l-2.113-52.219,4.325-4.685-3.844-4.805,8.226-21c2.247-1.039,4.362-2.01,6.151-2.832Z" transform="translate(-1582.487 -2483.839)" fill="#164e96"/>
    </g>
    <g id="Groupe_1351" data-name="Groupe 1351" transform="translate(-788.004 560.386)">
      <path id="Tracé_1592" data-name="Tracé 1592" d="M1642.133,2480.122l-7.527-4.571s-.21,4.127-18.85,14.909l5.293,14.91Z" transform="translate(-1615.756 -2475.551)" fill="#f5e2d9"/>
    </g>
    <g id="Groupe_1352" data-name="Groupe 1352" transform="translate(-799.088 562.465)">
      <path id="Tracé_1593" data-name="Tracé 1593" d="M1607.822,2478.188s.293,4.455,4.959,12.83l-10.332,13.467-.753-21.842Z" transform="translate(-1601.696 -2478.188)" fill="#f5e2d9"/>
    </g>
    <g id="Groupe_1353" data-name="Groupe 1353" transform="translate(-794.262 575.295)">
      <path id="Tracé_1594" data-name="Tracé 1594" d="M1614.1,2494.462s2,8.009,1.281,10.251c0,0-4.4,1.6-7.567-.4A35.188,35.188,0,0,1,1614.1,2494.462Z" transform="translate(-1607.818 -2494.462)" fill="#0d3a74"/>
    </g>
    <g id="Groupe_1355" data-name="Groupe 1355" transform="translate(-798.836 667.495)">
      <g id="Groupe_1354" data-name="Groupe 1354" transform="translate(0 0)">
        <path id="Tracé_1595" data-name="Tracé 1595" d="M1602.526,2634.711c-1.12-5.648-.054-22.581-.008-23.3l.959.062c-.011.175-1.1,17.525-.008,23.052Z" transform="translate(-1602.015 -2611.411)" fill="#ad9f99"/>
      </g>
    </g>
    <g id="Groupe_1356" data-name="Groupe 1356" transform="translate(-802.51 688.19)">
      <path id="Tracé_1596" data-name="Tracé 1596" d="M1609.379,2637.661s-9.035,1.079-12.023,1.825l.391,10.126,11.832-1.262Z" transform="translate(-1597.356 -2637.661)" fill="#69737a"/>
    </g>
    <g id="Groupe_1357" data-name="Groupe 1357" transform="translate(-801.079 583.303)">
      <path id="Tracé_1597" data-name="Tracé 1597" d="M1607.786,2505.742s-10.077,25.448-8.433,53.934c1.7,29.533,4.5,40.242,4.5,40.242l6.214,7.792,2.739-9.577s-8.338-37.653-2.955-74.292c.976-6.64,2.424-19.22,2.424-19.22Z" transform="translate(-1599.171 -2504.62)" fill="#0d3a74"/>
    </g>
    <g id="Groupe_1358" data-name="Groupe 1358" transform="translate(-771.823 704.573)">
      <path id="Tracé_1598" data-name="Tracé 1598" d="M1645.92,2658.478s-2.162,4.325-4.325,5.047-5.315,4.234-5.315,4.234l15.226,8.018s4.055-7.929,4.234-12.974S1645.92,2658.478,1645.92,2658.478Z" transform="translate(-1636.28 -2658.442)" fill="#eea886"/>
    </g>
    <g id="Groupe_1359" data-name="Groupe 1359" transform="translate(-764.637 705.014)">
      <path id="Tracé_1599" data-name="Tracé 1599" d="M1646.4,2659l-1.008,2.028s9.67,7.072,12.277,7.523l.9-2.7Z" transform="translate(-1645.395 -2659.001)" fill="#decbc4"/>
    </g>
    <g id="Groupe_1360" data-name="Groupe 1360" transform="translate(-764.637 656.342)">
      <path id="Tracé_1600" data-name="Tracé 1600" d="M1645.4,2646.025s7.247,5.993,13.353,8.755l20.539-36.943-10.643-20.573S1645.876,2642.421,1645.4,2646.025Z" transform="translate(-1645.395 -2597.265)" fill="#164e96"/>
    </g>
    <g id="Groupe_1361" data-name="Groupe 1361" transform="translate(-830.174 603.293)">
      <path id="Tracé_1601" data-name="Tracé 1601" d="M1566.452,2546.959c-.336,6.833-.286,12.9-.286,12.9v.005c0,.033-.009.218-.024.523-.014-.116-.029-.229-.043-.343-1.094,3.041-2.306,6.348-3.527,9.568a102.832,102.832,0,0,1-.275-10.428c.491-19.162,6.517-29.211,6.517-29.211C1567.432,2533.315,1566.77,2540.481,1566.452,2546.959Z" transform="translate(-1562.266 -2529.976)" fill="#2f4363"/>
    </g>
    <g id="Groupe_1362" data-name="Groupe 1362" transform="translate(-750.399 687.917)">
      <path id="Tracé_1602" data-name="Tracé 1602" d="M1679.9,2641.8l-16.443,19.858,14.085-24.346C1678.35,2638.824,1679.14,2640.324,1679.9,2641.8Z" transform="translate(-1663.455 -2637.315)" fill="#2f4363"/>
    </g>
    <g id="Groupe_1363" data-name="Groupe 1363" transform="translate(-913.455 588.151)">
      <path id="Tracé_1603" data-name="Tracé 1603" d="M1516.72,2590.125h-37.962a5.637,5.637,0,0,1-5.478-4.31l-16.489-68.083a5.637,5.637,0,0,1,5.478-6.964h37.963a5.637,5.637,0,0,1,5.478,4.31l16.489,68.083A5.637,5.637,0,0,1,1516.72,2590.125Z" transform="translate(-1456.63 -2510.769)" fill="#323657"/>
    </g>
    <g id="Groupe_1365" data-name="Groupe 1365" transform="translate(-906.384 624.369)">
      <g id="Groupe_1364" data-name="Groupe 1364">
        <path id="Tracé_1604" data-name="Tracé 1604" d="M1472.185,2580.92c1.858-1.719,5.441-2.718,8.51-4.768s.505-4.163.505-4.163c3.154-1.083,2.814-2.522,2.41-3.5-.546-1.324-3.989-.949-3.989-.949a33.9,33.9,0,0,0,4.358-1.244c1.269-.561.839-2.776-1.115-3.476s-9.915,1.264-9.915,1.264,1.3-.637,5.224-2.607,4.789-3.763,2.473-4.623c-1.609-.6-4.771.656-10.842,4.734-4.57,3.071-4.2,3.47-4.2,3.47S1469.967,2582.974,1472.185,2580.92Z" transform="translate(-1465.599 -2556.709)" fill="#eea886"/>
      </g>
    </g>
    <g id="Groupe_1368" data-name="Groupe 1368" transform="translate(-1027.383 354.283)">
      <g id="Groupe_1367" data-name="Groupe 1367" transform="translate(0 0)">
        <path id="Tracé_1605" data-name="Tracé 1605" d="M1400.75,2220.1a62.068,62.068,0,1,0-53.092,112.21c1.261.6,2.536,1.15,3.817,1.656A62.07,62.07,0,0,0,1400.75,2220.1Zm15.518,76.007a46.48,46.48,0,0,1-59.1,23.4q-1.442-.569-2.864-1.241a46.535,46.535,0,1,1,61.968-22.161Z" transform="translate(-1312.12 -2214.124)" fill="#0961aa"/>
      </g>
    </g>
    <g id="Groupe_1370" data-name="Groupe 1370" transform="translate(-1027.383 373.797)">
      <g id="Groupe_1369" data-name="Groupe 1369" transform="translate(0)">
        <path id="Tracé_1606" data-name="Tracé 1606" d="M1332.985,2303.049l-13.76,7.212a62.154,62.154,0,0,1,9.786-71.385l11.307,10.653a46.605,46.605,0,0,0-7.333,53.52Z" transform="translate(-1312.12 -2238.876)" fill="#0d3a74"/>
      </g>
    </g>
    <g id="Groupe_1372" data-name="Groupe 1372" transform="translate(-1020.278 437.97)">
      <g id="Groupe_1371" data-name="Groupe 1371" transform="translate(0 0)">
        <path id="Tracé_1607" data-name="Tracé 1607" d="M1359.071,2341.975l-5.689,14.458c-1.28-.506-2.556-1.059-3.816-1.656a61.8,61.8,0,0,1-28.434-27.289l13.76-7.212a46.328,46.328,0,0,0,21.315,20.459Q1357.628,2341.407,1359.071,2341.975Z" transform="translate(-1321.132 -2320.275)" fill="#0961aa"/>
      </g>
    </g>
    <g id="Groupe_1374" data-name="Groupe 1374" transform="translate(-988.028 459.67)">
      <g id="Groupe_1373" data-name="Groupe 1373" transform="translate(0 0)">
        <path id="Tracé_1608" data-name="Tracé 1608" d="M1379.768,2366.378a61.726,61.726,0,0,1-17.729-4.12l5.689-14.457a46.262,46.262,0,0,0,13.291,3.094Z" transform="translate(-1362.039 -2347.8)" fill="#0961aa"/>
      </g>
    </g>
    <g id="Groupe_1376" data-name="Groupe 1376" transform="translate(-1100.271 467.754)">
      <path id="Tracé_1609" data-name="Tracé 1609" d="M1335.569,2409.459h-115.9v-2.3h113.6v-49.1h2.3Z" transform="translate(-1219.668 -2358.055)" fill="#0961aa"/>
    </g>
    <g id="Groupe_1377" data-name="Groupe 1377" transform="translate(-1100.271 492.879)">
      <rect id="Rectangle_111" data-name="Rectangle 111" width="61.008" height="13.822" transform="translate(0)" fill="#e0e0e0"/>
    </g>
    <g id="Groupe_1379" data-name="Groupe 1379" transform="translate(-914.406 313)">
      <g id="Groupe_1378" data-name="Groupe 1378" transform="translate(0)">
        <path id="Tracé_1610" data-name="Tracé 1610" d="M1521.072,2184.191a33.807,33.807,0,1,0-63.665,22.769q.383,1.073.833,2.108a33.808,33.808,0,0,0,62.832-24.877Zm-23.3,35.251A25.316,25.316,0,0,1,1466,2205.69q-.336-.773-.624-1.58a25.347,25.347,0,1,1,32.4,15.332Z" transform="translate(-1455.423 -2161.76)" fill="#0961aa"/>
      </g>
    </g>
    <g id="Groupe_1381" data-name="Groupe 1381" transform="translate(-912.863 313.015)">
      <g id="Groupe_1380" data-name="Groupe 1380" transform="translate(0 0)">
        <path id="Tracé_1611" data-name="Tracé 1611" d="M1465.458,2188.026l-8.077-2.522a33.855,33.855,0,0,1,31.262-23.725l.252,8.459a25.386,25.386,0,0,0-23.438,17.788Z" transform="translate(-1457.381 -2161.779)" fill="#0d3a74"/>
      </g>
    </g>
    <g id="Groupe_1383" data-name="Groupe 1383" transform="translate(-914.406 336.74)">
      <g id="Groupe_1382" data-name="Groupe 1382" transform="translate(0 0)">
        <path id="Tracé_1612" data-name="Tracé 1612" d="M1466,2212.063l-7.758,3.378q-.449-1.034-.833-2.108a33.66,33.66,0,0,1-.441-21.461l8.077,2.522a25.235,25.235,0,0,0,.33,16.09Q1465.661,2211.289,1466,2212.063Z" transform="translate(-1455.423 -2191.872)" fill="#2273b5"/>
      </g>
    </g>
    <g id="Groupe_1385" data-name="Groupe 1385" transform="translate(-911.589 356.931)">
      <g id="Groupe_1384" data-name="Groupe 1384" transform="translate(0)">
        <path id="Tracé_1613" data-name="Tracé 1613" d="M1464.236,2229.276a33.638,33.638,0,0,1-5.24-8.415l7.759-3.378a25.207,25.207,0,0,0,3.928,6.311Z" transform="translate(-1458.996 -2217.483)" fill="#4dafff"/>
      </g>
    </g>
    <g id="Groupe_1388" data-name="Groupe 1388" transform="translate(-1102.613 492.879)">
      <path id="Tracé_1614" data-name="Tracé 1614" d="M1239.617,2390.03s-15.129-.508-19.957,11.892-1.184,21.911.194,26.427c3.595,11.8,3.891,16.079,2.15,23.2-1.544,6.31-2.962,9.569-4.742,15.469s1.187,5.243,1.446,5.674,59.246,5.878,59.246,5.878-1.577-12.777-5.73-15.744-8.259-3.567-5.1-16.212,5.164-18.514,3.393-27.683c-2.053-10.626-3.344-17.267-13.335-24.232A26.855,26.855,0,0,0,1239.617,2390.03Z" transform="translate(-1216.696 -2389.923)" fill="#3b3b40"/>
    </g>
    <path id="Tracé_1615" data-name="Tracé 1615" d="M1220.253,2919.023s8.321,12.356,11.674,15.337c0,0,7.451,2.733,8.2,7.949s.62,8.7-8.2,8.944-14.6-1.335-16.212-6.676a24.326,24.326,0,0,0-5.148-8.975v11.177h-1.987s-.5-10.8-.621-12.792-1.427-9.625,2.764-13.01S1220.253,2919.023,1220.253,2919.023Z" transform="translate(-2317.399 -2008.951)" fill="#123972"/>
    <path id="Tracé_1616" data-name="Tracé 1616" d="M1272.484,2905.825a35.61,35.61,0,0,0,4.159,6.954c2,2.6,8.2,13.288,10.929,14.033s11.178,2.235,11.923,6.956,1.117,8.071-7.2,8.444-13.783.868-17.758-4.968a43.249,43.249,0,0,0-10.308-10.059v15.229H1261s-1.49-15.85-2.359-16.968-3.1-13.288,4.6-19.622S1272.484,2905.825,1272.484,2905.825Z" transform="translate(-2327.978 -2005.625)" fill="#123972"/>
    <path id="Tracé_1617" data-name="Tracé 1617" d="M1211.688,2615.4s-9.35,13.9-12.2,30.109.527,70.359.4,78.369-7.575,27.942-6.085,43.031,13.941,88.948,13.941,88.948l9.53-1.955s-.931-76.562,0-82.9,2.8-29.419,3.174-32.027,23.65-71.089,23.65-82.773S1237.023,2596.333,1211.688,2615.4Z" transform="translate(-2314.424 -1943.826)" fill="#eea886"/>
    <path id="Tracé_1618" data-name="Tracé 1618" d="M1273.793,2622.435s17.261,65.882,19.311,75.01,5.017,16.655,5.017,20.531c0,8.993-3.341,23.431-3.341,23.431l-26.526,104.318-11,1.729s6.363-64.1,6.676-76.4c.313-12.326,9.8-29.829,7.938-35.046s-29.99-65.385-29.99-65.385S1220.578,2603.31,1273.793,2622.435Z" transform="translate(-2323.747 -1945.525)" fill="#eea886"/>
    <path id="Tracé_1619" data-name="Tracé 1619" d="M1232.746,2934.44s-8.52,4.764-14.007-1.353a43.222,43.222,0,0,1-7.2-12.03l9.53-1.954Z" transform="translate(-2318.218 -2009.031)" fill="#eea886"/>
    <path id="Tracé_1620" data-name="Tracé 1620" d="M1288.6,2927.119s-7.45,1.862-10.307,0-12.567-18.276-15.782-19.258c0,0,3.115-6.325,11-1.729C1273.512,2906.131,1286.488,2924.387,1288.6,2927.119Z" transform="translate(-2329.004 -2005.931)" fill="#eea886"/>
    <path id="Tracé_1621" data-name="Tracé 1621" d="M1287.674,2717.57s-39.927,17.142-99.374,17.142c0,0,6.261-90.076,14.9-109.474s61.517,1.958,61.517,1.958S1287.674,2701.318,1287.674,2717.57Z" transform="translate(-2313.3 -1945.119)" fill="#0961aa"/>
    <g id="Groupe_1389" data-name="Groupe 1389" transform="translate(-1064.807 565.161)">
      <path id="Tracé_1622" data-name="Tracé 1622" d="M1348.742,2558.4s-36.416,3.134-45.426-.879c-4.511-2.006-10.622-10.329-16.267-19.457-.957-1.552-1.9-3.129-2.825-4.7-6.9-11.761-12.478-23.314-12.478-23.314s-16.658-20.957,1.073-28.445a21.523,21.523,0,0,1,11.161,8.535c4.28,6.618,7.626,16.552,8.471,19.827s15.1,32.07,16,32.881,9.854.27,16.761.922c11.268,1.063,23.154,1.684,23.154,1.684Z" transform="translate(-1264.651 -2481.608)" fill="#0961aa"/>
    </g>
    <g id="Groupe_1390" data-name="Groupe 1390" transform="translate(-1117.754 559.476)">
      <path id="Tracé_1623" data-name="Tracé 1623" d="M1271.477,2527.632c-4.48,10.369-.256,13.829-2.3,24.2s-2.781,39.914-2.4,45.675-51.069,11.683-62.977,1.184c0,0,3.969-22.411,11.259-36.345,1.386-2.645.723-13.073-.684-16.658-.434-1.1-2.157-5.336-4.345-10.7l-.006-.009c-2.277-5.57-5.051-12.351-7.392-18.062-2.771-6.766-4.934-12.038-4.934-12.038s-1.777-16.684,5.153-22.063c6.019-4.673,22.419-6.338,25.363-7.365s11.512-1.468,17.53-.573c0,0,9.218,4.353,12.42,5s15.62,16.772,17.8,22.662S1275.959,2517.258,1271.477,2527.632Z" transform="translate(-1197.491 -2474.397)" fill="#0961aa"/>
    </g>
    <g id="Groupe_1391" data-name="Groupe 1391" transform="translate(-1086.234 536.703)">
      <path id="Tracé_1624" data-name="Tracé 1624" d="M1258.6,2458.128s-1.839,16.912-1.455,22.417c0,0-7.7,9.362-18.6-11.442,0,0,2.711-8.339-.739-20.022S1258.6,2458.128,1258.6,2458.128Z" transform="translate(-1237.471 -2445.51)" fill="#eea886"/>
    </g>
    <path id="Tracé_1625" data-name="Tracé 1625" d="M1227.123,2477.025s6.59,19.463,24.682,18.032,8.577-16.435,8.577-16.435-4.51-2.585-5.779-2.829-17.954-.951-17.954-.951Z" transform="translate(-2321.516 -1915.015)" fill="#eea886"/>
    <rect id="Rectangle_112" data-name="Rectangle 112" width="49.978" height="71.398" rx="4.606" transform="translate(-1024.409 577.898)" fill="#434343"/>
    <rect id="Rectangle_113" data-name="Rectangle 113" width="43.183" height="61.69" transform="translate(-1021.011 582.753)" fill="#dbdff0"/>
    <path id="Tracé_1626" data-name="Tracé 1626" d="M1299.35,2568.384a5,5,0,0,0,2.707-.778c1.854-1.4,2.523-4.842,5.794-4.59s4.79,10.513,3.97,12.456-5.363,2.914-12.08,1.575S1299.35,2568.384,1299.35,2568.384Z" transform="translate(-2336.229 -1933.672)" fill="#eea886"/>
    <path id="Tracé_1627" data-name="Tracé 1627" d="M1309.1,2562.093a102.555,102.555,0,0,1,10.133-2.778c4.763-1.03,10.455-1.366,11.009-.541.617.92-4.64,1.715-9.308,3.04-4.3,1.22-3.273,1.669-3.273,1.669s-.285-.145,4.621-.6c5.276-.493,10.709-.483,11.245.573.26.511.077.86-1.823,1.34,1.142-.051,1.3.245,1.347.7.226,2.377-7.468,4.268-10.524,5.017,2.351-.561,4.125-.733,3.279.858-.968,1.822-11.948,4.025-15.82,5.176C1305.761,2577.8,1309.1,2562.093,1309.1,2562.093Z" transform="translate(-2338.599 -1932.679)" fill="#eea886"/>
    <g id="Groupe_1392" data-name="Groupe 1392" transform="translate(-980.217 591.207)">
      <path id="Tracé_1628" data-name="Tracé 1628" d="M1372.036,2515.044s7.1-1.652,9.389,1.769a13.324,13.324,0,0,1,1.8,9.865c-.57,2.037-2.413,7.281-4.815,6.2C1370.7,2529.424,1372.036,2515.044,1372.036,2515.044Z" transform="translate(-1371.948 -2514.646)" fill="#eea886"/>
    </g>
    <g id="Groupe_1393" data-name="Groupe 1393" transform="translate(-976.92 587.606)">
      <path id="Tracé_1629" data-name="Tracé 1629" d="M1379.952,2514.152s-1-4.8-2.916-3.98-.187,3.989-.187,3.989Z" transform="translate(-1376.13 -2510.078)" fill="#eea886"/>
    </g>
    <g id="Groupe_1394" data-name="Groupe 1394" transform="translate(-980.128 590.41)">
      <path id="Tracé_1630" data-name="Tracé 1630" d="M1372.06,2514.831s.114-2.743,5.083.079S1372.06,2514.831,1372.06,2514.831Z" transform="translate(-1372.06 -2513.635)" fill="#eea886"/>
    </g>
    <path id="Tracé_1631" data-name="Tracé 1631" d="M1289.478,2543.018s5.416-12.872,5.65-15.773c-.049,1.711-.436,12.135-2.824,20.477-.957-1.551-1.9-3.127-2.825-4.7Z" transform="translate(-2334.711 -1926.104)" fill="#123972"/>
    <path id="Tracé_1632" data-name="Tracé 1632" d="M1296.644,2527.179c0-.16.006-.242.006-.242C1296.652,2527.006,1296.65,2527.087,1296.644,2527.179Z" transform="translate(-2336.228 -1926.04)" fill="#d1c0ba"/>
    <path id="Tracé_1633" data-name="Tracé 1633" d="M1255.362,2559.178l-22.558-39.713s7.88,39.617,13.846,40.948S1255.362,2559.178,1255.362,2559.178Z" transform="translate(-2322.718 -1924.458)" fill="#123972"/>
    <g id="Groupe_1395" data-name="Groupe 1395" transform="translate(-1119.316 566.909)">
      <path id="Tracé_1634" data-name="Tracé 1634" d="M1203.381,2484.088s-10.82,5.387-7.09,19.328,7.442,17.95,11,23.164c3.366,4.923,10.232,18.179,11.073,19.667s9.114,23.126,16.7,25.586c7.629,2.473,45.2-9.5,46.047-8.189s-.048-13.181-.048-13.181-17.458,1.287-21.31,1.026c-6.257-.424-16.295,2.134-18.71-3.284-2.835-6.366-13-27.29-14.074-30.736S1213.418,2480.546,1203.381,2484.088Z" transform="translate(-1195.509 -2483.826)" fill="#0961aa"/>
    </g>
    <g id="Groupe_1396" data-name="Groupe 1396" transform="translate(-1093.173 498.125)">
      <path id="Tracé_1635" data-name="Tracé 1635" d="M1253.948,2399.376s16.69,10.895,11.266,37.231-25.13,11.856-27.27,10.363-8.756-17.975-9.014-25.165C1228.686,2415.033,1225.155,2387.891,1253.948,2399.376Z" transform="translate(-1228.67 -2396.577)" fill="#eea987"/>
    </g>
    <g id="Groupe_1397" data-name="Groupe 1397" transform="translate(-1094.658 495.673)">
      <path id="Tracé_1636" data-name="Tracé 1636" d="M1252.4,2404c-1.742-.514-7.614,10.841-10.777,13.641s-8.976,9.834-9.547,17.54-7.071-16.838-4.821-25.945,5.252-22.463,25.591-11.871,15.079,29.53,15.079,29.53S1261.2,2406.6,1252.4,2404Z" transform="translate(-1226.786 -2393.467)" fill="#3b3b40"/>
    </g>
    <g id="Groupe_1398" data-name="Groupe 1398" transform="translate(-1090.452 520.773)">
      <path id="Tracé_1637" data-name="Tracé 1637" d="M1239.437,2428.92c-.537-3.116-7.416-5.753-7.314-1.07s3.9,10.087,6.045,9.747S1239.935,2431.8,1239.437,2428.92Z" transform="translate(-1232.122 -2425.305)" fill="#eea987"/>
    </g>
    <path id="Tracé_1638" data-name="Tracé 1638" d="M1242.469,2461.882c.123.232,4.093,7.863,16.242,9.787.27-2.978.649-6.625.649-6.625A19.536,19.536,0,0,1,1242.469,2461.882Z" transform="translate(-2324.763 -1912.273)" fill="#a87860"/>
  </g>
</svg>
