<svg id="agir" xmlns="http://www.w3.org/2000/svg" width="298.843" height="282.934" viewBox="0 0 298.843 282.934">
  <g id="Floor" transform="translate(0 110.394)">
    <ellipse id="Floor-2" data-name="Floor" cx="149.422" cy="86.27" rx="149.422" ry="86.27" fill="#f5f5f5"/>
  </g>
  <g id="Shadows" transform="translate(18.789 125.419)">
    <ellipse id="Shadow" cx="32.474" cy="18.751" rx="32.474" ry="18.751" transform="translate(96.985)" fill="#e0e0e0"/>
    <path id="Shadow-2" data-name="Shadow" d="M328.043,406.253c-15.127-9.2-15.127-24.105,0-33.3s39.656-9.2,54.784,0,15.134,24.105,0,33.3S343.183,415.455,328.043,406.253Z" transform="translate(-147.456 -281.591)" fill="#e0e0e0"/>
    <ellipse id="Shadow-3" data-name="Shadow" cx="35.353" cy="20.412" rx="35.353" ry="20.412" transform="translate(0 70.68)" fill="#e0e0e0"/>
  </g>
  <g id="Papel_planes" data-name="Papel planes" transform="translate(68.796 52.306)">
    <g id="Paper_planes" data-name="Paper planes">
      <path id="Tracé_1890" data-name="Tracé 1890" d="M331.8,109.777,321.491,99.1l-5.771.442Z" transform="translate(-182.056 -87.857)" fill="#0969c9"/>
      <path id="Tracé_1891" data-name="Tracé 1891" d="M336.083,108.249,327.65,96.988l2.982-2.148Z" transform="translate(-186.335 -86.329)" fill="#0969c9"/>
      <path id="Tracé_1892" data-name="Tracé 1892" d="M327.381,98.19l-.481,2.033,8.914,9.228Z" transform="translate(-186.066 -87.53)" fill="#0969c9"/>
      <path id="Tracé_1893" data-name="Tracé 1893" d="M327.381,98.19l-.481,2.033,8.914,9.228Z" transform="translate(-186.066 -87.53)" opacity="0.3"/>
      <path id="Tracé_1894" data-name="Tracé 1894" d="M111.55,136.167l12.364-11.427,6.5.872Z" transform="translate(-108.813 -97.055)" fill="#0969c9"/>
      <path id="Tracé_1895" data-name="Tracé 1895" d="M111.55,134.266l10.267-12.21-3.232-2.616Z" transform="translate(-108.813 -95.153)" fill="#0969c9"/>
      <path id="Tracé_1896" data-name="Tracé 1896" d="M121.817,123.52l.417,2.334L111.55,135.73Z" transform="translate(-108.813 -96.617)" fill="#0969c9"/>
      <path id="Tracé_1897" data-name="Tracé 1897" d="M121.817,123.52l.417,2.334L111.55,135.73Z" transform="translate(-108.813 -96.617)" opacity="0.3"/>
      <path id="Tracé_1898" data-name="Tracé 1898" d="M293.99,199.656l13.184-8.445,5.8,1.866Z" transform="translate(-174.26 -120.9)" fill="#0969c9"/>
      <path id="Tracé_1899" data-name="Tracé 1899" d="M293.99,197.428l11.4-9.5L302.852,185Z" transform="translate(-174.26 -118.672)" fill="#0969c9"/>
      <path id="Tracé_1900" data-name="Tracé 1900" d="M305.385,189.56v2.206l-11.4,7.3Z" transform="translate(-174.26 -120.308)" fill="#0969c9"/>
      <path id="Tracé_1901" data-name="Tracé 1901" d="M305.385,189.56v2.206l-11.4,7.3Z" transform="translate(-174.26 -120.308)" opacity="0.3"/>
      <path id="Tracé_1902" data-name="Tracé 1902" d="M150.036,252.485l-15.32-9.8-6.746,2.161Z" transform="translate(-114.703 -139.364)" fill="#0969c9"/>
      <path id="Tracé_1903" data-name="Tracé 1903" d="M154.972,249.895,141.73,238.859l2.943-3.4Z" transform="translate(-119.64 -136.774)" fill="#0969c9"/>
      <path id="Tracé_1904" data-name="Tracé 1904" d="M141.73,240.76v2.559l13.242,8.478Z" transform="translate(-119.64 -138.675)" fill="#0969c9"/>
      <path id="Tracé_1905" data-name="Tracé 1905" d="M141.73,240.76v2.559l13.242,8.478Z" transform="translate(-119.64 -138.675)" opacity="0.3"/>
      <path id="Tracé_1906" data-name="Tracé 1906" d="M131.229,238.259a.3.3,0,0,1-.289-.237l-.173-.879a.3.3,0,0,1,.584-.109c.058.289.109.577.173.866a.3.3,0,0,1-.231.353Z" transform="translate(-130.762 -162.107)" fill="#e0e0e0"/>
      <path id="Tracé_1907" data-name="Tracé 1907" d="M147.2,263.6a.321.321,0,0,1-.167-.051q-.763-.519-1.5-1.077a.295.295,0,0,1-.051-.417A.3.3,0,0,1,145.9,262c.475.365.968.725,1.468,1.058a.3.3,0,0,1-.167.545Zm-2.9-2.212a.308.308,0,0,1-.192-.07c-.462-.391-.923-.808-1.372-1.231a.3.3,0,1,1,.41-.436c.442.423.9.827,1.347,1.212a.3.3,0,0,1-.192.526Zm-2.655-2.507a.282.282,0,0,1-.212-.1c-.417-.43-.834-.891-1.244-1.359a.3.3,0,0,1,.032-.423.289.289,0,0,1,.417.032c.4.455.814.911,1.225,1.334a.3.3,0,0,1,0,.423.308.308,0,0,1-.218.09Zm-2.392-2.758a.3.3,0,0,1-.237-.115c-.372-.475-.744-.968-1.1-1.469a.289.289,0,0,1,.064-.41.3.3,0,0,1,.417.064c.353.494.718.981,1.09,1.449a.295.295,0,0,1-.051.417A.269.269,0,0,1,139.253,256.126Zm-2.135-2.969a.282.282,0,0,1-.244-.135c-.333-.507-.641-1.032-.968-1.565a.3.3,0,1,1,.513-.295c.308.519.641,1.032.949,1.539a.3.3,0,0,1-.083.41.308.308,0,0,1-.167.045Zm-1.847-3.142a.3.3,0,0,1-.263-.16c-.282-.545-.564-1.1-.821-1.648a.289.289,0,0,1,.141-.391.3.3,0,0,1,.4.141c.257.539.526,1.084.808,1.622a.3.3,0,0,1-.263.436Zm-1.552-3.309a.3.3,0,0,1-.276-.18c-.231-.558-.455-1.135-.641-1.719a.295.295,0,0,1,.18-.378.3.3,0,0,1,.378.18c.205.571.43,1.141.641,1.687a.3.3,0,0,1-.154.391A.365.365,0,0,1,133.718,246.706Zm-1.244-3.431a.3.3,0,0,1-.282-.212c-.18-.584-.353-1.18-.507-1.763a.308.308,0,0,1,.218-.366.3.3,0,0,1,.359.212c.147.584.314,1.167.494,1.744a.3.3,0,0,1-.192.372Z" transform="translate(-131.091 -163.59)" fill="#e0e0e0"/>
      <path id="Tracé_1908" data-name="Tracé 1908" d="M158.909,277.912a.275.275,0,0,1-.141-.038c-.263-.141-.526-.289-.782-.442a.289.289,0,0,1-.109-.4.295.295,0,0,1,.4-.109c.257.154.513.3.77.43a.3.3,0,0,1-.141.564Z" transform="translate(-140.474 -176.487)" fill="#e0e0e0"/>
      <path id="Tracé_1909" data-name="Tracé 1909" d="M199.435,144.4a.295.295,0,0,1,0-.59c.3,0,.6-.045.9-.058a.3.3,0,0,1,.308.282.289.289,0,0,1-.276.308l-.885.058Z" transform="translate(-155.291 -128.73)" fill="#e0e0e0"/>
      <path id="Tracé_1910" data-name="Tracé 1910" d="M159.163,153.529a.3.3,0,0,1-.173-.539c.475-.333.955-.641,1.443-.975a.3.3,0,0,1,.41.083.3.3,0,0,1-.09.41c-.481.314-.955.641-1.424.968A.321.321,0,0,1,159.163,153.529Zm2.9-1.885a.295.295,0,0,1-.154-.551c.5-.3,1-.59,1.507-.872a.3.3,0,0,1,.4.115.289.289,0,0,1-.115.4c-.5.282-1,.564-1.488.859A.282.282,0,0,1,162.062,151.643Zm3.027-1.674a.289.289,0,0,1-.263-.167.3.3,0,0,1,.128-.4c.519-.263,1.039-.513,1.571-.757a.3.3,0,0,1,.391.141.3.3,0,0,1-.141.4c-.519.237-1.039.487-1.552.75A.321.321,0,0,1,165.089,149.97Zm3.142-1.456a.308.308,0,0,1-.276-.186.3.3,0,0,1,.16-.385q.8-.346,1.616-.641a.3.3,0,0,1,.378.173.282.282,0,0,1-.167.378c-.539.212-1.071.423-1.6.641A.372.372,0,0,1,168.231,148.514Zm3.206-1.244a.3.3,0,0,1-.282-.2.295.295,0,0,1,.186-.378q.814-.289,1.654-.539a.295.295,0,0,1,.372.192.3.3,0,0,1-.2.372c-.551.173-1.1.346-1.635.539Zm3.3-1.02a.3.3,0,0,1-.077-.584c.558-.154,1.122-.295,1.687-.43a.3.3,0,0,1,.359.218.295.295,0,0,1-.218.359c-.558.135-1.116.276-1.667.423Zm3.367-.8a.3.3,0,0,1-.289-.237.3.3,0,0,1,.231-.346c.571-.115,1.141-.224,1.712-.321a.3.3,0,0,1,.34.244.289.289,0,0,1-.237.34c-.571.1-1.135.205-1.693.314Zm3.418-.577a.3.3,0,0,1-.045-.59q.866-.115,1.731-.212a.3.3,0,0,1,.058.6c-.571.058-1.141.122-1.706.205Z" transform="translate(-140.844 -128.844)" fill="#e0e0e0"/>
      <path id="Tracé_1911" data-name="Tracé 1911" d="M155.834,160.634a.308.308,0,0,1-.231-.109.289.289,0,0,1,.051-.417l.705-.551a.3.3,0,0,1,.359.475l-.7.539A.3.3,0,0,1,155.834,160.634Z" transform="translate(-139.649 -134.378)" fill="#e0e0e0"/>
      <path id="Tracé_1912" data-name="Tracé 1912" d="M340.654,202.716a.3.3,0,0,1-.237-.122.3.3,0,0,1,.064-.417l.423-.314a.3.3,0,0,1,.359.475l-.43.321a.3.3,0,0,1-.18.058Zm1.84-1.4a.288.288,0,0,1-.231-.115.3.3,0,0,1,.045-.417c.462-.365.923-.737,1.372-1.122a.3.3,0,1,1,.385.455q-.68.577-1.385,1.135A.327.327,0,0,1,342.495,201.312Zm2.725-2.3a.308.308,0,0,1-.224-.1.3.3,0,0,1,0-.417c.436-.4.866-.8,1.283-1.206a.295.295,0,1,1,.41.423c-.43.417-.866.827-1.283,1.225a.3.3,0,0,1-.186.077Zm2.565-2.475a.289.289,0,0,1-.205-.083.3.3,0,0,1,0-.417c.41-.423.821-.859,1.218-1.283a.3.3,0,0,1,.436.4c-.4.442-.814.879-1.225,1.283a.314.314,0,0,1-.224.128Zm2.4-2.642a.263.263,0,0,1-.192-.071.295.295,0,0,1-.038-.417c.385-.449.757-.911,1.116-1.372a.3.3,0,1,1,.468.366c-.366.468-.744.936-1.129,1.392a.282.282,0,0,1-.224.1Zm2.187-2.809a.308.308,0,0,1-.173-.058.3.3,0,0,1-.064-.41q.519-.718,1-1.462a.308.308,0,0,1,.417-.083.3.3,0,0,1,.083.41q-.5.75-1.02,1.481A.3.3,0,0,1,352.37,191.084Zm1.962-2.975a.282.282,0,0,1-.154-.045.3.3,0,0,1-.1-.4c.3-.507.6-1.02.879-1.539a.3.3,0,1,1,.519.282q-.423.789-.885,1.558A.3.3,0,0,1,354.333,188.108Zm1.693-3.136a.3.3,0,0,1-.269-.423c.256-.532.507-1.077.731-1.616a.3.3,0,0,1,.391-.154.295.295,0,0,1,.16.391c-.237.545-.487,1.1-.744,1.635a.308.308,0,0,1-.269.167Zm1.392-3.277h-.1a.3.3,0,0,1-.173-.385c.205-.558.4-1.116.571-1.674a.3.3,0,1,1,.564.18c-.173.564-.372,1.135-.577,1.7a.3.3,0,0,1-.257.18Zm1.065-3.405H358.4a.308.308,0,0,1-.212-.365c.147-.571.276-1.148.391-1.719a.3.3,0,1,1,.583.115c-.115.584-.25,1.167-.4,1.751A.308.308,0,0,1,358.482,178.29Zm.7-3.488h-.039a.289.289,0,0,1-.25-.333c.083-.584.154-1.174.205-1.751a.314.314,0,0,1,.327-.269.3.3,0,0,1,.269.321c-.058.59-.128,1.193-.218,1.783a.3.3,0,0,1-.3.25Zm.333-3.546h0a.295.295,0,0,1-.282-.308v-1.763a.289.289,0,0,1,.289-.3h0a.3.3,0,0,1,.295.295v.391c0,.475,0,.943-.032,1.4a.289.289,0,0,1-.269.282Zm-.039-3.559a.3.3,0,0,1-.3-.276c-.032-.584-.083-1.18-.154-1.763a.308.308,0,0,1,.263-.327.295.295,0,0,1,.327.263c.071.59.122,1.193.16,1.789a.3.3,0,0,1-.276.314Zm-.4-3.54a.3.3,0,0,1-.295-.25c-.09-.571-.205-1.154-.327-1.738a.3.3,0,0,1,.231-.353.3.3,0,0,1,.353.231c.122.59.237,1.186.327,1.763a.3.3,0,0,1-.244.34Z" transform="translate(-205.951 -135.208)" fill="#e0e0e0"/>
      <path id="Tracé_1913" data-name="Tracé 1913" d="M329.837,127.922a.288.288,0,0,1-.16-.045c-.5-.314-1.007-.641-1.513-.911a.295.295,0,0,1-.115-.4.3.3,0,0,1,.41-.109c.513.295,1.026.6,1.533.923a.3.3,0,0,1,.1.41A.3.3,0,0,1,329.837,127.922Zm-3.091-1.77a.378.378,0,0,1-.141,0c-.519-.276-1.052-.539-1.584-.789a.3.3,0,0,1-.141-.391.308.308,0,0,1,.4-.147c.539.257,1.071.526,1.6.8a.295.295,0,0,1-.135.558Zm-3.206-1.52a.366.366,0,0,1-.115,0c-.545-.231-1.09-.455-1.642-.641a.3.3,0,1,1,.212-.558c.558.212,1.116.436,1.661.641a.295.295,0,0,1-.116.571Zm-3.328-1.283h-.1c-.558-.192-1.122-.366-1.687-.532a.295.295,0,0,1-.2-.372.289.289,0,0,1,.366-.2c.577.167,1.141.346,1.712.539a.3.3,0,0,1-.115.584Zm-3.418-1.007h-.071c-.571-.148-1.148-.282-1.725-.4a.3.3,0,0,1-.225-.359.3.3,0,0,1,.353-.224c.584.128,1.161.263,1.744.41a.308.308,0,0,1,.212.366.3.3,0,0,1-.308.231Zm-3.476-.763h-.058c-.577-.109-1.161-.2-1.744-.282a.3.3,0,0,1,.083-.59q.885.122,1.77.289a.289.289,0,0,1,.237.34.3.3,0,0,1-.308.263Zm-3.527-.5h-.032c-.59-.064-1.18-.115-1.763-.16a.295.295,0,0,1-.276-.314.282.282,0,0,1,.314-.276q.9.058,1.789.154a.3.3,0,0,1-.032.6Z" transform="translate(-194.242 -120.327)" fill="#e0e0e0"/>
    </g>
  </g>
  <g id="Speech_Bubbles" data-name="Speech Bubbles" transform="translate(11.357 0.556)">
    <g id="Speach_Bubble" data-name="Speach Bubble" transform="translate(187.654 11.467)">
      <path id="Tracé_1914" data-name="Tracé 1914" d="M384,138.464l5.04-2.911a.475.475,0,0,0,.237-.212l.923-1.616L387.206,132l.09.263Z" transform="translate(-351.821 -84.232)" fill="#0969c9"/>
      <g id="Groupe_1421" data-name="Groupe 1421" transform="translate(32.179 47.768)" opacity="0.1">
        <path id="Tracé_1915" data-name="Tracé 1915" d="M384,138.464l5.04-2.911a.475.475,0,0,0,.237-.212l.923-1.616L387.206,132l.09.263Z" transform="translate(-384 -132)"/>
      </g>
      <path id="Tracé_1916" data-name="Tracé 1916" d="M385.125,129.758l-3.488,6.041a.519.519,0,0,1-.943-.09L377,125.07Z" transform="translate(-349.31 -81.746)" fill="#0969c9"/>
      <path id="Tracé_1917" data-name="Tracé 1917" d="M333.82,62.314a5.393,5.393,0,0,1,2.43-4.22h0a5.393,5.393,0,0,1,4.874,0l39.451,22.752a5.393,5.393,0,0,1,2.437,4.22v19.982a5.387,5.387,0,0,1-2.437,4.22h0a5.393,5.393,0,0,1-4.874,0L336.026,86.349c-2.187-1.25-2.206-2.5-2.206-4.053Z" transform="translate(-333.82 -57.511)" fill="#0969c9"/>
      <path id="Tracé_1918" data-name="Tracé 1918" d="M373.492,101.474,345.315,85.122c-.814-.468-1.475-.25-1.475.481a2.95,2.95,0,0,0,1.475,2.187l28.177,16.346c.814.475,1.475.257,1.475-.475a2.95,2.95,0,0,0-1.475-2.187Z" transform="translate(-337.415 -67.326)" fill="#455a64"/>
      <path id="Tracé_1919" data-name="Tracé 1919" d="M364.957,105.422,345.315,94.039c-.814-.475-1.475-.257-1.475.475a2.95,2.95,0,0,0,1.475,2.187l19.642,11.383c.814.475,1.475.257,1.475-.475A2.95,2.95,0,0,0,364.957,105.422Z" transform="translate(-337.415 -70.524)" fill="#455a64"/>
      <path id="Tracé_1920" data-name="Tracé 1920" d="M373.492,92.485,345.315,76.139c-.814-.475-1.475-.256-1.475.481a2.962,2.962,0,0,0,1.475,2.187l28.177,16.346c.814.468,1.475.257,1.475-.481a2.963,2.963,0,0,0-1.475-2.187Z" transform="translate(-337.415 -64.103)" fill="#455a64"/>
      <path id="Tracé_1921" data-name="Tracé 1921" d="M406.656,119.11a5.386,5.386,0,0,1-2.437,4.22h0a5.419,5.419,0,0,1-4.489.205c1.148.436,2.02-.218,2.02-1.61V101.937a4.949,4.949,0,0,0-.712-2.4l4.874-2.809a5.021,5.021,0,0,1,.712,2.4Z" transform="translate(-357.464 -71.579)" opacity="0.1"/>
      <path id="Tracé_1922" data-name="Tracé 1922" d="M333.94,61.608c.282-1.032,1.225-1.359,2.353-.712l39.457,22.759a4.829,4.829,0,0,1,1.712,1.815l4.867-2.8a4.9,4.9,0,0,0-1.712-1.821L341.173,58.087a5.444,5.444,0,0,0-4.88,0h0a5.367,5.367,0,0,0-2.353,3.521Z" transform="translate(-333.863 -57.51)" fill="#fff" opacity="0.3"/>
    </g>
    <g id="Speach_Bubble-2" data-name="Speach Bubble" transform="translate(0 10.806)">
      <path id="Tracé_1923" data-name="Tracé 1923" d="M96.938,114.782,92.116,112a.455.455,0,0,1-.224-.2L91,110.248l2.86-1.648-.09.25Z" transform="translate(-59.058 -75.175)" fill="#0969c9"/>
      <g id="Groupe_1422" data-name="Groupe 1422" transform="translate(31.942 33.425)" opacity="0.55">
        <path id="Tracé_1924" data-name="Tracé 1924" d="M96.938,114.782,92.116,112a.455.455,0,0,1-.224-.2L91,110.248l2.86-1.648-.09.25Z" transform="translate(-91 -108.6)" fill="#fff"/>
      </g>
      <path id="Tracé_1925" data-name="Tracé 1925" d="M94.79,106.489l3.335,5.771a.494.494,0,0,0,.9-.083L102.549,102Z" transform="translate(-60.418 -72.808)" fill="#0969c9"/>
      <path id="Tracé_1926" data-name="Tracé 1926" d="M94.79,106.489l3.335,5.771a.494.494,0,0,0,.9-.083L102.549,102Z" transform="translate(-60.418 -72.808)" fill="#fff" opacity="0.7"/>
      <path id="Tracé_1927" data-name="Tracé 1927" d="M88.24,61.088a5.13,5.13,0,0,0-2.328-4.04h0a5.13,5.13,0,0,0-4.656,0L43.524,78.819a5.13,5.13,0,0,0-2.334,4.034v19.11A5.13,5.13,0,0,0,43.524,106h0a5.13,5.13,0,0,0,4.656,0L86.13,84.071a3.6,3.6,0,0,0,2.11-3.848Z" transform="translate(-41.19 -56.482)" fill="#0969c9"/>
      <path id="Tracé_1928" data-name="Tracé 1928" d="M90.854,62.645v19.1c0,1.488,0,2.687-2.116,3.848l-37.95,21.957a3.8,3.8,0,0,1-.4.192h-.115l-.09.032h.038c-1.013.289-1.763-.34-1.763-1.6V87.071a4.81,4.81,0,0,1,.68-2.3h0a4.6,4.6,0,0,1,1.642-1.744L88.52,61.266c1.077-.641,1.975-.3,2.251.68a4.892,4.892,0,0,0-.353-1.116A4.252,4.252,0,0,1,90.854,62.645Z" transform="translate(-43.798 -58.039)" fill="#fff" opacity="0.7"/>
      <path id="Tracé_1929" data-name="Tracé 1929" d="M41.19,115.418a5.13,5.13,0,0,0,2.334,4.034h0a5.207,5.207,0,0,0,4.258.2c-1.1.417-1.924-.212-1.924-1.539V99a4.81,4.81,0,0,1,.68-2.3L41.876,94a4.745,4.745,0,0,0-.686,2.3Z" transform="translate(-41.19 -69.938)" fill="#fff" opacity="0.55"/>
      <path id="Tracé_1930" data-name="Tracé 1930" d="M88.55,60.416c-.269-.988-1.174-1.283-2.244-.68L48.567,81.5a4.675,4.675,0,0,0-1.642,1.738l-4.656-2.7A4.694,4.694,0,0,1,43.912,78.8L81.637,57.031a5.188,5.188,0,0,1,4.662,0h0a5.13,5.13,0,0,1,2.251,3.386Z" transform="translate(-41.577 -56.477)" fill="#fff" opacity="0.85"/>
      <path id="Tracé_1931" data-name="Tracé 1931" d="M57.431,100.019,84.364,84.384c.782-.455,1.411-.25,1.411.455a2.815,2.815,0,0,1-1.411,2.091L57.431,102.564c-.776.449-1.411.244-1.411-.455a2.834,2.834,0,0,1,1.411-2.091Z" transform="translate(-46.51 -66.402)" fill="#455a64"/>
      <path id="Tracé_1932" data-name="Tracé 1932" d="M57.431,111.289l18.789-10.9c.776-.449,1.411-.244,1.411.462a2.854,2.854,0,0,1-1.411,2.091l-18.789,10.9c-.776.455-1.411.25-1.411-.455a2.834,2.834,0,0,1,1.411-2.1Z" transform="translate(-46.51 -72.144)" fill="#455a64"/>
      <path id="Tracé_1933" data-name="Tracé 1933" d="M57.431,91.421,84.364,75.787c.782-.449,1.411-.244,1.411.462a2.828,2.828,0,0,1-1.411,2.091L57.431,93.973c-.776.449-1.411.244-1.411-.462a2.834,2.834,0,0,1,1.411-2.091Z" transform="translate(-46.51 -63.319)" fill="#455a64"/>
    </g>
    <g id="Speach_Bubble-3" data-name="Speach Bubble" transform="translate(71.7)">
      <path id="Tracé_1934" data-name="Tracé 1934" d="M218.484,49.953a.68.68,0,0,0-.321-.083h-5.842l-2.411,1.366v8.336l2.411-1.392,2.084-2.411v6.413l2.411-1.392,6.323-7.3a.641.641,0,0,0-.16-.968Z" transform="translate(-173.415 -43.302)" fill="#455a64"/>
      <path id="Tracé_1935" data-name="Tracé 1935" d="M216.92,63.647l2.411-1.392,6.323-7.3a.641.641,0,0,0-.481-1.052h-5.842l-2.411,1.392Z" transform="translate(-175.93 -44.747)" fill="#37474f"/>
      <path id="Tracé_1936" data-name="Tracé 1936" d="M196.419,43.868a4.758,4.758,0,0,0-2.148-3.726h0a4.739,4.739,0,0,0-4.3,0L155.2,60.207a4.752,4.752,0,0,0-2.148,3.719V81.549a4.745,4.745,0,0,0,2.148,3.719h0a4.784,4.784,0,0,0,4.3,0l34.981-20.206c1.924-1.1,1.924-2.206,1.924-3.578Z" transform="translate(-153.018 -39.627)" fill="#37474f"/>
      <path id="Tracé_1937" data-name="Tracé 1937" d="M153.032,93.958a4.745,4.745,0,0,0,2.148,3.719h0a4.816,4.816,0,0,0,3.931.18c-1.013.378-1.783-.2-1.783-1.424V78.818a4.354,4.354,0,0,1,.641-2.116l-4.329-2.482A4.444,4.444,0,0,0,153,76.336Z" transform="translate(-153 -52.037)" fill="#263238"/>
      <path id="Tracé_1938" data-name="Tracé 1938" d="M196.689,43.259c-.25-.911-1.077-1.2-2.071-.641L159.836,62.7a4.207,4.207,0,0,0-1.513,1.6L154,61.823a4.354,4.354,0,0,1,1.513-1.6l34.776-20.065a4.8,4.8,0,0,1,4.3,0h0A4.72,4.72,0,0,1,196.689,43.259Z" transform="translate(-153.359 -39.634)" fill="#455a64"/>
      <path id="Tracé_1939" data-name="Tracé 1939" d="M169.963,78.815l24.849-14.409c.718-.417,1.283-.231,1.283.423a2.61,2.61,0,0,1-1.283,1.924L169.963,81.181c-.718.41-1.283.224-1.283-.423A2.61,2.61,0,0,1,169.963,78.815Z" transform="translate(-158.625 -48.436)" fill="#0969c9"/>
      <path id="Tracé_1940" data-name="Tracé 1940" d="M181.7,82.422l17.314-10.036c.718-.417,1.283-.224,1.283.423a2.6,2.6,0,0,1-1.283,1.924L181.7,84.77c-.718.417-1.283.231-1.283-.423a2.61,2.61,0,0,1,1.283-1.924Z" transform="translate(-162.836 -51.3)" fill="#0969c9"/>
      <path id="Tracé_1941" data-name="Tracé 1941" d="M169.963,70.914,194.812,56.5c.718-.41,1.283-.224,1.283.423a2.61,2.61,0,0,1-1.283,1.924L169.963,73.261c-.718.417-1.283.231-1.283-.423a2.61,2.61,0,0,1,1.283-1.924Z" transform="translate(-158.625 -45.601)" fill="#0969c9"/>
    </g>
  </g>
  <g id="Character_3" data-name="Character 3" transform="translate(184.082 70.268)">
    <g id="Character">
      <g id="Character-2" data-name="Character" transform="translate(56.143 31.497)">
        <path id="Tracé_1942" data-name="Tracé 1942" d="M398.09,197.637c3.3-.737,7.054.641,9.548,5.938,2.411,5.053,9.388,19.924,9.548,23.49.167,3.7-14.9,15.224-14.473,15.025.128-.064-3.367-7.124-3.367-7.124l7.663-9.523-4.335-8.535Z" transform="translate(-398.09 -197.453)" fill="#0969c9"/>
      </g>
      <g id="Character-3" data-name="Character" transform="translate(56.143 31.497)" opacity="0.35">
        <path id="Tracé_1943" data-name="Tracé 1943" d="M398.09,197.637c3.3-.737,7.054.641,9.548,5.938,2.411,5.053,9.388,19.924,9.548,23.49.167,3.7-14.9,15.224-14.473,15.025.128-.064-3.367-7.124-3.367-7.124l7.663-9.523-4.335-8.535Z" transform="translate(-398.09 -197.453)"/>
      </g>
      <path id="Tracé_1944" data-name="Tracé 1944" d="M398.442,381.179c.436.167.686.994.885,3.014.115,1.283.545,2.911-1.366,3.925a4.8,4.8,0,0,1-4.489-.045c-1.654-1.026-2.495-2.924-4.431-4.444-1.706-1.334-3.848-2.321-5.22-4.752s-1.154-4.046,1.667-4.046c4.54,0,5.9,2.5,8.234,2.565C395,377.408,398,381.018,398.442,381.179Z" transform="translate(-336.534 -229.587)" fill="#263238"/>
      <path id="Tracé_1945" data-name="Tracé 1945" d="M403.727,382.76V384.8c0,.994-4.239,2.482-5.425.205-.09-.2-.551-2.995-.551-2.995Z" transform="translate(-341.825 -232.163)" fill="#ffa8a7"/>
      <path id="Tracé_1946" data-name="Tracé 1946" d="M363.471,403.25s.808,0,1.122,3.29c.122,1.282.423,3.848,0,4.758s-2.745,1.34-5.348,1.571A14.078,14.078,0,0,0,353.756,415a12,12,0,0,1-5.566,1.539c-2.463,0-4.547-.25-6.3-1.635-.93-.737-2.116-2.289-1.251-3.463a2.565,2.565,0,0,1,1.315-.693c1.1-.41,2.2-.782,3.315-1.135a33.566,33.566,0,0,0,4.867-1.866c2.3-1.135,4.854-2.4,6.592-4.335Z" transform="translate(-321.23 -239.782)" fill="#263238"/>
      <path id="Tracé_1947" data-name="Tracé 1947" d="M372.618,400.6v2.379c0,.866-1,2.155-3.649,2.078-1.853-.058-3.155-.551-3.091-2.084v-2.2Z" transform="translate(-330.391 -238.832)" fill="#ffa8a7"/>
      <path id="Tracé_1948" data-name="Tracé 1948" d="M390.79,309.954a55.48,55.48,0,0,0-2.462-10.607s.68-9.17.988-17.866a231.21,231.21,0,0,0-.744-26.7s-29.537-2.8-30.024,8.054.218,38.476.6,43.234.763,9.228,1.776,18.1c.866,7.638,2.27,24.214,2.27,24.214a7.137,7.137,0,0,0,6.733-.173s2.225-22.258,2.482-27.754c.333-7.131-1.327-11.062-1.327-11.062s.641-4.489,1.725-13.71c.776-6.509,1.808-13.928,1.808-13.928s1.013,9.183,1.622,14.3c.571,4.745,1.533,8.5,2.956,17.346,1.238,7.7,4.611,23.919,4.611,23.919a4.993,4.993,0,0,0,5.771-.282S391.759,316.584,390.79,309.954Z" transform="translate(-327.702 -186.405)" fill="#37474f"/>
      <path id="Tracé_1949" data-name="Tracé 1949" d="M383.7,288.99l1.4-9.068s5.771-1.834,8.67-5.252c0,0-1.558,3.982-6.913,6.124l-2.148,7.638-.366,6.3Z" transform="translate(-336.785 -193.657)"/>
      <path id="Tracé_1950" data-name="Tracé 1950" d="M352.66,153.777l1.379,9.69,8.721-.3-.84-11.325Z" transform="translate(-310.593 -124.738)" fill="#ffa8a7"/>
      <path id="Tracé_1951" data-name="Tracé 1951" d="M365.2,175s-2.341,3.431-2.084,3.777,1.924.673,1.924.673Z" transform="translate(-329.395 -157.902)" fill="#f28f8f"/>
      <path id="Tracé_1952" data-name="Tracé 1952" d="M366.006,175.265a2.847,2.847,0,1,1,2.9-2.8A2.847,2.847,0,0,1,366.006,175.265Zm.083-5.06a2.212,2.212,0,1,0,2.18,2.244A2.212,2.212,0,0,0,366.09,170.205Z" transform="translate(-329.434 -155.954)" fill="#263238"/>
      <path id="Tracé_1953" data-name="Tracé 1953" d="M372.727,159.943c-4.643.9-6.009,2.911-6.56,10.26-.577,7.663.167,10.087,1.161,11.139.673.705,4.45.891,6.368.4,2.4-.641,7.823-2.45,10.414-6.265,3.046-4.489,3.925-10.639.776-13.217C380.467,158.628,374.612,159.577,372.727,159.943Z" transform="translate(-330.422 -152.361)" fill="#ffa8a7"/>
      <path id="Tracé_1954" data-name="Tracé 1954" d="M373.323,193.565c-1.994.224-4.675,0-5.233-.59a13.737,13.737,0,0,0,4.963-.975Z" transform="translate(-331.185 -164)" fill="#f28f8f"/>
      <path id="Tracé_1955" data-name="Tracé 1955" d="M363.666,157.74a2.8,2.8,0,0,0,.641,1.84,3.245,3.245,0,0,0,3.149.93,2.142,2.142,0,0,0,2.443,2.841c-.224.051.366,1.763.423,1.924a2.366,2.366,0,0,0,1.218,1.481s.814-2.956,3.309-2.565,2.8,3.63,1.186,5.553-3.091,1.154-3.091,1.154,0,4.245,1.853,6.676a12.757,12.757,0,0,0,6.079-.051c2.424-.475,5.893-3.444,7.381-6.618,3.149-6.727,3.456-12.825-.84-14.711-.167-.077-.231-.911-.282-1.09a4.98,4.98,0,0,0-.558-1.353,5.657,5.657,0,0,0-2.4-2.091,12.326,12.326,0,0,0-4.572-.975,29.1,29.1,0,0,1-4.668-.475c-1.379-.321-2.674-.911-4.021-1.347a7.933,7.933,0,0,0-4.168-.417,3.771,3.771,0,0,0-2.937,2.725c-.3,1.558.6,2.854,1.545,4a2.738,2.738,0,0,0-1.719,2.565Z" transform="translate(-329.589 -148.337)" fill="#263238"/>
      <path id="Tracé_1956" data-name="Tracé 1956" d="M399.682,161.657l2.79-1.59a1.606,1.606,0,0,0-2.79,1.59Z" transform="translate(-342.442 -152.254)" fill="#263238"/>
      <path id="Tracé_1957" data-name="Tracé 1957" d="M375,177.84l.135-3.206A1.61,1.61,0,1,0,375,177.84Z" transform="translate(-333.064 -157.766)" fill="#263238"/>
      <path id="Tracé_1958" data-name="Tracé 1958" d="M340.146,134.26l8.587,1.25-.359.6-8.234-1.2Z" transform="translate(-306.101 -118.431)" fill="#263238"/>
      <path id="Tracé_1959" data-name="Tracé 1959" d="M389.4,203.107c-1.02-3.976-2.456-5.278-5.919-5.367a43.566,43.566,0,0,0-5.323.68c-.366,1.68-4.707,2.822-9.106,1.924-1.283.378-4.765,1.321-5.855,1.712-3.11,1.135-4.617,4.361-4.822,14.621,0,0-.6,24.317,0,28.517a37.869,37.869,0,0,0,20.482,1.924c9.356-2.1,10.465-5.989,10.465-5.989s-.487-9.76-.808-17.186c.468-4.726,1.173-8.279,1.43-12.049A31.7,31.7,0,0,0,389.4,203.107Z" transform="translate(-327.604 -166.059)" fill="#0969c9"/>
      <g id="Groupe_1423" data-name="Groupe 1423" transform="translate(30.503 31.681)" opacity="0.2">
        <path id="Tracé_1960" data-name="Tracé 1960" d="M389.4,203.107c-1.02-3.976-2.456-5.278-5.919-5.367a43.566,43.566,0,0,0-5.323.68c-.366,1.68-4.707,2.822-9.106,1.924-1.283.378-4.765,1.321-5.855,1.712-3.11,1.135-4.617,4.361-4.822,14.621,0,0-.6,24.317,0,28.517a37.869,37.869,0,0,0,20.482,1.924c9.356-2.1,10.465-5.989,10.465-5.989s-.487-9.76-.808-17.186c.468-4.726,1.173-8.279,1.43-12.049A31.7,31.7,0,0,0,389.4,203.107Z" transform="translate(-358.107 -197.74)"/>
      </g>
      <path id="Tracé_1961" data-name="Tracé 1961" d="M383.417,194.854l.064.936s-.455,1.283-3.1,1.808c-4.444.827-6-.558-6-.558l-.109-.8s-.43-.173-1.154.385a38.823,38.823,0,0,0-3.072,3.6s.846-.25,3.623.93a13.21,13.21,0,0,0,8.676.327,4.777,4.777,0,0,0,3.174-3.553C385.623,197.117,384.18,194.52,383.417,194.854Z" transform="translate(-331.884 -165.013)" fill="#0969c9"/>
      <path id="Tracé_1962" data-name="Tracé 1962" d="M383.417,194.854l.064.936s-.455,1.283-3.1,1.808c-4.444.827-6-.558-6-.558l-.109-.8s-.43-.173-1.154.385a38.823,38.823,0,0,0-3.072,3.6s.846-.25,3.623.93a13.21,13.21,0,0,0,8.676.327,4.777,4.777,0,0,0,3.174-3.553C385.623,197.117,384.18,194.52,383.417,194.854Z" transform="translate(-331.884 -165.013)" opacity="0.35"/>
      <path id="Tracé_1963" data-name="Tracé 1963" d="M345.149,205.08c-3.713.718-6.971,2.411-6.906,6.81a49.518,49.518,0,0,1-2.764,16.506c-1.154,3.649-10.664,14.563-13.011,15.243s-5.714-.789-6.528.391,2.418,2.623,2.565,3.206-3.969,2.2-6.464,1.77-1.885,2.623,1.872,4.3,8.407-.25,12.864-3.585,13.377-10.453,15.679-15.39a48.238,48.238,0,0,0,4.688-15.839C347.733,209.691,345.149,205.08,345.149,205.08Z" transform="translate(-310.54 -168.692)" fill="#ffa8a7"/>
      <path id="Tracé_1964" data-name="Tracé 1964" d="M355.32,204.73s-3.848,0-6.143,2.289c-1.962,1.924-2.219,5.079-2.764,11.261a49.756,49.756,0,0,1-1.77,9.619c-.462,1.571-6.983,10.626-6.983,10.626a32.258,32.258,0,0,0,5.316,6.06s5.983-4.931,9.029-9.068,5.111-15.865,5.111-15.865S358.674,210.675,355.32,204.73Z" transform="translate(-320.269 -168.567)" fill="#0969c9"/>
      <path id="Tracé_1965" data-name="Tracé 1965" d="M355.32,204.73s-3.848,0-6.143,2.289c-1.962,1.924-2.219,5.079-2.764,11.261a49.756,49.756,0,0,1-1.77,9.619c-.462,1.571-6.983,10.626-6.983,10.626a32.258,32.258,0,0,0,5.316,6.06s5.983-4.931,9.029-9.068,5.111-15.865,5.111-15.865S358.674,210.675,355.32,204.73Z" transform="translate(-320.269 -168.567)" opacity="0.35"/>
      <path id="Tracé_1966" data-name="Tracé 1966" d="M336.558,256.79a17.565,17.565,0,0,0,5.489,6.086s-2.116,1.8-3.258,2.514c0,0-3.149-1.122-5.06-5.444Z" transform="translate(-318.859 -187.242)" fill="#0969c9"/>
      <path id="Tracé_1967" data-name="Tracé 1967" d="M336.558,256.79a17.565,17.565,0,0,0,5.489,6.086s-2.116,1.8-3.258,2.514c0,0-3.149-1.122-5.06-5.444Z" transform="translate(-318.859 -187.242)" opacity="0.5"/>
      <path id="Tracé_1968" data-name="Tracé 1968" d="M336.311,260.946a.475.475,0,1,0,.005-.5A.475.475,0,0,0,336.311,260.946Z" transform="translate(-319.76 -188.474)" fill="#263238"/>
    </g>
  </g>
  <g id="Character_2" data-name="Character 2" transform="translate(104.074 0)">
    <g id="Character-4" data-name="Character">
      <path id="Tracé_1969" data-name="Tracé 1969" d="M238.94,64.481h9.818a14.32,14.32,0,0,0,14.32-14.319h0a11.4,11.4,0,0,0-11.4-11.4h-1.334a11.4,11.4,0,0,0-11.4,11.4Z" transform="translate(-204.847 -38.76)" fill="#263238"/>
      <path id="Tracé_1970" data-name="Tracé 1970" d="M218.739,87.639c-2.418,4.6-4.707,10.222-6.5,12.081-3.4,1.584-11.158,4.534-14.275,4.944a2.334,2.334,0,0,1-1.571-.372,12.978,12.978,0,0,0-3.469-1.379c-1.013-.353-1.443-.84-1.629-.641a1.141,1.141,0,0,0,.1,1.6,8.337,8.337,0,0,0,1.6,1.206,9.568,9.568,0,0,1-4.226.071c-2.7-.712-3.976.59-2.148,3.521.641,1.052,3.206,2.732,8.452,2.283a46.457,46.457,0,0,0,5.547-.641c5.008-1.065,10.356-2.629,13.781-3.649a8.913,8.913,0,0,0,3.322-2.309c5.771-6.56,8.587-12.376,11.107-16.628l-1.834-6.342C222.927,81.232,220.817,83.7,218.739,87.639Z" transform="translate(-185.775 -54.049)" fill="#b16668"/>
      <path id="Tracé_1971" data-name="Tracé 1971" d="M239.774,81.313c-3.142-.231-4.335.359-5.771,1.763-3.431,3.373-8.664,16.211-8.747,16.314s-3.886,1.834-3.886,1.834,2.026,3.392,1.558,6.605c0,0,3.713-.821,5.04-1.327a6.208,6.208,0,0,0,3.052-2.309c1.25-1.449,8.24-9.734,8.24-9.734Z" transform="translate(-198.544 -54.008)" fill="#263238"/>
      <g id="Character-5" data-name="Character" transform="translate(22.472 27.183)">
        <path id="Tracé_1972" data-name="Tracé 1972" d="M238.538,103.73a26.977,26.977,0,0,1,.539,6.836c-.205,3.014-2.347,8.535-2.347,8.535s1.687,1.533,6.278.814c3.739-.584,2.418-11.857.269-14.044A7.054,7.054,0,0,0,238.538,103.73Z" transform="translate(-226.526 -89.25)" fill="#37474f"/>
        <path id="Tracé_1973" data-name="Tracé 1973" d="M276.444,253.71a27.515,27.515,0,0,1,.423,4.489c.058,2.738.558,3.706.641,5.951a6.63,6.63,0,0,1-1.4,4.97c-1.039,1.443-3.777,2.751-4.931.308s-1.007-4.034-.641-6.547.43-4.04.641-6.021c.192-1.751.423-3.078.423-3.078Z" transform="translate(-238.557 -143.053)" fill="#263238"/>
        <path id="Tracé_1974" data-name="Tracé 1974" d="M267.79,220.08l8.978-.16c-.135,6.015-1.09,16.032-1.244,21.668,0,1.064,0,8.26-.378,10.446-.6,3.283-4.489,2.841-4.707.872s.25-10.363.237-11.229c.038-3.617-1.661-13.063-2.565-19.565C268.117,221.8,267.829,220.395,267.79,220.08Z" transform="translate(-237.669 -130.931)" fill="#b16668"/>
        <path id="Tracé_1975" data-name="Tracé 1975" d="M237.691,246.41s.468.032.545.41.1,1.161.295,1.924a10.973,10.973,0,0,1,.321,3.565c-.16.84-2.078,2.1-3.386,2.315a10.213,10.213,0,0,0-4.194,2.482,10.029,10.029,0,0,1-5.823,2.289c-2.187,0-3.713-.725-4.438-1.924s.641-1.315,3.161-2.937l1.924-1.282c3.963-2.565,5.412-3.976,6.535-6.567Z" transform="translate(-220.818 -140.434)" fill="#263238"/>
        <path id="Tracé_1976" data-name="Tracé 1976" d="M234.5,235.5c.064-1.866-.885-15.583-.885-15.583l7.747.872c-1.828,10.934-1.981,14.666-1.77,16.256h0a1.614,1.614,0,0,1,.051.455c0,2.129-2.411,3.27-4.277,4.688a17.51,17.51,0,0,1-4.867,3.046c-1.436.487-4.1.673-4.444-.2a60.567,60.567,0,0,0,7.189-6A4.6,4.6,0,0,0,234.5,235.5Z" transform="translate(-222.695 -130.931)" fill="#b16668"/>
        <path id="Tracé_1977" data-name="Tracé 1977" d="M258.723,118.92a32.889,32.889,0,0,1,5.669,11.684c2.565,10.331-1.462,32.435-1.462,32.435.128,1.494,1.84,4.444,2.482,11.043.75,7.791-1.392,28.658-1.392,28.658a4.988,4.988,0,0,1-5.047.1s-5.457-30.653-6.413-38.4c-.853-6.765-2.565-20.816-2.565-20.816l-3.957,20.777s.545,3.79.821,6.676c.442,4.553-4,27.433-4,27.433a6.259,6.259,0,0,1-5.028-.1s-1.962-29.55-2.379-35.039c-.423-5.65,1.045-18.821,2.129-29.306.327-3.161,1.828-11.543,2.386-14.275Z" transform="translate(-226.043 -94.699)" fill="#455a64"/>
        <path id="Tracé_1978" data-name="Tracé 1978" d="M253.365,152.5l-.93-6.413a15.89,15.89,0,0,1-7.535-2.43,9.619,9.619,0,0,0,6.31,3.527l.584,5.72-1.86,17.846Z" transform="translate(-229.457 -103.574)" fill="#263238" opacity="0.6"/>
        <path id="Tracé_1979" data-name="Tracé 1979" d="M240.7,98.548c.1,1.879.365,7.7.365,7.7,7.7,5.194,18.744-.872,18.744-.872l1.6-10.9s-4.008-5.6-.25-11.543l-6-1.186-7.15-.59-2.123.1c-2.347,1.725-5.945,5.5-6.7,7.426A9.133,9.133,0,0,0,240.7,98.548Z" transform="translate(-227.115 -81.15)" fill="#0969c9"/>
        <g id="Groupe_1424" data-name="Groupe 1424" transform="translate(11.256)" opacity="0.6">
          <path id="Tracé_1980" data-name="Tracé 1980" d="M240.7,98.548c.1,1.879.365,7.7.365,7.7,7.7,5.194,18.744-.872,18.744-.872l1.6-10.9s-4.008-5.6-.25-11.543l-6-1.186-7.15-.59-2.123.1c-2.347,1.725-5.945,5.5-6.7,7.426A9.133,9.133,0,0,0,240.7,98.548Z" transform="translate(-238.37 -81.15)" fill="#fff"/>
        </g>
        <path id="Tracé_1981" data-name="Tracé 1981" d="M263.474,82.23s6.791.3,8.08.917,3.437,4.322,1.513,9.722-3.662,11.729-3.463,13,4.777,7.862,4.777,7.862a12.485,12.485,0,0,1-4.22,2.026l-2.347-5.13.551,5.457a27.951,27.951,0,0,1-7.253.763C261.114,116.846,258.677,96.19,263.474,82.23Z" transform="translate(-235.051 -81.537)" fill="#37474f"/>
      </g>
      <path id="Tracé_1982" data-name="Tracé 1982" d="M270.882,38.76l-.782,2.988a1.5,1.5,0,0,0,1.924-1.045,1.629,1.629,0,0,0-1.141-1.943Z" transform="translate(-216.025 -38.76)" fill="#263238"/>
      <path id="Tracé_1983" data-name="Tracé 1983" d="M273.594,43l-3.084.109a1.494,1.494,0,0,0,1.545,1.52A1.622,1.622,0,0,0,273.594,43Z" transform="translate(-216.172 -40.281)" fill="#263238"/>
      <path id="Tracé_1984" data-name="Tracé 1984" d="M244.407,47.21c-1.283.75-2.847,3.957-2.693,10.677.135,5.694,1.975,7.105,2.9,7.509s2.713.16,4.45-.135V68.68s-2.4,2.79-2.251,4.361,3.469,1.924,5.72.4a14.517,14.517,0,0,0,3.687-3.848V60.728s.949,1.007,2.636-.147a3.11,3.11,0,0,0,.8-4.489,2.3,2.3,0,0,0-3.488.417,17.2,17.2,0,0,1-6.028-2.232A11.908,11.908,0,0,1,244.407,47.21Z" transform="translate(-205.838 -41.791)" fill="#b16668"/>
      <path id="Tracé_1985" data-name="Tracé 1985" d="M252.63,61.232a.718.718,0,1,0,.75-.712A.731.731,0,0,0,252.63,61.232Z" transform="translate(-209.758 -46.566)" fill="#263238"/>
      <path id="Tracé_1986" data-name="Tracé 1986" d="M250.407,69.16l-1.667.526a.866.866,0,0,0,1.084.6A.917.917,0,0,0,250.407,69.16Z" transform="translate(-208.363 -49.665)" fill="#9a4a4d"/>
      <path id="Tracé_1987" data-name="Tracé 1987" d="M242.651,57.416l1.456-1.007a.853.853,0,0,0-1.206-.244.93.93,0,0,0-.25,1.25Z" transform="translate(-206.128 -44.949)" fill="#263238"/>
      <path id="Tracé_1988" data-name="Tracé 1988" d="M243.25,60.425a.718.718,0,1,0,.75-.705A.731.731,0,0,0,243.25,60.425Z" transform="translate(-206.393 -46.279)" fill="#263238"/>
      <path id="Tracé_1989" data-name="Tracé 1989" d="M224.635,21.42l-.115,4.316-2.27-.705Z" transform="translate(-183.803 -7.684)" fill="#9a4a4d"/>
      <path id="Tracé_1990" data-name="Tracé 1990" d="M253.19,73.789c1.834-.237,5.6-1.321,6.188-2.809a3.847,3.847,0,0,1-1.321,1.924c-1.122.968-4.867,2.052-4.867,2.052Z" transform="translate(-209.959 -50.318)" fill="#9a4a4d"/>
      <path id="Tracé_1991" data-name="Tracé 1991" d="M286.641,107.057c-1.186-4.624-6.214-14.749-7.644-18.456-1.629-4.245-4.438-5.771-7.471-5.771-1.116,1.436-1.584,8.664,1.853,12.825,1.462,3.084,5.848,11.7,5.848,11.7a135.727,135.727,0,0,1-4.489,14.39,2.225,2.225,0,0,1-1.154,1.1,22.614,22.614,0,0,0-4.021,2.911c-.846.641-1.494.75-1.436,1.013a1.225,1.225,0,0,0,1.462.776,19.886,19.886,0,0,0,2.68-1.084,32.581,32.581,0,0,1-2.68,3.668c-1.821,2.1-1.757,3.9,1.789,3.957,2.68.038,4.1-1.469,6.477-6.066.68-1.321,1.436-3.315,2.257-5.015,2.071-4.3,3.379-6.092,4.489-8.843C286.423,109.789,287.1,108.84,286.641,107.057Z" transform="translate(-215.316 -54.569)" fill="#b16668"/>
      <path id="Tracé_1992" data-name="Tracé 1992" d="M271.225,82.64c3.36,0,5.842.269,7.779,3.11s7.926,17.789,8.593,19.725,1.1,3.521-1.687,8.054a14.6,14.6,0,0,1-6.676-2.353l.673-3.886-5.868-11.37a20.476,20.476,0,0,1-2.815-13.281Z" transform="translate(-216.368 -54.501)" fill="#263238"/>
    </g>
  </g>
  <g id="Character_1" data-name="Character 1" transform="translate(15.557 56.013)">
    <g id="Character-6" data-name="Character">
      <path id="Tracé_1993" data-name="Tracé 1993" d="M110.1,172.77c3.848,1.283,4.752,1.545,7.394,5.656,2.565,3.944,5.13,11.241,7.419,17.09,4.2-1.193,13.108-3.264,16.032-4.97s2.648-2.892,3.848-3.989c1.385-1.283,2.834-4.316,3.963-2.642.757,1.129-.814,1.885-.718,3.315s4.418-1.924,6.233-3.206c1.2-.84,3.982,1.8,2.866,4.649a8.868,8.868,0,0,1-5.412,5.335c-2.995,1.283-4.559,1.924-8.336,3.591-3.931,1.77-20.136,8.939-21.739,7.939-3.649-1.8-6.99-13.095-9.2-17.956S111.7,177.644,110.1,172.77Z" transform="translate(-70.11 -142.847)" fill="#ffa8a7"/>
      <path id="Tracé_1994" data-name="Tracé 1994" d="M108.67,171.946c1.635,2.148.962,1.283,1.462,4.6.41,2.674,6.034,28.447,11.132,29.5,2.232.468,18.36-6.913,22.271-9.068a18.764,18.764,0,0,1-3.091-6.81c-4.688,1.828-12.768,3.636-15.666,4.54-1.347-3.745-2.988-7.593-4.527-11.37C117.321,176.191,115.66,171.074,108.67,171.946Z" transform="translate(-69.597 -142.516)" fill="#37474f"/>
      <rect id="Rectangle_122" data-name="Rectangle 122" width="6.284" height="10.754" transform="translate(23.483 156.991) rotate(180)" fill="#ffa8a7"/>
      <path id="Tracé_1995" data-name="Tracé 1995" d="M87.171,314.767l6.855.237.34-12.428L86.6,302.32Z" transform="translate(-46.623 -164.465)" fill="#ffa8a7"/>
      <path id="Tracé_1996" data-name="Tracé 1996" d="M74.5,239.315c0,5.72-.4,38.97-.4,38.97-.135,1.648-1.719,4.572-1.847,10.5-.173,8.6,1.148,28.857,1.148,28.857a7.868,7.868,0,0,0,6.669.128s4.7-28.639,5.771-37.142c.936-7.426,3.617-26.856,3.617-26.856l4.04,25.24a42.375,42.375,0,0,0-.333,9.132c.282,3.931,3.258,23.5,3.258,23.5a13.152,13.152,0,0,0,8,.071s.641-30.479.693-34.09c.077-4.117-1.719-39.528-1.719-39.528Z" transform="translate(-56.527 -166.279)" fill="#263238"/>
      <path id="Tracé_1997" data-name="Tracé 1997" d="M80.014,365.578v-.9c.34,0,.545.327.673,1.135.1.584.18,1.02.372,1.783a20.762,20.762,0,0,0,1.1,3.206c.885,2.187,1.635,3.008,3.668,5.56a24.754,24.754,0,0,1,1.924,2.251c.378.673.513,2.565-.135,2.988-2.366,1.578-5.97,1.622-8.522.879a5.13,5.13,0,0,1-3.674-4.13c-.09-.584-.058-1.174-.122-1.757a8.381,8.381,0,0,0-1.571-3.649,10.9,10.9,0,0,1-1.212-1.988c-.526-1.283-.1-2.745.237-4.027.289-1.116.6-2.334.981-2.232v.686a4.957,4.957,0,0,0,3.142,1.058C77.8,366.463,80.021,366.283,80.014,365.578Z" transform="translate(-56.537 -211.691)" fill="#263238"/>
      <path id="Tracé_1998" data-name="Tracé 1998" d="M116.737,357.306c.359,0,.641.513,1.43,1.366a15.05,15.05,0,0,0,4.04,2.9c2.565,1.283,7.561,3.264,9.824,4.284,1.411.641,1.34,2.341-.115,3.315s-4.983,1.667-9.215.725c-2.309-.519-5.3-2.648-7.208-2.533s-5.451.09-6.855-.879-.84-3.033-.442-4.8c.43-1.924.866-4.957,1.507-4.822v.725c.827,1.244,5.13,1.7,6.971.782Z" transform="translate(-69.264 -208.883)" fill="#263238"/>
      <path id="Tracé_1999" data-name="Tracé 1999" d="M99.09,259.645a26.567,26.567,0,0,0,8.894-5.175s-1.61,3.014-6.413,5.816l1.167,22.1Z" transform="translate(-66.161 -172.155)"/>
      <path id="Tracé_2000" data-name="Tracé 2000" d="M85.909,171.636c-1.283.3-4.341.68-6.592,1.327-1.654.475-2.353,2.495-2.7,4.021-1.109,4.874-1.283,15.1-1.283,15.1L75.27,215.9c4.13,3,21.078,4.527,29.755-1.808,0,0-1.058-28.37-1.058-32.782s-2.456-9.722-9.228-10.113Z" transform="translate(-57.616 -142.283)" fill="#455a64"/>
      <path id="Tracé_2001" data-name="Tracé 2001" d="M59.608,224.1s5.258,7.984,6.163,9.023,1.52.7,2.495.237a26.873,26.873,0,0,1,3.649-1.283c1.61-.43,1.924,1.161.366,2.289-1.154.814-2.469,1.174-1.924,1.847a12.249,12.249,0,0,0,3.848,2.514c3.848,1.635,4.014,2.629,3.3,3.976-.641,1.167-2.931,4.361-9.869,1.385-2.86-1.231-6.829-5.573-8.728-7.823a93.135,93.135,0,0,1-6.5-9.574Z" transform="translate(-49.411 -161.26)" fill="#ffa8a7"/>
      <path id="Tracé_2002" data-name="Tracé 2002" d="M69.44,173.967c-6.323-.545-7.952,2.706-12.441,10.671-3.963,6.951-9.093,15.621-9.26,19.238-.045,1.167,5.028,9.273,8.657,13.39a9.008,9.008,0,0,0,6.906-3.206c-.866-1.443-5.534-9.895-5.534-9.895L66.106,191.3a16.962,16.962,0,0,0,3.4-6.8C70.582,179.739,70.159,175.032,69.44,173.967Z" transform="translate(-47.74 -143.255)" fill="#37474f"/>
      <path id="Tracé_2003" data-name="Tracé 2003" d="M94.12,137.805a7.952,7.952,0,1,0,7.952-7.945,7.952,7.952,0,0,0-7.952,7.945Z" transform="translate(-64.378 -127.453)" fill="#263238"/>
      <path id="Tracé_2004" data-name="Tracé 2004" d="M85.09,151.06a68.273,68.273,0,0,0,1.8,7.054,2.745,2.745,0,0,0,1.584,1.283l-.09-4.258Z" transform="translate(-61.138 -135.058)" fill="#263238"/>
      <path id="Tracé_2005" data-name="Tracé 2005" d="M85.86,136.18a3.264,3.264,0,0,0-2.36,1.026c-1.058,1.084-.5,5.194.821,8.516l2.424.282Z" transform="translate(-60.369 -129.721)" fill="#263238"/>
      <path id="Tracé_2006" data-name="Tracé 2006" d="M86.875,144.4c-.487.295-1.18-.641-1.783-1.283a2.1,2.1,0,0,0-3.533.571c-.968,2.058.859,4.874,2.4,5.355,2.655.834,3.052-.872,3.052-.872l.2,9.882h0c1.834,2.353,5.964,5.13,8.189,4.726,1.77-.314,2.161-3.309.462-5.271v-2.918a16.552,16.552,0,0,0,3.585.18c1.924-.3,3.206-1.84,3.777-3.957.949-3.4,1.283-6.143.5-12.825-.885-7.323-9.4-7.4-14-4.489S86.875,144.4,86.875,144.4Z" transform="translate(-59.775 -128.116)" fill="#ffa8a7"/>
      <path id="Tracé_2007" data-name="Tracé 2007" d="M106.444,133.015a4.091,4.091,0,0,1-1.642,1.6,9.555,9.555,0,0,1-5.618,1.116,17.207,17.207,0,0,1-5.656-2.1,4.059,4.059,0,0,1-.917,2.033,6.086,6.086,0,0,1-2.18,1.43c-.167,1.315-.16,3.008-.244,4.335,0,.449,0,2.777-1.084,2.11a5.258,5.258,0,0,1-.923-1.039,16.3,16.3,0,0,0-1.225-1.353c-.314-.289-.295-.949-.308-1.327a18.4,18.4,0,0,1,.077-2.379c.071-.821.205-1.635.276-2.45a3.7,3.7,0,0,0-.327-1.359,4.873,4.873,0,0,1-.205-1.552,4.749,4.749,0,0,1,2.822-3.758,13.2,13.2,0,0,1,6.8-.994,15.247,15.247,0,0,0,6.009-.231c.737-.244,1.436-.641,2.187-.821a2.956,2.956,0,0,1,2.27.141,2.685,2.685,0,0,1,.109,4.3c-.1.058-.212.122-.244.231a.507.507,0,0,0,.077.366A1.924,1.924,0,0,1,106.444,133.015Z" transform="translate(-61.632 -126.107)" fill="#263238"/>
      <path id="Tracé_2008" data-name="Tracé 2008" d="M85.093,136.109l-2.943-1.578a1.629,1.629,0,0,1,2.232-.737A1.757,1.757,0,0,1,85.093,136.109Z" transform="translate(-60.084 -128.797)" fill="#263238"/>
      <path id="Tracé_2009" data-name="Tracé 2009" d="M99.527,165.3A33.241,33.241,0,0,1,93.64,163.6a5.034,5.034,0,0,1-2.11-2.084,6.926,6.926,0,0,0,1.2,2.462c1.116,1.424,6.8,2.475,6.8,2.475Z" transform="translate(-63.449 -138.811)" fill="#f28f8f"/>
      <path id="Tracé_2010" data-name="Tracé 2010" d="M102.283,148.545a.936.936,0,1,1-.936-.975.949.949,0,0,1,.936.975Z" transform="translate(-66.635 -133.806)" fill="#263238"/>
      <path id="Tracé_2011" data-name="Tracé 2011" d="M100.721,143.807,98.8,144.878a1.161,1.161,0,0,1,.449-1.539,1.084,1.084,0,0,1,1.475.468Z" transform="translate(-66.009 -132.243)" fill="#263238"/>
      <path id="Tracé_2012" data-name="Tracé 2012" d="M103.411,159l2.161.808a1.135,1.135,0,0,1-1.469.718A1.206,1.206,0,0,1,103.411,159Z" transform="translate(-67.685 -137.907)" fill="#f28f8f"/>
      <path id="Tracé_2013" data-name="Tracé 2013" d="M114.383,144.342l-1.763-1.359a1.071,1.071,0,0,1,1.533-.237,1.167,1.167,0,0,1,.231,1.6Z" transform="translate(-71.014 -131.996)" fill="#263238"/>
      <path id="Tracé_2014" data-name="Tracé 2014" d="M113.739,148.283a.9.9,0,1,1-.9-.943.923.923,0,0,1,.9.943Z" transform="translate(-70.767 -133.724)" fill="#263238"/>
      <path id="Tracé_2015" data-name="Tracé 2015" d="M83.72,108.89l.308,5.7L87,113.578Z" transform="translate(-45.59 -95.075)" fill="#f28f8f"/>
      <path id="Tracé_2016" data-name="Tracé 2016" d="M104.077,177.936c-.558,1.283-1.584,1.853-3.437,2.065a6.894,6.894,0,0,1-5.13-1.789l2.309-2.3,2.931,2.212.25-2.462Z" transform="translate(-64.876 -143.883)" fill="#0969c9"/>
      <path id="Tracé_2017" data-name="Tracé 2017" d="M104.077,177.936c-.558,1.283-1.584,1.853-3.437,2.065a6.894,6.894,0,0,1-5.13-1.789l2.309-2.3,2.931,2.212.25-2.462Z" transform="translate(-64.876 -143.883)" opacity="0.2"/>
      <path id="Tracé_2018" data-name="Tracé 2018" d="M104.118,178.08a6.169,6.169,0,0,1,.3,2.475,4.207,4.207,0,0,1-.821,2.058,2.276,2.276,0,0,1-1.994.218A5.444,5.444,0,0,1,99.68,178.7l2.565.295Z" transform="translate(-66.372 -144.751)" fill="#0969c9"/>
      <path id="Tracé_2019" data-name="Tracé 2019" d="M104.014,185.15s3.008,16.59,3.129,17.955-1.731,6.092-2.873,6.137-3.4-4.264-3.431-5.483,1.18-18.366,1.18-18.366Z" transform="translate(-66.788 -147.288)" fill="#0969c9"/>
      <path id="Tracé_2020" data-name="Tracé 2020" d="M102.658,185.368a2,2,0,0,0,1.994-.218l.045.263a2.283,2.283,0,0,1-2.078.41Z" transform="translate(-67.427 -147.288)" fill="#37474f"/>
      <path id="Tracé_2021" data-name="Tracé 2021" d="M97.579,174.944l-8.465-6.458V166.8s-1.982.526-2.424,4a14.948,14.948,0,0,0,6.605,7.054l1.776-3.206Z" transform="translate(-61.712 -140.705)" fill="#37474f"/>
      <path id="Tracé_2022" data-name="Tracé 2022" d="M103.874,168.06a7.542,7.542,0,0,1,2.841,2.328c.846,1.4.84,5.938.84,5.938l-2.026-1.84-1.879.911c.18-1.783.231-4.835.231-4.835Z" transform="translate(-67.796 -141.157)" fill="#37474f"/>
    </g>
  </g>
</svg>
