<svg xmlns="http://www.w3.org/2000/svg" width="291.188" height="286.1" viewBox="0 0 291.188 286.1">
  <g id="identifier" transform="translate(0 -0.002)">
    <g id="Floor" transform="translate(0 118.019)">
      <ellipse id="Floor-2" data-name="Floor" cx="145.594" cy="84.042" rx="145.594" ry="84.042" fill="#f5f5f5"/>
    </g>
    <g id="Clouds" transform="translate(207.956 5.151)">
      <g id="Clouds-2" data-name="Clouds">
        <path id="Cloud" d="M423.463,59.1l-3.905-2.256a3.832,3.832,0,0,0,0-.48V55.233a6.951,6.951,0,0,0-3.159-5.466,2.471,2.471,0,0,0-1.9-.367,10.544,10.544,0,0,0-4.689-7.488c-2.6-1.51-4.72-.291-4.72,2.723v1.693a8.253,8.253,0,0,0,.4,2.42l-3.242-1.9c-.967-.556-1.75-.107-1.75,1.011a3.867,3.867,0,0,0,1.75,3.033l21.162,12.221c.967.556,1.75.107,1.75-1.011a3.867,3.867,0,0,0-1.7-3.008Z" transform="translate(-368.469 -39.018)" fill="#ebebeb"/>
        <path id="Cloud-2" data-name="Cloud" d="M352.6,45.368l2.155.828V41.451c0-3.791,3-4.663,6.262-2.787h0a13.063,13.063,0,0,1,5.9,10.224v.689a3.159,3.159,0,0,1,2.736.417h0a9.4,9.4,0,0,1,4.246,7.355v.316l3,1.712a6.186,6.186,0,0,1,2.8,4.84c0,1.788-1.264,2.528-2.8,1.618L352.6,51.807a6.193,6.193,0,0,1-2.793-4.847C349.81,45.2,351.061,44.477,352.6,45.368Z" transform="translate(-349.81 -37.71)" fill="#ebebeb"/>
      </g>
    </g>
    <g id="Shadows" transform="translate(23.722 176.648)">
      <ellipse id="Shadow" cx="43.841" cy="25.307" rx="43.841" ry="25.307" transform="translate(150.731 31.846)" fill="#e0e0e0"/>
      <path id="Shadow-2" data-name="Shadow" d="M85.327,368.983,156.667,327.8a.859.859,0,0,0,0-1.63l-5.125-2.957a3.16,3.16,0,0,0-2.825,0l-28.96,16.72a3.077,3.077,0,0,1-2.818,0l-52.8-30.482a3.159,3.159,0,0,0-2.825,0l-2.477,1.428a.859.859,0,0,0,0,1.63l52.851,30.514a.859.859,0,0,1,0,1.63L77.378,364.4a.859.859,0,0,0,0,1.624l5.125,2.957a3.1,3.1,0,0,0,2.825,0Z" transform="translate(-58.251 -309.113)" fill="#e0e0e0"/>
    </g>
    <g id="Plants" transform="translate(32.012 180.49)">
      <g id="Plants-2" data-name="Plants">
        <path id="Tracé_1823" data-name="Tracé 1823" d="M101.008,363.095l5.055-2.875s2.414-13.3.632-24.739c-2.528-16.075-13.485-21.623-17.459-20.025s-4.91,6.363,2.275,15.652C95.694,336.612,101.141,348.2,101.008,363.095Z" transform="translate(-76.819 -315.193)" fill="#27debf"/>
        <path id="Tracé_1824" data-name="Tracé 1824" d="M101.008,363.095l5.055-2.875s2.414-13.3.632-24.739c-2.528-16.075-13.485-21.623-17.459-20.025s-4.91,6.363,2.275,15.652C95.694,336.612,101.141,348.2,101.008,363.095Z" transform="translate(-76.819 -315.193)" fill="#0969c9"/>
        <path id="Tracé_1825" data-name="Tracé 1825" d="M106.005,358.1h-.044a.36.36,0,0,1-.31-.4c2.079-15.052-3.975-31.544-10.742-38.185a.367.367,0,0,1,0-.512.36.36,0,0,1,.506,0c6.951,6.761,13.1,23.525,10.989,38.8a.367.367,0,0,1-.4.3Z" transform="translate(-79.997 -316.556)" fill="#fff"/>
        <path id="Tracé_1826" data-name="Tracé 1826" d="M81.594,379.256c-.8.455-2.433-.543-3.065-.967A7.533,7.533,0,0,1,76,375.4a7.065,7.065,0,0,1-.632-4.272,16.43,16.43,0,0,1,.537-2.268c.215-.739.423-1.472.632-2.205a5.617,5.617,0,0,0,.322-2.224c-.2-1.51-1.535-2.566-2.749-3.475-1.346-1.011-2.749-2.338-2.742-4.152a6.376,6.376,0,0,1,1.605-3.791c.866-1.1,1.9-2.073,2.679-3.229a4.5,4.5,0,0,0,.916-2.825,4.575,4.575,0,0,0-.632-1.757,22.736,22.736,0,0,1-1.9-3.539,3.574,3.574,0,0,1,.632-3.753,4.145,4.145,0,0,1,3.122-.777,7.121,7.121,0,0,1,2.907,1.017c2.881,1.605,4.524,5.017,7.583,6.249a29.563,29.563,0,0,0,3.7.9,4.5,4.5,0,0,1,3.052,2.092c1.125,2.243-.96,5-.171,7.387.7,2.1,2.742,2.913,3.892,4.809a4.493,4.493,0,0,1,.537,2.761A13.024,13.024,0,0,1,98.137,367a32.713,32.713,0,0,1-2.528,4.2C95.508,371.238,81.714,379.187,81.594,379.256Z" transform="translate(-71.37 -323.26)" fill="#0969c9"/>
        <path id="Tracé_1827" data-name="Tracé 1827" d="M93.808,376.223h0a.36.36,0,0,1-.348-.373c.594-14.249-6.117-29.977-11-34.546a.36.36,0,0,1,0-.506.366.366,0,0,1,.512,0c4.979,4.663,11.829,20.65,11.229,35.1A.366.366,0,0,1,93.808,376.223Z" transform="translate(-75.414 -324.58)" fill="#fff"/>
        <path id="Tracé_1828" data-name="Tracé 1828" d="M90.814,368.888a.316.316,0,0,1-.107,0,48.023,48.023,0,0,0-10.338-1.668.36.36,0,1,1,.032-.72,49.506,49.506,0,0,1,10.521,1.7.354.354,0,0,1,.234.449.348.348,0,0,1-.341.24Z" transform="translate(-74.556 -334.079)" fill="#fff"/>
      </g>
    </g>
    <g id="Target" transform="translate(25.871 0.002)">
      <g id="Target-2" data-name="Target">
        <g id="Canvas" transform="translate(0 54.461)">
          <path id="Tracé_1829" data-name="Tracé 1829" d="M136.2,287.064V285.2L103.13,304.34l1.573.929Z" transform="translate(-63.834 -159.447)" fill="#37474f"/>
          <path id="Tracé_1830" data-name="Tracé 1830" d="M92.778,117.557a.442.442,0,0,1,.215.474L65.581,239.7l-.777,3.45a2.148,2.148,0,0,1-1.1-.215h0l-1.832-1.081a.442.442,0,0,1-.209-.48L89.8,116.482a.442.442,0,0,1,.632-.291Z" transform="translate(-61.653 -115.895)" fill="#37474f"/>
          <path id="Tracé_1831" data-name="Tracé 1831" d="M98.051,115.75,69.781,241.237a.727.727,0,0,1-.354.474l-1.839,1.062a1.851,1.851,0,0,1-.948.234l.777-3.45L94.9,117.6Z" transform="translate(-63.488 -115.75)" fill="#455a64"/>
          <path id="Tracé_1832" data-name="Tracé 1832" d="M119.524,320.956v3.627a2.175,2.175,0,0,1-1.017-.227h0l-1.706-.986a.714.714,0,0,1-.411-.588V213.8l3.159,1.82Z" transform="translate(-81.802 -151.843)" fill="#37474f"/>
          <path id="Tracé_1833" data-name="Tracé 1833" d="M124.51,213.81v109a.708.708,0,0,1-.417.55l-1.693.986a2.022,2.022,0,0,1-1.03.246V215.624Z" transform="translate(-83.635 -151.847)" fill="#455a64"/>
          <path id="Tracé_1834" data-name="Tracé 1834" d="M173.275,293.544a2.136,2.136,0,0,1-.986-.284l-1.757-1.017a.891.891,0,0,1-.43-.632l-18.792-98,3.159,1.82L172.6,290.018Z" transform="translate(-94.656 -144.411)" fill="#37474f"/>
          <path id="Tracé_1835" data-name="Tracé 1835" d="M178.258,291.709h0a.733.733,0,0,1-.436.594l-1.605.935-.076.044a2.124,2.124,0,0,1-1.03.246l-.676-3.507L156.3,195.434l3.159-1.814,18.761,97.943h0Z" transform="translate(-96.493 -144.415)" fill="#455a64"/>
          <path id="Tracé_1836" data-name="Tracé 1836" d="M103.91,309.545l35.733-20.631V285.28L103.91,305.911Z" transform="translate(-64.121 -159.477)" fill="#455a64"/>
        </g>
        <path id="Tracé_1837" data-name="Tracé 1837" d="M139.55,39.614h0l-.063-.038-.171-.095c-.916-.518-4.708-2.654-12.891-7.349-6.527-3.753-14.628-3.526-23.38,1.542C81.41,46.154,63.894,83.234,63.9,116.5c0,19.747,6.18,33.718,15.715,39.177,5.738,3.292,11.627,6.629,12.966,7.393a1.081,1.081,0,0,1,.145.082l.139.076h0c6.483,3.608,14.5,3.33,23.165-1.675,21.6-12.48,39.12-49.559,39.12-82.828C155.158,59.064,149.028,45.131,139.55,39.614Z" transform="translate(-62.48 -29.562)" fill="#27debf"/>
        <path id="Tracé_1838" data-name="Tracé 1838" d="M139.55,39.614h0l-.063-.038-.171-.095c-.916-.518-4.708-2.654-12.891-7.349-6.527-3.753-14.628-3.526-23.38,1.542C81.41,46.154,63.894,83.234,63.9,116.5c0,19.747,6.18,33.718,15.715,39.177,5.738,3.292,11.627,6.629,12.966,7.393a1.081,1.081,0,0,1,.145.082l.139.076h0c6.483,3.608,14.5,3.33,23.165-1.675,21.6-12.48,39.12-49.559,39.12-82.828C155.158,59.064,149.028,45.131,139.55,39.614Z" transform="translate(-62.48 -29.562)" fill="#0969c9"/>
        <path id="Tracé_1839" data-name="Tracé 1839" d="M146.8,148.482,71.236,104.85A116,116,0,0,0,63.9,144.217c0,19.747,6.18,33.718,15.715,39.177,5.738,3.292,11.627,6.629,12.966,7.393a1.081,1.081,0,0,1,.145.082l.139.076h0c6.483,3.608,14.5,3.33,23.165-1.674C128.524,182.074,139.645,166.643,146.8,148.482Z" transform="translate(-62.48 -57.276)" fill="#0969c9"/>
        <path id="Tracé_1840" data-name="Tracé 1840" d="M64,173.07c.739,17.775,6.717,30.331,15.639,35.449,5.738,3.292,11.627,6.629,12.966,7.393a1.078,1.078,0,0,1,.145.082l.139.076h0c6.483,3.608,14.5,3.33,23.165-1.674a49.067,49.067,0,0,0,8.512-6.351Z" transform="translate(-62.517 -82.389)" opacity="0.1"/>
        <path id="Tracé_1841" data-name="Tracé 1841" d="M123.614,45.424C102.01,57.9,84.5,94.977,84.5,128.246s17.516,50.122,39.12,37.648,39.12-49.585,39.12-82.828S145.225,32.944,123.614,45.424Z" transform="translate(-70.063 -33.887)" fill="#0969c9"/>
        <path id="Tracé_1842" data-name="Tracé 1842" d="M128.138,64.828c-17.314,10-31.348,39.714-31.348,66.349s14.041,40.169,31.354,30.173,31.336-39.7,31.336-66.355S145.458,54.825,128.138,64.828Z" transform="translate(-74.587 -41.329)" fill="#fafafa"/>
        <path id="Tracé_1843" data-name="Tracé 1843" d="M132.672,84.235c-13.03,7.52-23.582,29.876-23.582,49.919s10.559,30.217,23.582,22.7,23.582-29.876,23.582-49.919S145.683,76.709,132.672,84.235Z" transform="translate(-79.115 -48.775)" fill="#0969c9"/>
        <path id="Tracé_1844" data-name="Tracé 1844" d="M137.207,103.64c-8.739,5.055-15.8,20.031-15.8,33.49s7.084,20.265,15.8,15.222,15.8-20.037,15.8-33.49S145.94,98.591,137.207,103.64Z" transform="translate(-83.65 -56.218)" fill="#fafafa"/>
        <path id="Tracé_1845" data-name="Tracé 1845" d="M141.724,123.036c-4.423,2.572-8.05,10.2-8.044,17.061s3.6,10.313,8.044,7.747,8.044-10.192,8.044-17.061S146.166,120.47,141.724,123.036Z" transform="translate(-88.166 -63.658)" fill="#455a64"/>
      </g>
    </g>
    <g id="Character" transform="translate(123.093 49.501)">
      <g id="Character-2" data-name="Character">
        <g id="Character-3" data-name="Character" transform="translate(32.37)">
          <g id="Character-4" data-name="Character" transform="translate(30.3 71.048)">
            <path id="Tracé_1846" data-name="Tracé 1846" d="M379.258,378.89c-.164,1.188-.708,2.161.847,4.922a10.884,10.884,0,0,0,4.076,3.791,17.609,17.609,0,0,1,3.381,3.159,15.059,15.059,0,0,0,3.551,3.437c1.062.7,3.791.43,4.986-.278s1.58-1.851,1.232-3.911-6.717-1.965-6.717-1.965Z" transform="translate(-338.374 -278.699)" fill="#37474f"/>
            <path id="Tracé_1847" data-name="Tracé 1847" d="M399.8,359l-.316,19.323c0,1.137-6.237,2.559-7.583-.038a42.659,42.659,0,0,0-.935-5.927c-.487-1.94-1.314-5.314-1.314-5.314-.708-4.025-1.024-7-1.024-7Z" transform="translate(-341.907 -271.378)" fill="#ffa8a7"/>
            <path id="Tracé_1848" data-name="Tracé 1848" d="M354.046,373.014s-2.938,17.883-3.027,18.868-2.862,1.624-4.916,1.561-3.267-1.017-3.248-1.46L342.35,372.9Z" transform="translate(-324.871 -276.494)" fill="#ffa8a7"/>
            <path id="Tracé_1849" data-name="Tracé 1849" d="M356.542,293.037s.253-3.444,2.287-13.838c1.415-7.2,2.591-14.938,2.591-14.938s2.528,9.327,4.013,16.676c1.062,5.346,2.129,10.382,4.189,20.568a126.787,126.787,0,0,0,3.286,13.27c3.962,2.1,9.756-.31,9.756-.31s.24-6.211.158-13.9c-.1-9.959-2.281-13.857-2.281-13.857s-.84-13.428-1.264-23.342c-.569-14.06-.133-27.171-3.444-38.116-.512-.139-31.595-13.718-32.4,4.878-.2,4.594-.537,16.821-.866,26.634-.562,16.631-.4,29-.423,34.666-.114,5.453-.164,10.565-.063,20.739.051,4.423.31,8.215.31,8.215,3.728,2.528,11.7-.556,11.7-.556s.354-4.373,1.453-10.553C357.5,298.477,356.542,293.037,356.542,293.037Z" transform="translate(-324.751 -220.333)" fill="#37474f"/>
            <g id="Groupe_1418" data-name="Groupe 1418" transform="translate(24.866 16.572)" opacity="0.2">
              <path id="Tracé_1850" data-name="Tracé 1850" d="M360.883,261.441c-1.75-.505-5.27-2.572-5.921-3.886-.752-1.51-.916-9.44-.923-9.775v-.31l12.8-.91.038.278a80.249,80.249,0,0,1,.752,8.733v.411c.051,1.264-4.986,5.144-5.5,5.453a.816.816,0,0,1-.417.114A2.906,2.906,0,0,1,360.883,261.441Zm-6.237-13.39c.057,2.445.3,8.126.859,9.238s3.791,3.077,5.548,3.577c.632.177.771.088.777.088,1.1-.676,5.238-4.208,5.213-4.929v-.417a77.038,77.038,0,0,0-.708-8.392Z" transform="translate(-354.04 -246.56)"/>
            </g>
            <g id="Groupe_1419" data-name="Groupe 1419" transform="translate(46.938 14.19)" opacity="0.2">
              <path id="Tracé_1851" data-name="Tracé 1851" d="M396.129,256.628l.12-.632c-2.167-1.043-5.321-2.78-5.561-3.368a77.867,77.867,0,0,1-1.074-7.987c.632-.164,2.61-.632,5.573-1.264l-.12-.588c-3.7.784-5.832,1.346-5.851,1.352l-.246.063v.253a84.453,84.453,0,0,0,1.137,8.41C390.5,253.842,395.226,256.192,396.129,256.628Z" transform="translate(-388.97 -242.79)"/>
            </g>
            <path id="Tracé_1852" data-name="Tracé 1852" d="M341.648,370.65l.057,1.422s1.144,1.491,6.047,1.592,6.18-1.175,6.18-1.175l.158-1.188c.784.183.632,1.112.114,3.431s-.948,4.322-1.453,4.8-3.159,1.3-6.035,1.169-4.764-1.327-5.27-2.022-.676-3.475-.815-4.973S340.8,370.707,341.648,370.65Z" transform="translate(-324.226 -275.666)" fill="#0969c9"/>
            <path id="Tracé_1853" data-name="Tracé 1853" d="M387.583,358.25l.348,1.422s1.118,1.264,6.009.847,5.46-1.788,5.46-1.788v-1.15c1.043.158,1.314.979,1.049,3.336s-.5,4.423-.948,4.929-2.989,1.611-5.883,1.782-4.259-.727-4.828-1.365-1.087-3.678-1.378-5.156S386.749,358.4,387.583,358.25Z" transform="translate(-341.333 -270.855)" fill="#0969c9"/>
            <path id="Tracé_1854" data-name="Tracé 1854" d="M372.73,279.274l2.231-11.033a10.66,10.66,0,0,0,5.757-7.121s.373,5.055-4.031,7.583l-2.742,10.515,1.093,9.061Z" transform="translate(-336.054 -235.347)" opacity="0.2"/>
            <path id="Tracé_1855" data-name="Tracé 1855" d="M315.037,413.439c-.442-.044-.392,1.264-.24,1.858s1.978,2.483,5.226,3.159,7.728.069,9.655,0,5.245.859,7.159,1.137,5.371-.366,6.515-1.447a2.009,2.009,0,0,0,.468-1.586c-.038-1.264-.152-1.535-.3-1.523Z" transform="translate(-314.688 -291.417)" fill="#37474f"/>
            <path id="Tracé_1856" data-name="Tracé 1856" d="M343.1,396.91a12.006,12.006,0,0,0,.4-2.1,3.893,3.893,0,0,0-.246-1.744,1.845,1.845,0,0,0-1.163-.872l-.278,1.776c-.373.36-1.422.524-1.851.8-.967.632-1.156,1.94-1.409,3.065a1.764,1.764,0,0,1-.291.739c-.872,1.081-1.125-.809-1.169-1.314a3.021,3.021,0,0,0-.67-2.047,3.456,3.456,0,0,0-1.9-.632c-.663-.057-1.453-.032-1.814-.632l-.044-1.118c-.562-.063-1.365.044-1.6.632a1.978,1.978,0,0,0-.051.9c.089.84.209,1.681.373,2.528a9.419,9.419,0,0,1,.284,1.9,3.228,3.228,0,0,1,0,.354,1.9,1.9,0,0,1-.632.676,8.1,8.1,0,0,1-3.311.771c-1.668.107-3.084-.145-4.96-.171a10,10,0,0,0-4.992,1.017,4.487,4.487,0,0,0-2.528,4.423,6.2,6.2,0,0,0,2.97,2.692,16.057,16.057,0,0,0,4.916,1.062,47.539,47.539,0,0,0,6.7-.259,19.108,19.108,0,0,1,4.954.524,12.152,12.152,0,0,0,6.527-.051,3.548,3.548,0,0,0,2.338-1.731,12.574,12.574,0,0,0-.234-3.918c-.044-.259-.095-.512-.152-.765s-.152-.632-.234-.935c-.126-.474-.133-.992-.215-1.479-.032-.177-.126-.632-.246-1.207a14.652,14.652,0,0,1,.253-1.649C342.893,397.757,343,397.315,343.1,396.91Z" transform="translate(-314.893 -283.595)" fill="#455a64"/>
            <path id="Tracé_1857" data-name="Tracé 1857" d="M337.277,404.561a5.763,5.763,0,0,0-2,3.791c.038.96-1.656,1.024-1.693.069a8.215,8.215,0,0,1,1.529-3.362A3.058,3.058,0,0,1,337.277,404.561Z" transform="translate(-321.642 -288.137)" fill="#fafafa"/>
            <path id="Tracé_1858" data-name="Tracé 1858" d="M331.663,405.316a6,6,0,0,0-1.851,3.229c-.032.708-1.5.632-1.472-.076a4.567,4.567,0,0,1,1.858-3.21C330.652,404.937,331.512,405.019,331.663,405.316Z" transform="translate(-319.713 -288.33)" fill="#fafafa"/>
            <path id="Tracé_1859" data-name="Tracé 1859" d="M323.742,404.861c-.777,0-2.408,1.036-3.21,3.412a13.547,13.547,0,0,0-.366,5.371,7.582,7.582,0,0,1-4.3-2.047,4.424,4.424,0,0,1-1.074-1.365,4.745,4.745,0,0,1,.815-3.627c1.131-1.34,2.875-2.218,5.618-2.357,3.077-.158,3.343.664,3.343.664Z" transform="translate(-314.699 -288.027)" fill="#fafafa"/>
            <path id="Tracé_1860" data-name="Tracé 1860" d="M381.209,374.757c1.523-.891,5.921,1.118,5.921,1.118l.259,1.03s.183.733.278,1.093c.227.815,1.264,1.081,2.022,1.188a11.374,11.374,0,0,0,5.782-1c.8-.442.853-.929.853-.929v-1.081c.493,0,1.055.227.973,1.264a33.818,33.818,0,0,0,0,6.786c.139.834.373,1.814.493,2.641.088.562.063,2.218-.676,2.881h0a2.722,2.722,0,0,1-.739.632,5.2,5.2,0,0,1-5.738-.468c-1.668-1.618-2.844-3.09-5.182-5.055-1.384-1.15-2.717-1.7-3.842-3.115h0a8.922,8.922,0,0,1-1.4-2.692C379.376,376.722,379.642,375.673,381.209,374.757Z" transform="translate(-338.637 -277.094)" fill="#455a64"/>
            <path id="Tracé_1861" data-name="Tracé 1861" d="M388.3,382.163a5.529,5.529,0,0,1,2.054-2.7c-.095-.385-.2-.777-.3-1.175a5.794,5.794,0,0,0-3.033,3.362C386.8,382.359,387.805,382.757,388.3,382.163Z" transform="translate(-341.303 -278.479)" fill="#fafafa"/>
            <path id="Tracé_1862" data-name="Tracé 1862" d="M391.9,384.458a5.255,5.255,0,0,1,.455-.967c-.133-.524-.272-1.087-.423-1.681a5.75,5.75,0,0,0-1.3,2.136C390.411,384.622,391.415,385.02,391.9,384.458Z" transform="translate(-342.632 -279.774)" fill="#fafafa"/>
            <path id="Tracé_1863" data-name="Tracé 1863" d="M381.457,381.512h0c0-.183-.265-4.524,5.529-5.946,0-.032-.1-.411-.145-.569h0a5.087,5.087,0,0,0-2.66-1.264,4.211,4.211,0,0,0-4.556,1.965C378.727,377.222,380.282,380.76,381.457,381.512Z" transform="translate(-338.493 -276.778)" fill="#fafafa"/>
          </g>
          <path id="Tracé_1864" data-name="Tracé 1864" d="M306.213,172.106c-2.445-.575-6.831-1.9-11.709-3.577-5.365-1.9-10.951-3.545-11.892-3.716-1.795-.322-4.366-.152-5.959-.581-1.9-.518-3.823-.67-5.485-1.9a2.047,2.047,0,0,1-.967-1.4c0-.3.069-.594.057-.891,0-.468-.31-.9-.259-1.359.063-.632.733-1.1.758-1.738a4.142,4.142,0,0,0-.152-.828c-.076-.506.423-1.182.7-1.592.152-.215.575-.594.335-.878a21.487,21.487,0,0,0-2.673-2.528c-1.757-1.472-2.717-2.818-1.984-3.659,1.011-1.169,2.869.341,5.219,1.984,1.308.916,2.591,1.9,3.918,2.768.518.348,2.616,2.06,3.159,1.2a1.46,1.46,0,0,0,.133-.916c-.057-.632-.171-1.308-.183-1.965a3.791,3.791,0,0,1,.379-1.9,1.371,1.371,0,0,1,.48-.556.708.708,0,0,1,.708-.032,1.1,1.1,0,0,1,.417.632c.3.79.6,1.58.9,2.37a17.751,17.751,0,0,0,1.668,3.823,6.679,6.679,0,0,0,2.25,2.2c.632.3,4.84,1.314,6.218,1.649,2.376.569,15.879,3.355,16.145,3.419l36.346-3.956-.506,11.842S311,173.237,306.213,172.106Z" transform="translate(-266.738 -122.31)" fill="#ffa8a7"/>
          <path id="Tracé_1865" data-name="Tracé 1865" d="M387.4,162.747c2.471-.329,6.2-.3,8.316,2.471s2.092,4.973,2.066,8.512-1.757,9.845-1.757,9.845Z" transform="translate(-311.154 -128.034)" fill="#0969c9"/>
          <path id="Tracé_1866" data-name="Tracé 1866" d="M281.588,161.746a.632.632,0,0,1-.152.506.682.682,0,0,1-.5.183,2.528,2.528,0,0,1-.537-.07c-.145,0-.341,0-.379.126a.3.3,0,0,0,.088.24,6.885,6.885,0,0,0,.8.676c.348.3.765.878.379,1.264a1.011,1.011,0,0,1-.891.335c-.247,0-.493-.095-.746-.107-.044,0-.1,0-.095.063a.115.115,0,0,0,.032.044,3.722,3.722,0,0,1,.923.853.885.885,0,0,1,.158.765c-.126.3-.632.455-.91.474h-.145v.032h.044a2,2,0,0,0,.278.076.973.973,0,0,0,1.062-.727,1.068,1.068,0,0,0-.335-1.131,1.264,1.264,0,0,0,1.15-.455c.632-.7.221-1.3-.335-1.826a1.125,1.125,0,0,0,.524-.246,7.3,7.3,0,0,0,1.232,3.558,11.753,11.753,0,0,1-.7-4.2,5.187,5.187,0,0,1,.1-1.036,9.126,9.126,0,0,1,.177-.923,6.779,6.779,0,0,1,.461-1.447,2.737,2.737,0,0,0-.821.771c-.19.272-.177.682-.594.727a1.144,1.144,0,0,1-.67-.2,2.029,2.029,0,0,0-.632-.3.164.164,0,0,0-.145.032c-.044.057,0,.139.051.2a4.2,4.2,0,0,1,1.106,1.491.668.668,0,0,1,.019.259Z" transform="translate(-271.457 -126.623)" fill="#f28f8f"/>
          <path id="Tracé_1867" data-name="Tracé 1867" d="M341.67,125.73l1.207,11.583,11.57.638-.923-13.44Z" transform="translate(-281.234 -95.333)" fill="#ffa8a7"/>
          <path id="Tracé_1868" data-name="Tracé 1868" d="M350.126,134.05s-2.932,3.975-2.648,4.423,2.268.891,2.268.891Z" transform="translate(-296.452 -117.523)" fill="#f28f8f"/>
          <path id="Tracé_1869" data-name="Tracé 1869" d="M359.483,116.481c-5.554.866-7.273,3.159-8.253,11.892-1.03,9.093-.246,12.006.885,13.3.765.872,5.251,1.264,7.551.752,2.881-.632,9.409-2.559,12.638-6.989,3.823-5.207,5.144-12.474,1.517-15.671C368.746,115.261,361.745,116.127,359.483,116.481Z" transform="translate(-297.663 -110.943)" fill="#ffa8a7"/>
          <path id="Tracé_1870" data-name="Tracé 1870" d="M349.666,116.341a7.45,7.45,0,0,0,1.34,1.182,19.382,19.382,0,0,0,2.231,1.4,14.333,14.333,0,0,1,2.174,1.163,3.064,3.064,0,0,1,1,2.862c0,.752-.07,1.681-.114,2.686-.063,1.517.84,2.717,1.422.714,0,0,1.049-3.324,3.867-2.749s2.894,3.791,1.409,6.23c-.91,1.485-3.1.967-3.1.967a9.953,9.953,0,0,0,2.559,7.8s2.193,1.3,6.711.581c3.286-4.05,5.321-5.99,7.147-9.542,3.867-7.5,2.458-12.417-.107-14.59-.341-3.57-3.046-5.308-6.186-6.212-4.7-1.346-9.3,1.264-13.946-.063a22.966,22.966,0,0,1-2.262-.72,1.264,1.264,0,0,0-.923-.114,1.043,1.043,0,0,0-.506,1.024,2.85,2.85,0,0,0,1.264,2.306c-.095-.063-.562.038-.689.038h-.79a14.277,14.277,0,0,1-1.561-.183,2.894,2.894,0,0,0-1.068,0,1.927,1.927,0,0,0-1.321,1.9,4.789,4.789,0,0,0,.727,2.332,6.5,6.5,0,0,0,.524.847q.094.077.2.145Z" transform="translate(-296.731 -107.896)" fill="#37474f"/>
          <path id="Tracé_1871" data-name="Tracé 1871" d="M352.91,156.346c.632.7,3.671,1.093,6.035.948h.164l-.164-1.264S355.166,156.9,352.91,156.346Z" transform="translate(-298.458 -125.614)" fill="#f28f8f"/>
          <path id="Tracé_1872" data-name="Tracé 1872" d="M378.483,168.92c-1.422-3.425-4.505-6.666-8.474-6.009-.923.152-1.8.227-2.673.385-.468,1.94-6.654,2.123-11.734.948l-5.959.714c-3.646,1.226-6.578,8.259-7.1,18.957s.057,27.171.265,34.621a40.985,40.985,0,0,0,23.108,2.37c10.925-2.174,12.707-6.862,12.707-6.862l-.84-19.121c0-4.158,1.517-9.794,1.839-12.467C380.6,174.234,379.342,171,378.483,168.92Z" transform="translate(-294.566 -128.116)" fill="#455a64"/>
        </g>
        <g id="Dart" transform="translate(0 45.429)">
          <path id="Tracé_1873" data-name="Tracé 1873" d="M228.024,184.612a1.934,1.934,0,0,0-.765,1.548.594.594,0,0,0,.291.537l20.72,10.281,1.081-2.18-20.72-10.281A.632.632,0,0,0,228.024,184.612Z" transform="translate(-219.835 -181.516)" fill="#455a64"/>
          <path id="Tracé_1874" data-name="Tracé 1874" d="M223.225,184.982a75.956,75.956,0,0,1-7.715-5.182s7.532,2.357,8.8,3Z" transform="translate(-215.51 -179.794)" fill="#455a64"/>
          <path id="Tracé_1875" data-name="Tracé 1875" d="M223.709,163.607,203.324,153.56l-8.524-3.33,8.227,4.145,20.606,10.287Z" transform="translate(-194.8 -150.23)" fill="#fff" opacity="0.2"/>
          <path id="Tracé_1876" data-name="Tracé 1876" d="M260.815,200.908a1.9,1.9,0,0,0-.765,1.542c.038.55.436.746.891.442a1.9,1.9,0,0,0,.765-1.548C261.668,200.782,261.282,200.579,260.815,200.908Z" transform="translate(-231.905 -187.505)" fill="#37474f"/>
          <path id="Tracé_1877" data-name="Tracé 1877" d="M259.781,196.746c2.888-5.314,17.105-12.379,28.871-6.559s33.566,28.366,39.31,40.15c-13.8,2.37-42.008.2-53.363-5.409S257.329,209.119,259.781,196.746Z" transform="translate(-231.604 -182.813)" fill="#27debf"/>
          <path id="Tracé_1878" data-name="Tracé 1878" d="M259.781,196.746c2.888-5.314,17.105-12.379,28.871-6.559s33.566,28.366,39.31,40.15c-13.8,2.37-42.008.2-53.363-5.409S257.329,209.119,259.781,196.746Z" transform="translate(-231.604 -182.813)" fill="#0969c9"/>
          <path id="Tracé_1879" data-name="Tracé 1879" d="M269.821,215.361c-.581-8.979,4.208-19.772,10.7-24.094,2.742-1.832,5.346-2.212,7.488-1.359-11.639-5.276-25.408,1.624-28.246,6.843-2.452,12.372,3.488,22.559,14.837,28.17h0C271.982,223.588,270.15,220.233,269.821,215.361Z" transform="translate(-231.598 -182.819)" fill="#0969c9"/>
          <path id="Tracé_1880" data-name="Tracé 1880" d="M274.625,230.01c11.374,5.611,39.556,7.779,53.363,5.409-12.069.24-34.166-3.64-46.7-10.249-10.35-5.46-19.45-15.014-21.484-23.329C257.336,214.212,263.276,224.4,274.625,230.01Z" transform="translate(-231.612 -187.907)" opacity="0.15"/>
          <path id="Tracé_1881" data-name="Tracé 1881" d="M260.1,198.473c11.1-4.474,22.666-2.079,30.5,2.117s31.689,22.7,37.686,31.475c0,0-17.131-23.728-35.733-34.754S260.1,198.473,260.1,198.473Z" transform="translate(-231.924 -184.54)" fill="#fff" opacity="0.5"/>
          <path id="Tracé_1882" data-name="Tracé 1882" d="M388.948,277.592c-1.858,2.616-8.568-.727-15.854-6.66h0l-3.842-8.215,1.346,6.1a92.033,92.033,0,0,1-12.328-13.137c2.117-.145,4.183-.373,6.167-.708l10.186,4.922S392.064,273.213,388.948,277.592Z" transform="translate(-268.061 -207.464)" fill="#27debf"/>
          <path id="Tracé_1883" data-name="Tracé 1883" d="M388.948,277.592c-1.858,2.616-8.568-.727-15.854-6.66h0l-3.842-8.215,1.346,6.1a92.033,92.033,0,0,1-12.328-13.137c2.117-.145,4.183-.373,6.167-.708l10.186,4.922S392.064,273.213,388.948,277.592Z" transform="translate(-268.061 -207.464)" fill="#0969c9"/>
          <g id="Groupe_1420" data-name="Groupe 1420" transform="translate(90.209 47.525)" opacity="0.15">
            <path id="Tracé_1884" data-name="Tracé 1884" d="M358.27,255.7a84.131,84.131,0,0,0,5.687,6.73,22.465,22.465,0,0,1-3.513-5.567l4.044-.7,10.11,3.753L364.418,255C362.453,255.322,360.387,255.55,358.27,255.7Z" transform="translate(-358.27 -255)"/>
          </g>
          <path id="Tracé_1885" data-name="Tracé 1885" d="M374.715,256.372l-10.205-4.91c-2.711-2.325-3.292-3.463-5.99-5.542a115.856,115.856,0,0,1,13.782-.5l-2.389,3.412,6.319-3.159c5.586.537,9.169,1.8,11.2,3.532C393.521,254.388,385.849,258.7,374.715,256.372Z" transform="translate(-268.153 -203.938)" fill="#0969c9"/>
          <path id="Tracé_1886" data-name="Tracé 1886" d="M369.943,248.814l2.389-3.412a115.859,115.859,0,0,0-13.782.5s10.559-.107,12.227.177Z" transform="translate(-268.164 -203.931)" fill="#0969c9" opacity="0.5"/>
          <path id="Tracé_1887" data-name="Tracé 1887" d="M388.789,257.168c7.848.107,12.12-3.558,7.128-7.835-2.028-1.731-5.611-3-11.2-3.532l-3.159,1.586,3.52-.973s7.191.727,10.407,4.278C397.465,252.877,395.228,257.111,388.789,257.168Z" transform="translate(-276.634 -204.089)" fill="#0969c9" opacity="0.5"/>
        </g>
        <path id="Tracé_1888" data-name="Tracé 1888" d="M323.559,182.661c-6.66,12.594-10.464,21.08-12.556,23.2s-17.883,14.534-23.589,15.1-10.812-1.175-11.311-4.082a6.673,6.673,0,0,1-.032-2.464s1.371.96,1.441.986c1.738.594,4.373.4,5.63-.562,1.858-1.422-2.338-2.528-3.317-3.716-1.264-1.485-.714-3.09,2.439-1.712,2.742,1.207,5.181,2.161,7.134,2.1s13.169-11.81,13.169-11.81,6.016-12.707,8.815-19.494c5.264-12.745,10.414-12.682,13.207-12.745Z" transform="translate(-237.767 -129.826)" fill="#ffa8a7"/>
        <path id="Tracé_1889" data-name="Tracé 1889" d="M344.145,166.2c-2.736.272-4.777.392-7.065,1.6-2.774,1.46-3.753,4.069-5.011,6.951-2.395,5.46-4.67,10.414-4.67,10.414.9,2.464,5.99,8.379,10.6,6.66,0,0,3.88-6.7,5.9-11.02C345.788,176.753,346.161,169.524,344.145,166.2Z" transform="translate(-256.698 -129.358)" fill="#0969c9"/>
      </g>
    </g>
  </g>
</svg>
