<svg xmlns="http://www.w3.org/2000/svg"  viewBox="0 0 191.015 122.22">
  <g id="Groupe_1787" data-name="Groupe 1787" transform="translate(-1520 -2582.78)">
    <path id="Tracé_2099" data-name="Tracé 2099" d="M2.73,73.3H37.87V63.57H18.97C27.09,57.34,37.1,48.38,37.1,37.18c0-8.61-5.18-15.4-16.8-15.4-9.31,0-17.36,5.32-17.71,17.71H14.14c0-4.83,2.1-7.63,5.67-7.63,3.64,0,5.32,2.38,5.32,6.09,0,8.61-11.55,17.5-22.4,26.46Z" transform="translate(1673.145 2561)" fill="#64d88d"/>
    <g id="Groupe_1439" data-name="Groupe 1439" transform="translate(1655.914 2583)">
      <rect id="Rectangle_138" data-name="Rectangle 138" width="5" height="70" rx="2.5" transform="translate(0.086)" fill="#64d88d"/>
      <rect id="Rectangle_139" data-name="Rectangle 139" width="5" height="30" rx="2.5" transform="translate(0.086 80)" fill="#64d88d"/>
    </g>
    <g id="Groupe_1671" data-name="Groupe 1671" transform="translate(1520 2583)">
      <rect id="Rectangle_140" data-name="Rectangle 140" width="122" height="122" fill="#fcfcfc"/>
      <g id="coaching" transform="translate(0 0.378)">
        <path id="Tracé_2218" data-name="Tracé 2218" d="M147.2,54.943h-5.058V50.155a1.787,1.787,0,0,0-1.787-1.787H129.584a1.787,1.787,0,0,0-1.787,1.787v4.788H68.756V50.155a1.787,1.787,0,0,0-1.787-1.787H56.194a1.787,1.787,0,0,0-1.787,1.787v4.788H50.231a7.922,7.922,0,0,0-7.913,7.913v43.484a1.787,1.787,0,1,0,3.574,0V62.857a4.344,4.344,0,0,1,4.339-4.339H147.2a3.46,3.46,0,0,1,3.456,3.456v59.1a3.46,3.46,0,0,1-3.456,3.456H143.4v-6.764a1.787,1.787,0,0,0-1.787-1.787h-19.2a1.787,1.787,0,0,0-1.787,1.787v6.764H91.975l6.762-1.849a17.324,17.324,0,0,0,8.876-5.751L119.1,102.939a1.815,1.815,0,0,0,.4-1l1.013-13.34A3.185,3.185,0,0,0,118.6,85.48a1.786,1.786,0,0,0-.88-3.342h-7.831a1.787,1.787,0,1,0,0,3.574h5.845a3.188,3.188,0,0,0-.551.441l-6.558,6.558a51.455,51.455,0,0,0-3.432,4.252,1.787,1.787,0,1,0,2.785,2.24l2.056-2.556,5.276,5.276-10.457,12.74a13.771,13.771,0,0,1-7.056,4.571l-28.22,8.121a1.788,1.788,0,0,0,1.091,3.4l6.207-1.99v14.975H74.391a1.787,1.787,0,1,0,0,3.574H85.316a1.787,1.787,0,0,0,0-3.574H80.448V128.105H147.2a7.038,7.038,0,0,0,7.03-7.03v-59.1a7.038,7.038,0,0,0-7.03-7.03Zm-15.833-3h7.2v3h-7.2Zm-73.391,0h7.2v3h-7.2ZM116.859,89.53l-.627,8.262-3.817-3.817Zm7.334,35v-4.977h15.628v4.977Z" transform="translate(-32.234 -48.368)" fill="#64d88d"/>
        <path id="Tracé_2219" data-name="Tracé 2219" d="M33.623,232.453H10.677v-9.489a39.821,39.821,0,0,1,4.042-17.456,8.756,8.756,0,0,1,7.812-4.873H52.646a26.9,26.9,0,0,0,17.241-6.263,1.787,1.787,0,1,0-2.294-2.74,23.318,23.318,0,0,1-14.946,5.43H39.7a11.562,11.562,0,0,0,3.241-8.032v-6.562a8.826,8.826,0,0,0-.586-17.633c-2.975-.07-5.807.623-7.893,2.891a5.412,5.412,0,0,1-3.967,1.738H25.589A7.449,7.449,0,0,0,18.15,176.9V190.3a7,7,0,0,0,1.284,4.248,6.131,6.131,0,0,0,1.5,1.428c.622.417,1.528.568,2.028,1.088a12.505,12.505,0,0,0-11.452,6.874A43.4,43.4,0,0,0,7.1,222.964v9.489H1.787a1.787,1.787,0,1,0,0,3.574H33.623a1.787,1.787,0,0,0,0-3.574Zm-2.792-35.409a7.988,7.988,0,0,1-2.86-.724,6.593,6.593,0,0,0,1.176-.772,6.472,6.472,0,0,0,2.3-5.108v-7.954h7.92v6.541a8.043,8.043,0,0,1-8.035,8.032C31.147,197.06,30.987,197.056,30.831,197.045ZM21.724,190.3V176.9a3.87,3.87,0,0,1,3.865-3.867H30.5a9,9,0,0,0,6.6-2.892c1.4-1.528,3.31-1.811,5.263-1.738a5.253,5.253,0,0,1,0,10.506h-12.7a1.787,1.787,0,0,0-1.787,1.787v9.741a3.094,3.094,0,0,1-3.833,3.013A2.9,2.9,0,0,1,21.724,190.3Z" transform="translate(0 -137.078)" fill="#64d88d"/>
        <path id="Tracé_2220" data-name="Tracé 2220" d="M251.023,130.465h9.733a1.787,1.787,0,0,0,1.787-1.787V122.1a1.787,1.787,0,0,0-1.787-1.787h-9.733a1.787,1.787,0,0,0-1.787,1.787v6.576A1.787,1.787,0,0,0,251.023,130.465Zm1.787-6.576h6.159v3H252.81Z" transform="translate(-189.848 -103.171)" fill="#64d88d"/>
        <path id="Tracé_2221" data-name="Tracé 2221" d="M249.236,184.653a1.787,1.787,0,0,0,1.787,1.787h9.733a1.787,1.787,0,0,0,1.787-1.787v-6.576a1.787,1.787,0,0,0-1.787-1.787h-9.733a1.787,1.787,0,0,0-1.787,1.787Zm3.574-4.789h6.159v3H252.81Z" transform="translate(-189.848 -145.809)" fill="#64d88d"/>
        <path id="Tracé_2222" data-name="Tracé 2222" d="M320.173,137.688h31.721a1.787,1.787,0,1,0,0-3.574H320.173a1.787,1.787,0,1,0,0,3.574Z" transform="translate(-242.521 -113.682)" fill="#64d88d"/>
      </g>
    </g>
  </g>
</svg>
