<svg xmlns="http://www.w3.org/2000/svg" viewBox="0 0 165.002 121.1" >
  <g id="Groupe_1787" data-name="Groupe 1787" transform="translate(-221.89 -2319.9)">
    <path id="Tracé_2100" data-name="Tracé 2100" d="M8.82,74H21.28V22.9H1.89V34.03H8.82Z" transform="translate(220 2297)" fill="#64d88d"/>
    <rect id="Rectangle_138" data-name="Rectangle 138" width="5" height="70" rx="2.5" transform="translate(257 2320)" fill="#64d88d"/>
    <rect id="Rectangle_139" data-name="Rectangle 139" width="5" height="30" rx="2.5" transform="translate(257 2400)" fill="#64d88d"/>
    <g id="Groupe_1670" data-name="Groupe 1670">
      <rect id="Rectangle_232" data-name="Rectangle 232" width="121" height="121" transform="translate(278 2320)" fill="#fcfcfc"/>
      <g id="panel" transform="translate(289.374 2320.263)">
        <g id="Groupe_1665" data-name="Groupe 1665" transform="translate(0)">
          <g id="Groupe_1664" data-name="Groupe 1664" transform="translate(0)">
            <path id="Tracé_2215" data-name="Tracé 2215" d="M125.852,58.046a2.323,2.323,0,0,0,1.735-.779l18.575-20.9a2.322,2.322,0,0,0,0-3.085l-18.575-20.9a2.322,2.322,0,0,0-1.735-.779H107.277V2.322A2.322,2.322,0,0,0,104.956,0H81.737a2.322,2.322,0,0,0-2.322,2.322v9.288H56.2a2.322,2.322,0,0,0-2.322,2.322V55.725A2.322,2.322,0,0,0,56.2,58.046H79.415v9.288H70.128a2.321,2.321,0,0,0-1.529.574L50.024,84.161a2.322,2.322,0,0,0,0,3.495L68.6,103.909a2.323,2.323,0,0,0,1.529.574h9.288v13.931a2.322,2.322,0,0,0,2.322,2.322h23.218a2.322,2.322,0,0,0,2.322-2.322V104.484H130.5a2.322,2.322,0,0,0,2.322-2.322V69.656a2.322,2.322,0,0,0-2.322-2.322H107.277V58.046ZM84.059,4.644h18.575v6.965H84.059Zm18.575,111.449H84.059V104.484h18.575Zm25.541-44.115V90.552h-6.965a2.322,2.322,0,1,0,0,4.644h6.965V99.84H71L55.078,85.909,71,71.977h57.174ZM84.059,67.334V58.046h18.575v9.288Zm20.9-13.931H58.518V48.759H70.128a2.322,2.322,0,1,0,0-4.644H58.518V16.253H124.81L141.32,34.828,124.81,53.4H104.955Z" transform="translate(-49.231)" fill="#64d88d"/>
          </g>
        </g>
        <g id="Groupe_1667" data-name="Groupe 1667" transform="translate(61.8 89.526)">
          <g id="Groupe_1666" data-name="Groupe 1666" transform="translate(0)">
            <path id="Tracé_2216" data-name="Tracé 2216" d="M320.98,386.405a2.8,2.8,0,0,0-.17-.557,2.918,2.918,0,0,0-.274-.516,2.9,2.9,0,0,0-.823-.823,2.96,2.96,0,0,0-.516-.274,2.8,2.8,0,0,0-.557-.17,3,3,0,0,0-2.689.814,2.858,2.858,0,0,0-.37.453,2.958,2.958,0,0,0-.274.516,2.8,2.8,0,0,0-.17.557,2.864,2.864,0,0,0,0,1.163,2.8,2.8,0,0,0,.17.557,2.918,2.918,0,0,0,.274.516,2.841,2.841,0,0,0,.37.453,3,3,0,0,0,2.108.874,2.934,2.934,0,0,0,.581-.057,3.025,3.025,0,0,0,.557-.173,2.751,2.751,0,0,0,.516-.274,2.842,2.842,0,0,0,.453-.37,3,3,0,0,0,.874-2.108A2.932,2.932,0,0,0,320.98,386.405Z" transform="translate(-315.077 -384.008)" fill="#64d88d"/>
          </g>
        </g>
        <g id="Groupe_1669" data-name="Groupe 1669" transform="translate(25.178 43.615)">
          <g id="Groupe_1668" data-name="Groupe 1668" transform="translate(0)">
            <path id="Tracé_2217" data-name="Tracé 2217" d="M163.441,189.48a2.8,2.8,0,0,0-.17-.557,2.918,2.918,0,0,0-.274-.516,2.895,2.895,0,0,0-.823-.823,3.035,3.035,0,0,0-.513-.274,3.121,3.121,0,0,0-.56-.17,2.936,2.936,0,0,0-1.163,0,3.018,3.018,0,0,0-.557.17,2.917,2.917,0,0,0-.516.274,2.895,2.895,0,0,0-.823.823,2.959,2.959,0,0,0-.274.516,2.8,2.8,0,0,0-.17.557,2.863,2.863,0,0,0,0,1.163,2.8,2.8,0,0,0,.17.557,2.918,2.918,0,0,0,.274.516,2.841,2.841,0,0,0,.37.453,3,3,0,0,0,2.108.874,2.937,2.937,0,0,0,.581-.06,2.893,2.893,0,0,0,.56-.17,3.012,3.012,0,0,0,.513-.274,2.9,2.9,0,0,0,.823-.823,2.959,2.959,0,0,0,.274-.516,2.8,2.8,0,0,0,.17-.557,2.862,2.862,0,0,0,0-1.163Z" transform="translate(-157.538 -187.082)" fill="#64d88d"/>
          </g>
        </g>
      </g>
    </g>
  </g>
</svg>


