<svg xmlns="http://www.w3.org/2000/svg"  viewBox="0 0 188.66 110.4">
  <g id="Groupe_1788" data-name="Groupe 1788" transform="translate(-1532 -3158.6)">
    <g id="Groupe_1442" data-name="Groupe 1442" transform="translate(1401 628)">
      <rect id="Rectangle_138" data-name="Rectangle 138" width="5" height="70" rx="2.5" transform="translate(257 2531)" fill="#64d88d"/>
      <rect id="Rectangle_139" data-name="Rectangle 139" width="5" height="30" rx="2.5" transform="translate(257 2611)" fill="#64d88d"/>
    </g>
    <path id="Tracé_2102" data-name="Tracé 2102" d="M26.95,74H38.92V64.9h5.74V54.54H38.92V23.6H25.55L3.43,55.24V64.9H26.95ZM16.03,54.54,27.79,36.76V54.54Z" transform="translate(1676 3135)" fill="#64d88d"/>
    <g id="Groupe_1675" data-name="Groupe 1675" transform="translate(27.99)">
      <rect id="Rectangle_231" data-name="Rectangle 231" width="110" height="110" transform="translate(1504.01 3159)" fill="#fcfcfc"/>
      <g id="Groupe_1674" data-name="Groupe 1674" transform="translate(1524.602 3158.95)">
        <g id="aid" transform="translate(0)">
          <g id="Groupe_1673" data-name="Groupe 1673" transform="translate(0 0)">
            <path id="Tracé_2228" data-name="Tracé 2228" d="M151.292,47.257c-3.711-4.835-7.24-9.435-9.326-14.714a7.006,7.006,0,0,0-.231-12.924,13.132,13.132,0,0,1,2.049-2.648c2.081-2.293,4.671-5.147,4.934-10.724A2.15,2.15,0,0,0,147.7,4.318a7.081,7.081,0,0,0-5.69-.712,9.891,9.891,0,0,1-3.35.223,5.128,5.128,0,0,1-2.919-1.447A9.278,9.278,0,0,0,130.654.015a2.167,2.167,0,0,0-.528,0,9.278,9.278,0,0,0-5.089,2.367,5.126,5.126,0,0,1-2.919,1.447,9.914,9.914,0,0,1-3.35-.223,7.08,7.08,0,0,0-5.69.712,2.15,2.15,0,0,0-1.015,1.928c.263,5.577,2.852,8.431,4.934,10.724a13.131,13.131,0,0,1,2.049,2.648,7.006,7.006,0,0,0-.358,12.866,41.1,41.1,0,0,1-4.2,7.8,2.15,2.15,0,1,0,3.576,2.387,43.788,43.788,0,0,0,4.976-9.534H137.6c2.269,6.289,6.339,11.594,10.285,16.736,6.195,8.07,12.6,16.415,12.6,29.078,0,24.186-21.044,26.8-30.092,26.8s-30.092-2.611-30.092-26.8c0-7.283,1.987-13.65,6.444-20.647A2.15,2.15,0,0,0,103.117,56C98.195,63.723,96,70.8,96,78.953A33.585,33.585,0,0,0,99.135,93.84a25.9,25.9,0,0,0,8.22,9.7c7.468,5.378,16.649,6.507,23.036,6.507s15.568-1.129,23.036-6.507a25.9,25.9,0,0,0,8.22-9.7,33.586,33.586,0,0,0,3.135-14.887c0-14.122-6.857-23.056-13.489-31.7ZM116.526,7.622a9.2,9.2,0,0,1,1.435.207,13.957,13.957,0,0,0,4.686.267,9.279,9.279,0,0,0,5.089-2.367,5.272,5.272,0,0,1,2.655-1.409,5.272,5.272,0,0,1,2.655,1.409A9.278,9.278,0,0,0,138.135,8.1a13.961,13.961,0,0,0,4.686-.267,9.229,9.229,0,0,1,1.435-.207c-.518,3-2.048,4.69-3.655,6.46a13.115,13.115,0,0,0-3.274,5.038H123.454a13.114,13.114,0,0,0-3.274-5.038C118.574,12.312,117.043,10.626,116.526,7.622Zm5.112,15.8h17.507a2.71,2.71,0,0,1,.013,5.42H121.637a2.71,2.71,0,1,1,0-5.42Z" transform="translate(-96 0.001)" fill="#64d88d"/>
            <path id="Tracé_2230" data-name="Tracé 2230" d="M155.85,223.573a2.149,2.149,0,0,0,0-4.3h0a2.149,2.149,0,0,0,0,4.3Z" transform="translate(-141.298 -172.143)" fill="#64d88d"/>
          </g>
        </g>
        <path id="Tracé_2231" data-name="Tracé 2231" d="M-39.136-106.228h2.487v-3.137c5.165-.459,8-4.056,8-7.767,0-5.395-4.17-6.428-8-7.346v-8.264a3.911,3.911,0,0,1,3.061,3.405h4.668c-.344-4.323-3.329-6.734-7.728-7.116v-3.1h-2.487v3.137c-4.744.421-8.034,3.367-8.034,7.652,0,5.395,4.209,6.466,8.034,7.422v8.417a3.812,3.812,0,0,1-3.367-3.711H-47.17c0,4.323,3.367,6.887,8.034,7.308Zm6.083-10.674a3.964,3.964,0,0,1-3.6,3.979v-7.767C-34.583-120.04-33.052-119.083-33.052-116.9Zm-9.68-12.09a3.7,3.7,0,0,1,3.6-3.864v7.728C-41.2-125.779-42.732-126.773-42.732-128.992Z" transform="translate(72.282 194.673)" fill="#64d88d"/>
      </g>
    </g>
  </g>
</svg>

