<svg xmlns="http://www.w3.org/2000/svg" width="134" height="134" viewBox="0 0 134 134">
  <g id="Groupe_1692" data-name="Groupe 1692" transform="translate(-272 -911)">
    <rect id="Rectangle_235" data-name="Rectangle 235" width="134" height="134" transform="translate(272 911)" fill="#fff"/>
    <g id="compass" transform="translate(278 916.118)">
      <path id="Tracé_2243" data-name="Tracé 2243" d="M231.933,386.768v4.2a5.735,5.735,0,0,0,11.469,0v-4.2a5.735,5.735,0,0,0-11.469,0Zm7.9,0v4.2a2.16,2.16,0,0,1-4.321,0v-4.2a2.16,2.16,0,0,1,4.321,0Z" transform="translate(-176.668 -290.241)" fill="#0961aa"/>
      <path id="Tracé_2249" data-name="Tracé 2249" d="M231.933,386.768v4.2a5.735,5.735,0,0,0,11.469,0v-4.2a5.735,5.735,0,0,0-11.469,0Zm7.9,0v4.2a2.16,2.16,0,0,1-4.321,0v-4.2a2.16,2.16,0,0,1,4.321,0Z" transform="translate(-176.668 -365.407)" fill="#0961aa"/>
      <path id="Tracé_2244" data-name="Tracé 2244" d="M81.683,237.668a5.741,5.741,0,0,0-5.735-5.734H72A5.734,5.734,0,1,0,72,243.4h3.948A5.741,5.741,0,0,0,81.683,237.668Zm-5.735,2.16H72a2.16,2.16,0,1,1,0-4.321h3.948a2.16,2.16,0,1,1,0,4.321Z" transform="translate(-50.476 -176.669)" fill="#0961aa"/>
      <path id="Tracé_2245" data-name="Tracé 2245" d="M390.715,243.4a5.734,5.734,0,1,0,0-11.469h-3.947a5.734,5.734,0,1,0,0,11.469Zm-6.108-5.734a2.163,2.163,0,0,1,2.16-2.16h3.947a2.16,2.16,0,1,1,0,4.321h-3.947A2.163,2.163,0,0,1,384.607,237.668Z" transform="translate(-290.24 -176.669)" fill="#0961aa"/>
      <path id="Tracé_2246" data-name="Tracé 2246" d="M171.781,173.647,159.22,201.282a2.779,2.779,0,0,0,2.517,3.926,2.792,2.792,0,0,0,1.156-.253l27.635-12.561h0a3.76,3.76,0,0,0,1.867-1.867l12.561-27.635a2.774,2.774,0,0,0-3.673-3.673l-27.635,12.562a3.76,3.76,0,0,0-1.867,1.867Zm2.493,3.153,13.1,13.1-24.018,10.917ZM189.9,187.373l-13.1-13.1,24.018-10.917Z" transform="translate(-121.088 -121.086)" fill="#0961aa"/>
      <path id="Tracé_2247" data-name="Tracé 2247" d="M104.133,17.866a61,61,0,0,0-83.586-2.525,1.787,1.787,0,0,0,2.371,2.675,57.42,57.42,0,1,1-4.9,4.9,1.787,1.787,0,1,0-2.674-2.371,61,61,0,1,0,88.792-2.682Z" transform="translate(0 0)" fill="#0961aa"/>
      <path id="Tracé_2248" data-name="Tracé 2248" d="M51.393,126.314a53.1,53.1,0,1,0-5.23-5.23,1.787,1.787,0,0,0,2.7-2.347,49.527,49.527,0,1,1,4.88,4.88,1.787,1.787,0,1,0-2.346,2.7Z" transform="translate(-25.238 -25.239)" fill="#0961aa"/>
    </g>
  </g>
</svg>
