<svg xmlns="http://www.w3.org/2000/svg" width="134" height="134" viewBox="0 0 134 134">
  <g id="Groupe_1694" data-name="Groupe 1694" transform="translate(-1100 -911)">
    <rect id="Rectangle_237" data-name="Rectangle 237" width="134" height="134" transform="translate(1100 911)" fill="#fff"/>
    <g id="team" transform="translate(1106 916)">
      <g id="Groupe_1684" data-name="Groupe 1684" transform="translate(0 0)">
        <path id="Tracé_2250" data-name="Tracé 2250" d="M120.242,67.9a1.787,1.787,0,0,0,1.788-1.788V61.737a11.432,11.432,0,0,0-11.419-11.419h-1.324a13.826,13.826,0,1,0-18.536,0H89.425a11.418,11.418,0,0,0-10.1,6.074q-.361-.113-.728-.212l-9.54-2.555V48.547a15.757,15.757,0,0,0,7.7-13.191h2.073A5.639,5.639,0,0,0,80.137,24.23V19.363a19.363,19.363,0,0,0-38.726,0v5.005A5.639,5.639,0,0,0,43.2,35.356h2.073a15.757,15.757,0,0,0,7.7,13.191v5.079l-9.54,2.555q-.367.1-.727.212a11.418,11.418,0,0,0-10.1-6.074H31.28a13.826,13.826,0,1,0-18.536,0H11.419A11.432,11.432,0,0,0,0,61.737v4.376a1.788,1.788,0,0,0,3.575,0V61.737a7.853,7.853,0,0,1,7.844-7.844H32.6a7.841,7.841,0,0,1,6.78,3.9,18.674,18.674,0,0,0-9.771,16.39v9.6H3.575V74.455a1.788,1.788,0,1,0-3.575,0V85.573a1.787,1.787,0,0,0,1.788,1.788h40.22a22.323,22.323,0,0,0-3.092,7.614,1.788,1.788,0,0,0,3.5.711,18.974,18.974,0,1,1,0,7.588,1.788,1.788,0,0,0-3.5.711A22.55,22.55,0,1,0,80.023,87.361h40.219a1.787,1.787,0,0,0,1.788-1.788V74.455a1.788,1.788,0,1,0-3.575,0v9.331H92.416v-9.6A18.675,18.675,0,0,0,82.645,57.8a7.841,7.841,0,0,1,6.78-3.9h21.186a7.853,7.853,0,0,1,7.844,7.844v4.376a1.787,1.787,0,0,0,1.788,1.788ZM11.761,40.069a10.25,10.25,0,1,1,10.287,10.25h-.073a10.262,10.262,0,0,1-10.214-10.25ZM57.221,62.09l-1.73,1.442a3.028,3.028,0,0,1-4.856-1.518l-1.048-3.783,3.7-.991a8.083,8.083,0,0,0,3.933,4.85Zm11.52-4.85,3.7.991L71.4,62.014a3.027,3.027,0,0,1-4.856,1.518l-1.73-1.442a8.082,8.082,0,0,0,3.932-4.85ZM80.9,29.716a2.067,2.067,0,0,1-2.065,2.065H76.767V27.651h2.065A2.067,2.067,0,0,1,80.9,29.716ZM44.986,19.363a15.788,15.788,0,1,1,31.576,0v4.713H70.645a3.031,3.031,0,0,1-3.028-3.028,1.788,1.788,0,1,0-3.575,0,3.031,3.031,0,0,1-3.028,3.028H44.986ZM41.134,29.716A2.067,2.067,0,0,1,43.2,27.651h2.064V31.78H43.2A2.067,2.067,0,0,1,41.134,29.716Zm7.7,5.3V27.651H61.015a6.585,6.585,0,0,0,4.815-2.09,6.586,6.586,0,0,0,4.815,2.09h2.546v7.361a12.177,12.177,0,0,1-24.353,0ZM61.015,50.764a15.7,15.7,0,0,0,4.472-.651V55a4.472,4.472,0,0,1-8.945,0V50.114A15.7,15.7,0,0,0,61.015,50.764ZM88.841,74.185v9.6H77.191a22.5,22.5,0,0,0-32.345,0H33.189v-9.6A15.089,15.089,0,0,1,44.353,59.634l1.78-.477,1.056,3.812a6.6,6.6,0,0,0,10.591,3.31l3.235-2.7,3.235,2.7a6.6,6.6,0,0,0,10.59-3.31L75.9,59.157l1.78.477A15.089,15.089,0,0,1,88.841,74.185Zm.927-34.117a10.25,10.25,0,1,1,10.287,10.25h-.073A10.262,10.262,0,0,1,89.768,40.069Z" transform="translate(0 0)" fill="#0961aa"/>
        <path id="Tracé_2251" data-name="Tracé 2251" d="M212.944,394.139a5.954,5.954,0,0,0,4.237-1.755l9.2-9.2a5.993,5.993,0,0,0-8.475-8.475l-4.961,4.961a5.993,5.993,0,0,0-8.443,8.507l4.205,4.205A5.953,5.953,0,0,0,212.944,394.139Zm-5.915-11.907a2.421,2.421,0,0,1,3.419,0l1.232,1.232a1.788,1.788,0,0,0,2.528,0l6.225-6.225a2.418,2.418,0,0,1,3.419,3.419l-9.2,9.2a2.418,2.418,0,0,1-3.419,0l-4.205-4.205a2.42,2.42,0,0,1,0-3.419Z" transform="translate(-154.426 -284.067)" fill="#0961aa"/>
      </g>
    </g>
  </g>
</svg>
