<svg xmlns="http://www.w3.org/2000/svg" width="155.431" height="46.23" viewBox="0 0 155.431 46.23">
  <g id="Groupe_1790" data-name="Groupe 1790" transform="translate(-103 -4373)">
    <path id="Tracé_1307" data-name="Tracé 1307" d="M228.2,594.448a8.724,8.724,0,0,1,6.008,6.292L242.764,586,228.2,594.448" transform="translate(-103.227 3789.587)" fill="#e0e0e0"/>
    <rect id="Rectangle_97" data-name="Rectangle 97" width="4.577" height="31.274" transform="translate(153.846 4382.879)" fill="#fff"/>
    <path id="Tracé_1308" data-name="Tracé 1308" d="M630.384,660.4c2.558,0,4.41.715,5.616,2.166a7.953,7.953,0,0,1,1.578,5.292v4.548a7.331,7.331,0,0,1-2.46,5.616l3.391,13.652h-4.93l-2.774-11.81c-.127,0-.265.029-.421.029h-2.607v11.771H623.2V660.4Zm2.754,7.547c0-1.8-.872-2.705-2.607-2.705H627.8v10.007h2.734a2.315,2.315,0,0,0,1.833-.813,2.578,2.578,0,0,0,.745-1.9v-4.577l.029-.01Z" transform="translate(-459.513 3722.479)" fill="#fff"/>
    <path id="Tracé_1309" data-name="Tracé 1309" d="M831.323,688.078a6.8,6.8,0,0,1-5.126-2.166,7.258,7.258,0,0,1-2.1-5.292V663.488a7.315,7.315,0,0,1,2.127-5.292,6.916,6.916,0,0,1,5.126-2.2,6.824,6.824,0,0,1,5.126,2.2,7.427,7.427,0,0,1,2.1,5.292v3.558h-4.734v-3.617a2.712,2.712,0,0,0-.784-1.931,2.558,2.558,0,0,0-1.872-.813,2.414,2.414,0,0,0-1.833.813,2.631,2.631,0,0,0-.784,1.931V680.61a2.6,2.6,0,0,0,.784,1.9,2.58,2.58,0,0,0,3.7,0,2.612,2.612,0,0,0,.784-1.9V676.3h4.734v4.332a7.315,7.315,0,0,1-2.127,5.292A6.859,6.859,0,0,1,831.323,688.078Z" transform="translate(-640.724 3726.448)" fill="#fff"/>
    <path id="Tracé_1310" data-name="Tracé 1310" d="M1026.738,678.443v13.221H1022.2V660.4h4.538v13.29h5.528V660.4h4.538v31.265h-4.538V678.443Z" transform="translate(-819.408 3722.479)" fill="#fff"/>
    <path id="Tracé_1311" data-name="Tracé 1311" d="M1228.961,684.381l-1.127,7.194H1223.1l5.126-31.274h6.292l5.067,31.274H1234.8l-1.1-7.194Zm2.382-16.906-1.705,12.329h3.391Z" transform="translate(-1000.619 3722.569)" fill="#fff"/>
    <path id="Tracé_1312" data-name="Tracé 1312" d="M1457.458,684.177a7.477,7.477,0,0,1-2.1,5.292,6.836,6.836,0,0,1-5.067,2.2H1443.1V660.4h7.194a6.853,6.853,0,0,1,5.1,2.2,7.408,7.408,0,0,1,2.1,5.263v16.318Zm-9.811,2.8h2.734a2.315,2.315,0,0,0,1.833-.813,2.821,2.821,0,0,0,.745-1.9V667.917a2.6,2.6,0,0,0-.784-1.9,2.538,2.538,0,0,0-1.833-.813h-2.734V686.99l.039-.01Z" transform="translate(-1199.057 3722.479)" fill="#fff"/>
    <path id="Tracé_1313" data-name="Tracé 1313" d="M93.088,855.747l-4-8.88c-1.068-2.362-4.871-4.067-9.066-4.067s-8,1.705-9.066,4.038l-4,8.919a2.129,2.129,0,0,0,.265,2.489c1.382,2.127,4.9,3.028,8.811,3.028h8.007c3.871,0,7.419-.9,8.811-3.028a2.219,2.219,0,0,0,.235-2.5" transform="translate(42.47 3557.956)" fill="#e0e0e0"/>
    <path id="Tracé_1314" data-name="Tracé 1314" d="M158.34,707.62a5.42,5.42,0,1,1-5.42-5.42,5.412,5.412,0,0,1,5.42,5.42" transform="translate(-30.436 3684.776)" fill="#fff"/>
    <path id="Tracé_1319" data-name="Tracé 1319" d="M23.484,564.059a15.15,15.15,0,0,1,5.39,1.029l4.548-2.646A18.986,18.986,0,0,0,23.4,559.6a19.409,19.409,0,0,0-12.467,34.273l1.509-3.362a4.584,4.584,0,0,1,.519-.9,14.949,14.949,0,0,1,10.526-25.551Z" transform="translate(99 3813.4)" fill="#fff"/>
    <path id="Tracé_1320" data-name="Tracé 1320" d="M314.109,663.8a14.346,14.346,0,0,1,.9,5.038,14.9,14.9,0,0,1-4.41,10.624,8.256,8.256,0,0,1,.519.9l1.451,3.224a19.345,19.345,0,0,0,6.8-14.74,19.142,19.142,0,0,0-2.578-9.644Z" transform="translate(-177.551 3723.562)" fill="#e0e0e0"/>
  </g>
</svg>
