<svg xmlns="http://www.w3.org/2000/svg" width="122" height="30.649" viewBox="0 0 122 30.649">
  <g id="indh_color" data-name="indh color" transform="translate(-141.73 -713.93)">
    <rect id="Rectangle_156" data-name="Rectangle 156" width="122" height="1.988" transform="translate(141.73 742.591)" fill="#73bd85"/>
    <g id="Groupe_1445" data-name="Groupe 1445" transform="translate(141.763 713.93)">
      <path id="Tracé_2105" data-name="Tracé 2105" d="M8619.72,1110.915a1.817,1.817,0,0,0,.931,1.57c.384.112.876-.9.876-.9a2.33,2.33,0,0,0-.547-.392c-.329-.168-.6-.841-.6-.841l-.219-4.934.108-.393-.711-1.177-.767,1.234c.711,1.01.657,1.234.657,1.234S8619.61,1109.962,8619.72,1110.915Z" transform="translate(-8501.131 -1098.436)" fill="#2867b1"/>
      <path id="Tracé_2106" data-name="Tracé 2106" d="M7886.411,1082.121c-.329.392-.493-.168-.493-.168s0-3.757-.055-4.318a1.755,1.755,0,0,0-.165-.729l-.766-1.01-.821,1.234,1.04,1.122v4.093a1.261,1.261,0,0,1-1.2,1.346,1.305,1.305,0,0,1-1.149-.673c0-.448-.6-.281-.6-.281s-.767.785-.986.785c-1.422.785-1.915-.449-1.915-.449s.055-4.43,0-5.383a3.406,3.406,0,0,0-.6-2.131,20.093,20.093,0,0,0-1.094,1.851c.821.617.821.953.821.953v4.71l-.6.9,1.149,1.066.274-.28a9.533,9.533,0,0,1,1.094-.056,1.359,1.359,0,0,0,1.369-.785c.273-.449.711.112.821.336,0,.392.438.393.438.393s.711-.056.985-.056a1.136,1.136,0,0,0,.876-.617c.493-.673.493.28.712.449.218.617.875.337,1.149.168a4.6,4.6,0,0,0,1.149-1.851C7887.888,1081.224,7886.793,1081.785,7886.411,1082.121Zm-.329,1.009s.985-.785,1.04.112C7887.067,1083.635,7886.411,1084.252,7886.082,1083.13Z" transform="translate(-7770.23 -1070.539)" fill="#2867b1"/>
      <path id="Tracé_2107" data-name="Tracé 2107" d="M7386.588,1116.437c-1.095.561-2.682-.9-3.12-1.346-1.314-2.131.438-4.094.712-4.43.109-.5-.493-.224-.493-.224s-.493.673-1.04,1.346c-1.2,2.075.438,4.262.711,4.654a1.9,1.9,0,0,1,.493.785,2.164,2.164,0,0,1-1.861,0c-.931-.056-1.149,1.29-1.149,1.29h2.079l.055.729.383.168,1.149-1.57s1.751.112,2.244.056C7387.9,1117.11,7386.971,1116.549,7386.588,1116.437Z" transform="translate(-7280.369 -1104.855)" fill="#2867b1"/>
      <path id="Tracé_2108" data-name="Tracé 2108" d="M7010.918,1523.9c-.547.336-2.025,1.234-2.189,1.851-.165.673-.656,1.738-.055,2.523.11.28.273,1.066-.766.5-.493-.168-1.423-1.626-1.588-1.57a3.176,3.176,0,0,0,2.956,3.084c.438,0,1.587-.056.273-1.57-.492-.729-1.148-1.345-.218-2.692.492-.5.875-.953,1.2-.841l.491.617S7012.451,1524.068,7010.918,1523.9Z" transform="translate(-6911.048 -1512.655)" fill="#2867b1"/>
      <path id="Tracé_2109" data-name="Tracé 2109" d="M6853.756,1112.636a11.036,11.036,0,0,0-1.259,2.692c-.054,2.131,2.08.953,2.08.953l.876-1.4.109-5.776-.657-1.234-.766,1.122.875,1.178s-.109,1.626-.109,2.075A4.629,4.629,0,0,0,6853.756,1112.636Zm.438,2.86c-.329.224-.986-.168-1.1-.785,0,0-.11-1.4,1.369-1.01C6854.741,1114.095,6855.234,1114.992,6854.194,1115.5Z" transform="translate(-6759.36 -1102.401)" fill="#2867b1"/>
      <path id="Tracé_2110" data-name="Tracé 2110" d="M8150.834,1783.175l-.656-.785-.548.673.6.673Z" transform="translate(-8038.485 -1767.556)" fill="#2867b1"/>
      <path id="Tracé_2111" data-name="Tracé 2111" d="M6761.91,1148.953l.6.673.6-.561-.657-.785Z" transform="translate(-6670.031 -1142.25)" fill="#2867b1"/>
      <path id="Tracé_2112" data-name="Tracé 2112" d="M6765.85,1257.993l.6.673.6-.561-.657-.785Z" transform="translate(-6673.917 -1249.776)" fill="#2867b1"/>
      <path id="Tracé_2113" data-name="Tracé 2113" d="M5114.571,1816.036l.6-.561-.657-.785-.547.673Z" transform="translate(-5044.971 -1799.407)" fill="#2867b1"/>
      <path id="Tracé_2114" data-name="Tracé 2114" d="M4984.418,1814.69l-.548.673.6.673.6-.561Z" transform="translate(-4916.677 -1799.407)" fill="#2867b1"/>
      <path id="Tracé_2115" data-name="Tracé 2115" d="M5248.557,1313.85l-.547.673.6.673.6-.561Z" transform="translate(-5177.149 -1305.521)" fill="#2867b1"/>
      <path id="Tracé_2116" data-name="Tracé 2116" d="M4573.87,1140.843l.6.673.6-.561-.657-.785Z" transform="translate(-4512.369 -1134.252)" fill="#2867b1"/>
      <path id="Tracé_2117" data-name="Tracé 2117" d="M3932.464,1334.825l-.657-.785-.548.673.6.673Z" transform="translate(-3878.68 -1325.431)" fill="#2867b1"/>
      <path id="Tracé_2118" data-name="Tracé 2118" d="M3817.487,1334.04l-.547.673.6.673.6-.561Z" transform="translate(-3765.948 -1325.431)" fill="#2867b1"/>
      <path id="Tracé_2119" data-name="Tracé 2119" d="M3628.914,1334.825l-.657-.785-.547.673.6.673Z" transform="translate(-3579.345 -1325.431)" fill="#2867b1"/>
      <path id="Tracé_2120" data-name="Tracé 2120" d="M3108.5,1819.5l-.657-.785-.547.673.6.673Z" transform="translate(-3066.16 -1803.382)" fill="#2867b1"/>
      <path id="Tracé_2121" data-name="Tracé 2121" d="M2989.587,1818.72l-.547.673.6.673.6-.561Z" transform="translate(-2949.542 -1803.382)" fill="#2867b1"/>
      <path id="Tracé_2122" data-name="Tracé 2122" d="M2638.762,1234.416l.6-.561-.657-.785-.547.673Z" transform="translate(-2603.533 -1225.862)" fill="#2867b1"/>
      <path id="Tracé_2123" data-name="Tracé 2123" d="M1839.074,1835.655l-.657-.785-.547.673.6.673Z" transform="translate(-1814.354 -1819.307)" fill="#2867b1"/>
      <path id="Tracé_2124" data-name="Tracé 2124" d="M864.7,1824.116l.6-.561-.657-.785-.547.673Z" transform="translate(-854.104 -1807.375)" fill="#2867b1"/>
      <path id="Tracé_2125" data-name="Tracé 2125" d="M750.327,1822.77l-.547.673.6.673.6-.561Z" transform="translate(-741.371 -1807.375)" fill="#2867b1"/>
      <path id="Tracé_2126" data-name="Tracé 2126" d="M312.792,1234.416l.6-.561-.657-.785-.547.673Z" transform="translate(-309.856 -1225.862)" fill="#2867b1"/>
      <path id="Tracé_2127" data-name="Tracé 2127" d="M313.394,1124.8l-.657-.785-.547.673.6.673Z" transform="translate(-309.856 -1118.317)" fill="#2867b1"/>
      <path id="Tracé_2128" data-name="Tracé 2128" d="M1673.484,1330.775l-.657-.785-.547.673.6.673Z" transform="translate(-1651.063 -1321.437)" fill="#2867b1"/>
      <path id="Tracé_2129" data-name="Tracé 2129" d="M1617.11,1189.3l.6.673.6-.561-.657-.785Z" transform="translate(-1596.659 -1182.039)" fill="#2867b1"/>
      <path id="Tracé_2130" data-name="Tracé 2130" d="M1557.96,1326.643l.6.673.6-.561-.657-.785Z" transform="translate(-1538.33 -1317.473)" fill="#2867b1"/>
      <path id="Tracé_2131" data-name="Tracé 2131" d="M2643.324,1127.535l-.657-.785-.547.673.6.673Z" transform="translate(-2607.438 -1121.019)" fill="#2867b1"/>
      <path id="Tracé_2132" data-name="Tracé 2132" d="M4577.81,1249.9l.6.673.6-.561-.657-.785Z" transform="translate(-4516.254 -1241.798)" fill="#2867b1"/>
      <path id="Tracé_2133" data-name="Tracé 2133" d="M6497.75,1101.238a1.778,1.778,0,0,1,.493,1.121l-.164,5.271.657.841.712-.953-.657-.729.164-7.01Z" transform="translate(-6409.539 -1094.423)" fill="#2867b1"/>
      <path id="Tracé_2134" data-name="Tracé 2134" d="M5645.318,1118.929s.055-4.766.055-5.664a1.606,1.606,0,0,0-.657-1.346l-.657,1.29c.767.448.711.729.711.729s.109,3.925-.055,5.1c-.273,1.121-1.041.281-.985.112s-.274-.393-.93-1.065c-1.532-1.29-2.244.729-2.518,1.514a.933.933,0,0,0,1.04,1.121s1.423.056,1.751.112a13.542,13.542,0,0,1-2.3,2.523c-2.462,2.356-5.474.5-6.4,0,2.9,3.42,5.583,1.626,5.967,1.4,2.08-.841,3.393-4.15,3.393-4.15a3.354,3.354,0,0,0,.657-.168C5645.428,1120.219,5645.318,1118.929,5645.318,1118.929Zm-3.23.673s-1.478.841-.931-.841C5641.541,1118.593,5642.744,1118.761,5642.088,1119.6Z" transform="translate(-5558.146 -1106.395)" fill="#2867b1"/>
      <path id="Tracé_2135" data-name="Tracé 2135" d="M4524.139,1076.8l1.041.168,1.259-.785.766.9,1.314-.056,1.258-1.178.712,1.29h7.553a8.036,8.036,0,0,0,1.094-1.4,1.022,1.022,0,0,0-.329-1.4,9.6,9.6,0,0,0-1.861-1.57c.547-.28.767-2.187.821-2.524a5.024,5.024,0,0,0-.383-1.963c-2.025-.673-1.751,1.178-1.751,1.178.11.841.931.617,1.313.5.766,1.907-.383,2.86-1.041,3.028-.875-.28-4.378,2.8-4.378,2.8a3.744,3.744,0,0,1-1.259-.785c.164-1.066-.548-.28-.875.056-1.807,1.738-2.245.112-2.3-.393,0-.561-.437-.112-.712.168-1.533,2.187-2.244-.112-2.244-.112l-.328-7.234a14.665,14.665,0,0,1-1.1,1.29,6.583,6.583,0,0,1,.821,2.243,2.372,2.372,0,0,1-1.2,2.355,2.569,2.569,0,0,1-2.518.673c-1.15,0-1.095.673-1.2,1.346.165.729.712.561,1.2.337,1.04-.337,1.7.729,1.916,1.177.055.448.492,0,.492,0l1.2-1.233Zm13.136-2.467c.6.673.875,1.346.493,1.346a16.091,16.091,0,0,1-2.354,0l.656-1.346A1.012,1.012,0,0,1,4537.275,1074.331Zm-1.313-.392a11.08,11.08,0,0,1-.93,1.851l-2.518-.056S4535.141,1073.322,4535.961,1073.938Zm-13.081,1.29s-1.642.841-.931-.729c.493-.448.876-.729.876-.729s.875-.617.711.561A2.344,2.344,0,0,1,4522.88,1075.228Z" transform="translate(-4457.876 -1062.581)" fill="#2867b1"/>
      <path id="Tracé_2136" data-name="Tracé 2136" d="M2549.791,1099.177l.6.729s.219,3.757.11,4.6c-.547,2.8-1.916-.168-1.916-.168l-.164-6.617-1.149,1.57.547.561s.055,3.028.219,4.542c-1.423,2.523-2.518.448-2.737.056-2.736,2.355-3.065.448-3.339-.056-2.244,2.523-3.01.5-3.12,0-.985-1.794-1.861-.561-2.354-.168-1.806,2.692-2.244.336-2.518-.056-2.682,3.2-2.846-.168-2.846-.168l.274-4.318a17.69,17.69,0,0,0-.164-1.794c-.766-.841-1.095,1.234-.876,1.963.876,1.794-.109,2.579-.109,2.579s-.493.393-1.15.953c-.93.729-1.2.953-1.642.729-.985-.841-1.094.112-1.478.673-.383.617.11.9.657.785.6-.28,2.244,1.4,2.627,1.738a3.374,3.374,0,0,1,1.259-1.738c1.313,2.411,2.737.561,3.065-.112,1.04,2.3,1.971.9,2.408.561,1.369,2.075,2.955.673,2.955.673h1.314a9.742,9.742,0,0,0,1.259-.841c.93,2.131,2.518.617,3.12,0,1.095,2.3,2.9.392,3.339-.056,2.463,3.14,3.229-.9,3.229-.9l-.384-6.953Zm-20.306,6.561-.986-.785,1.314-1.346s.6-.785.657.28l.055.561Zm7.334-.5s1.368-1.57,1.368.056C2538.078,1105.737,2537.257,1106.41,2536.819,1105.232Z" transform="translate(-2492.779 -1092.361)" fill="#2867b1"/>
      <path id="Tracé_2137" data-name="Tracé 2137" d="M2268.237,1103.84l-.657.953a4.274,4.274,0,0,1,.6,1.346s-.219,3.084-.219,4.71c-.109,1.626.876,1.794.876,1.794s.384-.561.547-.841c-.274-.112-.656-1.29-.656-1.29s.109-3.645.054-4.822A2.317,2.317,0,0,0,2268.237,1103.84Z" transform="translate(-2238.098 -1098.427)" fill="#2867b1"/>
      <path id="Tracé_2138" data-name="Tracé 2138" d="M1002.591,1114.1l-.438-6.224L1001,1109l.876,1.234s-.109,2.131-.055,4.262c-.274,2.86-2.408.617-2.737.224-1.587,1.794-2.3.617-2.627,0-1.313,2.467-1.478.673-1.7.392,0-.729-.274-.112-.821.168-2.627,1.57-1.7-.337-1.423-.673-.438-.729-2.189.673-3.339,1.57-1.7,2.355.164,3.7.164,3.7a.57.57,0,0,1-.328.28c-1.2.168-2.354-1.851-2.737-2.355.438,4.15,3.777,3.589,3.941,3.308.164-1.738-.164-2.075-.712-2.692-1.752-1.458,1.04-2.355,1.478-2.524,1.04,2.075,2.956.561,3.339.168a1.178,1.178,0,0,0,1.7.729c0-.337.328-.168.657-.224.274.337,1.314.056,1.478-.393.547-1.29,1.533.561,2.025.785C1002.482,1116.964,1002.591,1114.1,1002.591,1114.1Z" transform="translate(-974.588 -1102.411)" fill="#2867b1"/>
      <path id="Tracé_2139" data-name="Tracé 2139" d="M264.113,1107.118l4.926-.112.985-1.795-.93-1.4-.438.785c.766,1.514-.164,1.233-.164,1.233s-2.956.056-4.1,0c-1.259.056-1.04-.729-1.04-.729s.109-5.776.055-6.729c-.93-1.682-1.368,1.065-1.368,1.065s.492.729.711,1.122a10.054,10.054,0,0,1-.383,1.626s-1.2,1.4-1.588,1.794-.383.5-.766.336c-1.806-1.346-1.478,1.29-1.423,1.795,1.259-.841,2.408.729,2.682,1.009,0-.5,1.04-1.234,1.368-1.514C262.635,1106.894,264.113,1107.118,264.113,1107.118Zm-2.244-1.57c-.328.673-1.04-.224-1.04-.224s.547-.953.985-1.795c1.04-1.009.821-.056.93.5A1.652,1.652,0,0,1,261.869,1105.547Z" transform="translate(-256.937 -1092.495)" fill="#2867b1"/>
      <path id="Tracé_2140" data-name="Tracé 2140" d="M144.08,2267.229l1.214.007.027-4.659-1.214-.008Z" transform="translate(-144.08 -2241.07)" fill="#2867b1"/>
      <path id="Tracé_2141" data-name="Tracé 2141" d="M263.743,2326.819c-.293,0-.672.14-.743.368h-.017l0-.327-1.093-.007-.022,3.744,1.093.007.017-2.913a.177.177,0,0,1,.19-.195.184.184,0,0,1,.2.2l-.017,2.912,1.093.007.018-2.971C264.464,2327.21,264.44,2326.823,263.743,2326.819Z" transform="translate(-260.235 -2304.427)" fill="#2867b1"/>
      <path id="Tracé_2142" data-name="Tracé 2142" d="M471.86,2265.317l1.093.007,0-.707-1.093-.007Z" transform="translate(-467.309 -2243.081)" fill="#2867b1"/>
      <path id="Tracé_2143" data-name="Tracé 2143" d="M470.17,2334.313l1.093.007.022-3.743-1.093-.007Z" transform="translate(-465.643 -2308.125)" fill="#2867b1"/>
      <path id="Tracé_2144" data-name="Tracé 2144" d="M565.886,2283.6l.3,0,0-.615-.3,0,0-.68-1.093-.007,0,.68H564.5l0,.614.293,0-.014,2.369c0,.576.133.76.916.764l.49,0,0-.615h-.129c-.163,0-.188-.139-.187-.256Z" transform="translate(-558.663 -2260.526)" fill="#2867b1"/>
      <path id="Tracé_2145" data-name="Tracé 2145" d="M700.15,2335.733l1.093.007.022-3.743-1.093-.007Z" transform="translate(-692.43 -2309.526)" fill="#2867b1"/>
      <path id="Tracé_2146" data-name="Tracé 2146" d="M701.83,2266.747l1.093.007,0-.707-1.093-.007Z" transform="translate(-694.087 -2244.491)" fill="#2867b1"/>
      <path id="Tracé_2147" data-name="Tracé 2147" d="M815.135,2330.768c0-.562-.6-.848-1.286-.852s-1.284.274-1.287.836l0,.5,1.093.007,0-.536a.178.178,0,0,1,.191-.2.184.184,0,0,1,.2.2v.15c0,.812-1.483.443-1.489,1.385l0,.805c0,.425.177.675.727.678a.753.753,0,0,0,.734-.421h.017l.058.381,1.11.007a7.291,7.291,0,0,1-.073-.76Zm-1.106,2.172a.184.184,0,0,1-.2.2.177.177,0,0,1-.188-.2l0-.681c0-.163.036-.189.191-.293l.2-.1Z" transform="translate(-803.267 -2307.48)" fill="#2867b1"/>
      <path id="Tracé_2148" data-name="Tracé 2148" d="M1020.326,2286.312l.3,0,0-.615-.3,0,0-.68-1.093-.007,0,.681-.292,0,0,.616h.293l-.014,2.369c0,.576.133.76.916.765l.491,0,0-.615h-.129c-.164,0-.189-.139-.188-.256Z" transform="translate(-1006.794 -2263.198)" fill="#2867b1"/>
      <path id="Tracé_2149" data-name="Tracé 2149" d="M1156.29,2269.457l1.093.007,0-.707-1.093-.007Z" transform="translate(-1142.237 -2247.164)" fill="#2867b1"/>
      <path id="Tracé_2150" data-name="Tracé 2150" d="M1154.59,2338.453l1.093.007.022-3.743-1.093-.007Z" transform="translate(-1140.561 -2312.208)" fill="#2867b1"/>
      <path id="Tracé_2151" data-name="Tracé 2151" d="M1251.832,2338.2h-.017l-.267-2.861-1.128-.007.7,3.747,1.334.008.737-3.739-1-.006Z" transform="translate(-1235.06 -2312.819)" fill="#2867b1"/>
      <path id="Tracé_2152" data-name="Tracé 2152" d="M1464.309,2333.926c-.7,0-1.284.273-1.287.836l-.013,2.147c0,.562.58.847,1.277.852s1.293-.273,1.3-.836l0-.687-1.093-.007,0,.72a.185.185,0,0,1-.2.2.178.178,0,0,1-.188-.2l.006-.975,1.48.01.007-1.2C1465.6,2334.216,1465,2333.93,1464.309,2333.926Zm.189,1.487-.387,0,0-.673a.178.178,0,0,1,.191-.2.185.185,0,0,1,.2.2Z" transform="translate(-1444.698 -2311.435)" fill="#2867b1"/>
      <path id="Tracé_2153" data-name="Tracé 2153" d="M1753.571,2275.728h-.016l-.544-3.027-1.526-.01-.025,4.659.856.005.02-3.651.016-.013.759,3.67,1.308.009.025-4.659-.856-.006Z" transform="translate(-1729.144 -2251.049)" fill="#2867b1"/>
      <path id="Tracé_2154" data-name="Tracé 2154" d="M1992.016,2338.4c0-.562-.6-.847-1.286-.852s-1.284.274-1.287.836l0,.5,1.093.008,0-.537a.178.178,0,0,1,.191-.2.184.184,0,0,1,.2.2v.15c0,.812-1.483.442-1.489,1.385l0,.805c0,.425.177.675.727.678a.753.753,0,0,0,.734-.421h.017l.058.38,1.11.007a7.294,7.294,0,0,1-.073-.76Zm-1.106,2.173a.184.184,0,0,1-.2.195.177.177,0,0,1-.188-.2l0-.681c0-.163.035-.189.191-.293l.2-.1Z" transform="translate(-1963.808 -2315.005)" fill="#2867b1"/>
      <path id="Tracé_2155" data-name="Tracé 2155" d="M2189.666,2293.932h.3l0-.615h-.3l0-.68-1.094-.008,0,.68h-.293l0,.615.293,0-.014,2.368c0,.576.133.76.916.765l.491,0,0-.615h-.129c-.163,0-.188-.138-.187-.256Z" transform="translate(-2159.899 -2270.712)" fill="#2867b1"/>
      <rect id="Rectangle_157" data-name="Rectangle 157" width="3.743" height="1.093" transform="translate(30.265 26.351) rotate(-89.66)" fill="#2867b1"/>
      <rect id="Rectangle_158" data-name="Rectangle 158" width="0.707" height="1.093" transform="matrix(0.006, -1, 1, 0.006, 30.288, 22.399)" fill="#2867b1"/>
      <path id="Tracé_2156" data-name="Tracé 2156" d="M2427.24,2340.276c-.7,0-1.284.273-1.288.836l-.013,2.146c0,.563.58.848,1.277.852s1.293-.273,1.3-.836l.013-2.147C2428.529,2340.566,2427.928,2340.28,2427.24,2340.276Zm.18,3.025a.184.184,0,0,1-.2.2.179.179,0,0,1-.188-.2l.013-2.211a.178.178,0,0,1,.191-.2.185.185,0,0,1,.2.2Z" transform="translate(-2394.259 -2317.697)" fill="#2867b1"/>
      <path id="Tracé_2157" data-name="Tracé 2157" d="M2632.823,2341.829c-.292,0-.672.139-.742.368h-.017l0-.328-1.094-.007-.022,3.744,1.093.006.018-2.912a.177.177,0,0,1,.191-.195.185.185,0,0,1,.2.2l-.017,2.912,1.093.007.018-2.97C2633.544,2342.219,2633.52,2341.833,2632.823,2341.829Z" transform="translate(-2596.423 -2319.228)" fill="#2867b1"/>
      <path id="Tracé_2158" data-name="Tracé 2158" d="M2840.335,2343.678c0-.562-.6-.847-1.286-.852s-1.284.274-1.287.836l0,.5,1.093.007,0-.536a.177.177,0,0,1,.191-.195.184.184,0,0,1,.2.2v.15c0,.812-1.483.442-1.489,1.385l0,.8c0,.425.176.675.727.679a.753.753,0,0,0,.734-.421h.018l.058.38,1.11.007a7.263,7.263,0,0,1-.073-.76Zm-1.106,2.173a.184.184,0,0,1-.2.195.178.178,0,0,1-.188-.2l0-.68c0-.164.035-.189.192-.293l.2-.1Z" transform="translate(-2800.351 -2320.211)" fill="#2867b1"/>
      <rect id="Rectangle_159" data-name="Rectangle 159" width="4.659" height="1.093" transform="matrix(0.006, -1, 1, 0.006, 40.284, 26.413)" fill="#2867b1"/>
      <path id="Tracé_2159" data-name="Tracé 2159" d="M3149.039,2344.8c-.7,0-1.284.273-1.287.835l-.013,2.147c0,.562.58.847,1.277.852s1.293-.273,1.3-.836l0-.687-1.093-.007,0,.72a.185.185,0,0,1-.2.2.178.178,0,0,1-.188-.2l.006-.975,1.48.01.007-1.2C3150.328,2345.085,3149.728,2344.8,3149.039,2344.8Zm.189,1.486-.387,0,0-.674a.178.178,0,0,1,.191-.2.184.184,0,0,1,.2.2Z" transform="translate(-3106.038 -2322.154)" fill="#2867b1"/>
      <path id="Tracé_2160" data-name="Tracé 2160" d="M3429.24,2347.009a.662.662,0,0,0-.675.434h-.017l0-.393-1.093-.007-.027,4.581,1.093.007.007-1.165h.017a.679.679,0,0,0,.669.377c.679,0,.794-.394.8-.813l.013-2.179C3430.028,2347.433,3429.919,2347.014,3429.24,2347.009Zm-.319,2.956a.185.185,0,0,1-.2.195.178.178,0,0,1-.189-.2l.013-2.081a.178.178,0,0,1,.191-.2.185.185,0,0,1,.2.2Z" transform="translate(-3381.845 -2324.336)" fill="#2867b1"/>
      <path id="Tracé_2161" data-name="Tracé 2161" d="M3634.56,2348.066c-.7,0-1.285.274-1.288.836l-.013,2.146c0,.563.58.848,1.278.852s1.292-.274,1.3-.836l.013-2.147C3635.849,2348.356,3635.249,2348.071,3634.56,2348.066Zm.18,3.025a.184.184,0,0,1-.2.195.178.178,0,0,1-.188-.2l.013-2.211a.177.177,0,0,1,.191-.2.184.184,0,0,1,.2.2Z" transform="translate(-3584.817 -2325.379)" fill="#2867b1"/>
      <path id="Tracé_2162" data-name="Tracé 2162" d="M3863.76,2354.991a.184.184,0,0,1-.2.195.178.178,0,0,1-.188-.2l.017-2.912-1.093-.007-.019,3.121c0,.393.194.669.762.673.327,0,.7-.206.7-.461h.017l0,.419,1.093.007.022-3.743-1.093-.007Z" transform="translate(-3810.657 -2329.327)" fill="#2867b1"/>
      <path id="Tracé_2163" data-name="Tracé 2163" d="M4088.435,2350.917a.886.886,0,0,0-.785.362h-.017l0-.321-1.093-.007-.022,3.743,1.093.007.017-2.913a.178.178,0,0,1,.191-.195.185.185,0,0,1,.2.2l-.007,1.185,1.093.007.009-1.407C4089.114,2351.17,4088.978,2350.921,4088.435,2350.917Z" transform="translate(-4031.785 -2328.19)" fill="#2867b1"/>
      <rect id="Rectangle_160" data-name="Rectangle 160" width="4.659" height="1.093" transform="matrix(0.006, -1, 1, 0.006, 58.686, 26.531)" fill="#2867b1"/>
      <path id="Tracé_2164" data-name="Tracé 2164" d="M4474.519,2353.267c-.7,0-1.284.274-1.287.836l-.013,2.146c0,.563.58.848,1.278.853s1.292-.273,1.3-.836l0-.687-1.092-.007,0,.72a.184.184,0,0,1-.2.195.177.177,0,0,1-.188-.2l.006-.975,1.48.01.007-1.2C4475.808,2353.557,4475.207,2353.271,4474.519,2353.267Zm.189,1.487-.387,0,0-.674a.178.178,0,0,1,.191-.2.185.185,0,0,1,.2.2Z" transform="translate(-4413.115 -2330.507)" fill="#2867b1"/>
      <path id="Tracé_2165" data-name="Tracé 2165" d="M4807.676,2292.029l-1.429-.009-.027,4.659,1.428.009c.749,0,1.431-.22,1.434-.842l.018-2.958C4809.1,2292.267,4808.425,2292.033,4807.676,2292.029Zm.194,3.685c0,.131-.029.307-.218.306h-.215l.02-3.324.215,0c.19,0,.214.178.214.309Z" transform="translate(-4741.493 -2270.111)" fill="#2867b1"/>
      <path id="Tracé_2166" data-name="Tracé 2166" d="M5031.479,2356.706c-.7,0-1.285.274-1.288.836l-.013,2.146c0,.563.58.848,1.277.852s1.292-.273,1.295-.836l0-.687-1.093-.006,0,.72a.186.186,0,0,1-.2.2.177.177,0,0,1-.187-.2l.006-.974,1.479.009.008-1.2C5032.768,2357,5032.167,2356.71,5031.479,2356.706Zm.188,1.487-.388,0,0-.674a.178.178,0,0,1,.191-.2.185.185,0,0,1,.2.2Z" transform="translate(-4962.343 -2333.899)" fill="#2867b1"/>
      <path id="Tracé_2167" data-name="Tracé 2167" d="M5097.9,2274.839l.473,0,1.184-.877-.835,0Z" transform="translate(-5029.124 -2252.301)" fill="#2867b1"/>
      <path id="Tracé_2168" data-name="Tracé 2168" d="M5232.144,2360.681l-.361,2.858h-.018l-.267-2.862-1.128-.007.7,3.747,1.334.008.736-3.738Z" transform="translate(-5159.754 -2337.807)" fill="#2867b1"/>
      <path id="Tracé_2169" data-name="Tracé 2169" d="M5426.25,2359.276c-.7,0-1.285.273-1.288.836l-.013,2.146c0,.563.58.848,1.278.853s1.292-.273,1.3-.835l0-.687-1.093-.007,0,.72a.185.185,0,0,1-.2.195.178.178,0,0,1-.188-.2l.006-.975,1.48.009.007-1.2C5427.539,2359.566,5426.938,2359.28,5426.25,2359.276Zm.188,1.487-.387,0,0-.674a.178.178,0,0,1,.191-.2.185.185,0,0,1,.2.2Z" transform="translate(-5351.632 -2336.433)" fill="#2867b1"/>
      <rect id="Rectangle_161" data-name="Rectangle 161" width="4.659" height="1.093" transform="translate(76.364 26.64) rotate(-89.642)" fill="#2867b1"/>
      <path id="Tracé_2170" data-name="Tracé 2170" d="M5747.77,2361.187c-.7,0-1.285.274-1.288.836l-.013,2.147c0,.562.58.848,1.277.852s1.293-.274,1.3-.836l.012-2.146C5749.059,2361.477,5748.458,2361.192,5747.77,2361.187Zm.179,3.024a.184.184,0,0,1-.2.2.177.177,0,0,1-.188-.2l.013-2.212a.178.178,0,0,1,.191-.2.184.184,0,0,1,.2.2Z" transform="translate(-5668.688 -2338.317)" fill="#2867b1"/>
      <path id="Tracé_2171" data-name="Tracé 2171" d="M5955.269,2362.738a.66.66,0,0,0-.674.434h-.017l0-.393-1.093-.007-.027,4.581,1.093.007.008-1.165h.017a.678.678,0,0,0,.669.377c.679,0,.793-.394.8-.813l.014-2.179C5956.057,2363.162,5955.948,2362.742,5955.269,2362.738Zm-.318,2.956a.185.185,0,0,1-.2.195.177.177,0,0,1-.188-.2l.012-2.08a.178.178,0,0,1,.191-.195.184.184,0,0,1,.2.2Z" transform="translate(-5872.805 -2339.847)" fill="#2867b1"/>
      <path id="Tracé_2172" data-name="Tracé 2172" d="M6179.72,2371.75a.661.661,0,0,0-.675.435h-.017l0-.392-1.093-.007-.027,4.581,1.093.007.007-1.165h.017a.679.679,0,0,0,.669.377c.679,0,.793-.395.8-.813l.013-2.18C6180.508,2372.174,6180.4,2371.754,6179.72,2371.75Zm-.319,2.956a.185.185,0,0,1-.2.2.178.178,0,0,1-.189-.2l.013-2.081a.178.178,0,0,1,.191-.2.184.184,0,0,1,.2.2Z" transform="translate(-6094.139 -2348.733)" fill="#2867b1"/>
      <path id="Tracé_2173" data-name="Tracé 2173" d="M6397.279,2365.046c-.7,0-1.284.273-1.288.836l-.013,2.146c0,.563.58.848,1.278.853s1.292-.274,1.295-.836l0-.687-1.093-.007,0,.72a.183.183,0,0,1-.2.195.178.178,0,0,1-.189-.2l.006-.974,1.48.009.007-1.2C6398.569,2365.336,6397.968,2365.051,6397.279,2365.046Zm.189,1.487-.387,0,0-.674a.177.177,0,0,1,.19-.195.184.184,0,0,1,.2.2Z" transform="translate(-6309.181 -2342.123)" fill="#2867b1"/>
      <path id="Tracé_2174" data-name="Tracé 2174" d="M6603.549,2366.615a.762.762,0,0,0-.751.382c-.127-.3-.316-.388-.7-.39a.715.715,0,0,0-.734.375h-.017v-.334l-1.093-.007-.022,3.743,1.093.007.017-2.912a.177.177,0,0,1,.19-.195.184.184,0,0,1,.2.2l-.017,2.911,1.092.007.018-2.912a.178.178,0,0,1,.191-.2.184.184,0,0,1,.2.2l-.017,2.912,1.093.006.018-3.095C6604.3,2367.032,6604.238,2366.619,6603.549,2366.615Z" transform="translate(-6510.597 -2343.661)" fill="#2867b1"/>
      <path id="Tracé_2175" data-name="Tracé 2175" d="M6921.229,2368.256c-.7,0-1.284.273-1.288.836l-.013,2.146c0,.563.581.848,1.277.852s1.292-.274,1.3-.836l0-.687-1.093-.007,0,.72a.184.184,0,0,1-.2.195.177.177,0,0,1-.188-.2l.006-.975,1.48.009.007-1.2C6922.518,2368.546,6921.917,2368.261,6921.229,2368.256Zm.188,1.487-.387,0,0-.674a.177.177,0,0,1,.19-.195.183.183,0,0,1,.2.2Z" transform="translate(-6825.856 -2345.289)" fill="#2867b1"/>
      <path id="Tracé_2176" data-name="Tracé 2176" d="M7150.493,2369.809c-.292,0-.672.14-.742.368h-.017v-.327l-1.093-.007-.022,3.742,1.094.007.017-2.912a.178.178,0,0,1,.191-.2.184.184,0,0,1,.2.2l-.017,2.912,1.093.007.018-2.97C7151.214,2370.2,7151.191,2369.813,7150.493,2369.809Z" transform="translate(-7051.372 -2346.82)" fill="#2867b1"/>
      <path id="Tracé_2177" data-name="Tracé 2177" d="M7357.006,2325.944l0-.615h-.3l0-.681-1.092-.007,0,.68-.292,0,0,.615.292,0-.015,2.369c0,.576.134.76.917.765l.49,0,0-.615h-.128c-.164,0-.189-.138-.189-.256l.014-2.257Z" transform="translate(-7255.203 -2302.278)" fill="#2867b1"/>
      <path id="Tracé_2178" data-name="Tracé 2178" d="M7574.862,2310.779l-.431,0,.01-1.689-1.213-.007-.028,4.659,1.214.007.013-2.225.43,0-.013,2.225,1.213.008.028-4.659-1.213-.007Z" transform="translate(-7470.058 -2286.934)" fill="#2867b1"/>
      <path id="Tracé_2179" data-name="Tracé 2179" d="M7810.6,2379.411a.184.184,0,0,1-.2.195.177.177,0,0,1-.188-.2l.017-2.912-1.093-.007-.018,3.122c0,.393.194.668.762.672.327,0,.7-.205.7-.46h.017l0,.419,1.093.007.022-3.743-1.093-.007Z" transform="translate(-7702.702 -2353.408)" fill="#2867b1"/>
      <path id="Tracé_2180" data-name="Tracé 2180" d="M8031.888,2375.306a.763.763,0,0,0-.752.382c-.127-.3-.315-.388-.7-.391a.717.717,0,0,0-.734.375h-.017l0-.334-1.093-.007-.022,3.743,1.092.007.018-2.912a.178.178,0,0,1,.191-.195.184.184,0,0,1,.2.2l-.016,2.912,1.092.006.017-2.911a.178.178,0,0,1,.191-.2.184.184,0,0,1,.2.2l-.017,2.912,1.093.007.019-3.1C8032.643,2375.723,8032.577,2375.31,8031.888,2375.306Z" transform="translate(-7919.105 -2352.231)" fill="#2867b1"/>
      <path id="Tracé_2181" data-name="Tracé 2181" d="M8343.206,2377.83c0-.563-.6-.848-1.286-.852s-1.284.273-1.287.836l0,.5,1.092.007,0-.536a.177.177,0,0,1,.19-.2.184.184,0,0,1,.2.2v.15c-.006.811-1.482.442-1.488,1.384l0,.805c0,.425.176.675.728.679a.753.753,0,0,0,.733-.421h.018l.058.381,1.11.007a7.324,7.324,0,0,1-.073-.76ZM8342.1,2380a.184.184,0,0,1-.2.195.178.178,0,0,1-.188-.2l0-.681c0-.163.035-.189.19-.293l.2-.1Z" transform="translate(-8226.822 -2353.888)" fill="#2867b1"/>
      <rect id="Rectangle_162" data-name="Rectangle 162" width="3.743" height="1.093" transform="matrix(0.006, -1, 1, 0.006, 116.999, 26.886)" fill="#2867b1"/>
      <rect id="Rectangle_163" data-name="Rectangle 163" width="0.707" height="1.093" transform="matrix(0.006, -1, 1, 0.006, 117.023, 22.934)" fill="#2867b1"/>
      <path id="Tracé_2182" data-name="Tracé 2182" d="M8674.813,2379.159c-.293,0-.672.14-.742.368h-.017v-.327l-1.093-.007-.022,3.743,1.094.007.017-2.912a.179.179,0,0,1,.191-.2.185.185,0,0,1,.2.2l-.017,2.912,1.093.007.017-2.97C8675.534,2379.55,8675.512,2379.164,8674.813,2379.159Z" transform="translate(-8554.529 -2356.04)" fill="#2867b1"/>
      <rect id="Rectangle_164" data-name="Rectangle 164" width="121.838" height="1.988" transform="translate(0.129 0)" fill="#2867b1"/>
    </g>
  </g>
</svg>
