<svg xmlns="http://www.w3.org/2000/svg" xmlns:xlink="http://www.w3.org/1999/xlink" width="1920" height="1300" viewBox="0 0 1920 1300">
  <defs>
    <clipPath id="clip-path">
      <rect id="Rectangle_100" data-name="Rectangle 100" width="1920" height="1300" fill="#fff"/>
    </clipPath>
    <linearGradient id="linear-gradient" x1="-0.287" y1="-0.301" x2="1.079" y2="1.053" gradientUnits="objectBoundingBox">
      <stop offset="0" stop-color="#0961aa"/>
      <stop offset="1" stop-color="#64d88d"/>
    </linearGradient>
    <clipPath id="clip-path-2">
      <path id="Bg_Shape" data-name="Bg Shape" d="M1279.592,1443.943s.721,64.812,0,109.527c-48.549,30.787-344.722-21.964-447.147-164.363-191.806-266.663-453.038-221.147-602.6-304.725S155.195,881.753,241.9,660.623c11.84-1.159,1037.7-.515,1037.7-.515v783.835Z" transform="translate(-176.921 -659.93)" fill="none"/>
    </clipPath>
  </defs>
  <g id="Groupe_de_masques_3" data-name="Groupe de masques 3" opacity="0.15" clip-path="url(#clip-path)">
    <circle id="Ellipse_19" data-name="Ellipse 19" cx="516.5" cy="516.5" r="516.5" transform="translate(1226 -560)" fill="url(#linear-gradient)"/>
    <ellipse id="Ellipse_20" data-name="Ellipse 20" cx="261.5" cy="262" rx="261.5" ry="262" transform="translate(284 698)" fill="url(#linear-gradient)"/>
    <ellipse id="Ellipse_21" data-name="Ellipse 21" cx="183.5" cy="184" rx="183.5" ry="184" transform="translate(24 18)" fill="url(#linear-gradient)"/>
    <g id="Groupe_de_masques_2" data-name="Groupe de masques 2" transform="translate(1559.5 -787)" clip-path="url(#clip-path-2)">
      <ellipse id="Ellipse_2" data-name="Ellipse 2" cx="135" cy="140" rx="135" ry="140" transform="translate(841.251 535.179)" fill="rgba(255,255,255,0.04)"/>
      <ellipse id="Ellipse_3" data-name="Ellipse 3" cx="135" cy="140" rx="135" ry="140" transform="translate(332.251 -155.821)" fill="rgba(255,255,255,0.04)"/>
      <path id="Tracé_1321" data-name="Tracé 1321" d="M18.36,639.45s87.678-212.733,262.03-143.694,246.216-440.924,513.624-177.4S1131.395,31.889,1131.395,31.889" transform="matrix(0.588, 0.809, -0.809, 0.588, 524.372, -439.784)" fill="none" opacity="0.08"/>
      <path id="Tracé_1322" data-name="Tracé 1322" d="M0,788.362S103.737,440.146,324.64,539.8,734.889,222.565,922.574,330.526c23.648,13.6,46.426,18.53,68.456,16.729C1141.634,334.948,1243.132,0,1243.132,0" transform="matrix(0.616, 0.788, -0.788, 0.616, 430.069, -399.749)" fill="none" opacity="0.08"/>
    </g>
  </g>
</svg>
